<svg viewBox="0 0 900 400" width="900" height="400" xmlns="http://www.w3.org/2000/svg">
  <defs>
    <marker id="arw" markerWidth="10" markerHeight="7" refX="10" refY="3.5" orient="auto">
      <polygon points="0 0, 10 3.5, 0 7" fill="#06b6d4"/>
    </marker>
    <marker id="arwP" markerWidth="10" markerHeight="7" refX="10" refY="3.5" orient="auto">
      <polygon points="0 0, 10 3.5, 0 7" fill="#a855f7"/>
    </marker>
    <marker id="arwG" markerWidth="10" markerHeight="7" refX="10" refY="3.5" orient="auto">
      <polygon points="0 0, 10 3.5, 0 7" fill="#22c55e"/>
    </marker>
    <marker id="arwO" markerWidth="10" markerHeight="7" refX="10" refY="3.5" orient="auto">
      <polygon points="0 0, 10 3.5, 0 7" fill="#f59e0b"/>
    </marker>
    <marker id="arwR" markerWidth="10" markerHeight="7" refX="10" refY="3.5" orient="auto">
      <polygon points="0 0, 10 3.5, 0 7" fill="#ef4444"/>
    </marker>
    <marker id="arwB" markerWidth="10" markerHeight="7" refX="10" refY="3.5" orient="auto">
      <polygon points="0 0, 10 3.5, 0 7" fill="#3b82f6"/>
    </marker>
  </defs>
  <text x="450" y="30" text-anchor="middle" fill="#06b6d4" font-family="Space Grotesk" font-size="16" font-weight="700">Build vs Fine-tune vs Prompt vs Buy</text>
  <rect x="50" y="55" width="185" height="220" rx="12" fill="#f8fafc" stroke="#ef4444" stroke-width="2"/>
  <text x="142.5" y="82" text-anchor="middle" fill="#ef4444" font-family="Space Grotesk" font-size="14" font-weight="600">Build Custom</text>
  <text x="142.5" y="100" text-anchor="middle" fill="#475569" font-family="Nunito" font-size="10">Train from scratch</text>
  <rect x="65" y="115" width="155" height="30" rx="10" fill="#f1f5f9" stroke="#cbd5e1" stroke-width="2"/>
  <text x="142.5" y="135" text-anchor="middle" fill="#0f172a" font-family="JetBrains Mono" font-size="10">Cost: $$$$</text>
  <rect x="65" y="155" width="155" height="30" rx="10" fill="#f1f5f9" stroke="#cbd5e1" stroke-width="2"/>
  <text x="142.5" y="175" text-anchor="middle" fill="#0f172a" font-family="JetBrains Mono" font-size="10">Control: Full</text>
  <rect x="65" y="195" width="155" height="30" rx="10" fill="#f1f5f9" stroke="#cbd5e1" stroke-width="2"/>
  <text x="142.5" y="215" text-anchor="middle" fill="#0f172a" font-family="JetBrains Mono" font-size="10">Speed: 6-18 mo</text>
  <rect x="65" y="235" width="155" height="28" rx="10" fill="#f1f5f9" stroke="#cbd5e1" stroke-width="2"/>
  <text x="142.5" y="254" text-anchor="middle" fill="#ef4444" font-family="JetBrains Mono" font-size="9">Max differentiation</text>
  <rect x="255" y="55" width="185" height="220" rx="12" fill="#f8fafc" stroke="#f59e0b" stroke-width="2"/>
  <text x="347.5" y="82" text-anchor="middle" fill="#f59e0b" font-family="Space Grotesk" font-size="14" font-weight="600">Fine-tune</text>
  <text x="347.5" y="100" text-anchor="middle" fill="#475569" font-family="Nunito" font-size="10">Adapt base model</text>
  <rect x="270" y="115" width="155" height="30" rx="10" fill="#f1f5f9" stroke="#cbd5e1" stroke-width="2"/>
  <text x="347.5" y="135" text-anchor="middle" fill="#0f172a" font-family="JetBrains Mono" font-size="10">Cost: $$$</text>
  <rect x="270" y="155" width="155" height="30" rx="10" fill="#f1f5f9" stroke="#cbd5e1" stroke-width="2"/>
  <text x="347.5" y="175" text-anchor="middle" fill="#0f172a" font-family="JetBrains Mono" font-size="10">Control: High</text>
  <rect x="270" y="195" width="155" height="30" rx="10" fill="#f1f5f9" stroke="#cbd5e1" stroke-width="2"/>
  <text x="347.5" y="215" text-anchor="middle" fill="#0f172a" font-family="JetBrains Mono" font-size="10">Speed: 2-6 mo</text>
  <rect x="270" y="235" width="155" height="28" rx="10" fill="#f1f5f9" stroke="#cbd5e1" stroke-width="2"/>
  <text x="347.5" y="254" text-anchor="middle" fill="#f59e0b" font-family="JetBrains Mono" font-size="9">Good balance</text>
  <rect x="460" y="55" width="185" height="220" rx="12" fill="#f8fafc" stroke="#22c55e" stroke-width="2"/>
  <text x="552.5" y="82" text-anchor="middle" fill="#22c55e" font-family="Space Grotesk" font-size="14" font-weight="600">Prompt Eng.</text>
  <text x="552.5" y="100" text-anchor="middle" fill="#475569" font-family="Nunito" font-size="10">Use as-is + prompts</text>
  <rect x="475" y="115" width="155" height="30" rx="10" fill="#f1f5f9" stroke="#cbd5e1" stroke-width="2"/>
  <text x="552.5" y="135" text-anchor="middle" fill="#0f172a" font-family="JetBrains Mono" font-size="10">Cost: $</text>
  <rect x="475" y="155" width="155" height="30" rx="10" fill="#f1f5f9" stroke="#cbd5e1" stroke-width="2"/>
  <text x="552.5" y="175" text-anchor="middle" fill="#0f172a" font-family="JetBrains Mono" font-size="10">Control: Medium</text>
  <rect x="475" y="195" width="155" height="30" rx="10" fill="#f1f5f9" stroke="#cbd5e1" stroke-width="2"/>
  <text x="552.5" y="215" text-anchor="middle" fill="#0f172a" font-family="JetBrains Mono" font-size="10">Speed: 1-4 wk</text>
  <rect x="475" y="235" width="155" height="28" rx="10" fill="#f1f5f9" stroke="#cbd5e1" stroke-width="2"/>
  <text x="552.5" y="254" text-anchor="middle" fill="#22c55e" font-family="JetBrains Mono" font-size="9">Fastest start</text>
  <rect x="665" y="55" width="185" height="220" rx="12" fill="#f8fafc" stroke="#3b82f6" stroke-width="2"/>
  <text x="757.5" y="82" text-anchor="middle" fill="#3b82f6" font-family="Space Grotesk" font-size="14" font-weight="600">Buy / SaaS</text>
  <text x="757.5" y="100" text-anchor="middle" fill="#475569" font-family="Nunito" font-size="10">Off-the-shelf product</text>
  <rect x="680" y="115" width="155" height="30" rx="10" fill="#f1f5f9" stroke="#cbd5e1" stroke-width="2"/>
  <text x="757.5" y="135" text-anchor="middle" fill="#0f172a" font-family="JetBrains Mono" font-size="10">Cost: $$</text>
  <rect x="680" y="155" width="155" height="30" rx="10" fill="#f1f5f9" stroke="#cbd5e1" stroke-width="2"/>
  <text x="757.5" y="175" text-anchor="middle" fill="#0f172a" font-family="JetBrains Mono" font-size="10">Control: Low</text>
  <rect x="680" y="195" width="155" height="30" rx="10" fill="#f1f5f9" stroke="#cbd5e1" stroke-width="2"/>
  <text x="757.5" y="215" text-anchor="middle" fill="#0f172a" font-family="JetBrains Mono" font-size="10">Speed: 1-2 wk</text>
  <rect x="680" y="235" width="155" height="28" rx="10" fill="#f1f5f9" stroke="#cbd5e1" stroke-width="2"/>
  <text x="757.5" y="254" text-anchor="middle" fill="#3b82f6" font-family="JetBrains Mono" font-size="9">Lowest effort</text>
  <line x1="50" y1="310" x2="850" y2="310" stroke="#cbd5e1" stroke-width="2"/>
  <text x="90" y="330" text-anchor="middle" fill="#ef4444" font-family="JetBrains Mono" font-size="10">← More Control</text>
  <text x="810" y="330" text-anchor="middle" fill="#22c55e" font-family="JetBrains Mono" font-size="10">More Speed →</text>
  <text x="450" y="355" text-anchor="middle" fill="#0f172a" font-family="JetBrains Mono" font-size="10">Choose based on: data sensitivity, competitive advantage, timeline, team capability</text>
</svg>