<svg viewBox="0 0 900 400" width="900" height="400" xmlns="http://www.w3.org/2000/svg">
  <defs>
    <marker id="arw" markerWidth="10" markerHeight="7" refX="10" refY="3.5" orient="auto">
      <polygon points="0 0, 10 3.5, 0 7" fill="#06b6d4"/>
    </marker>
    <marker id="arwP" markerWidth="10" markerHeight="7" refX="10" refY="3.5" orient="auto">
      <polygon points="0 0, 10 3.5, 0 7" fill="#a855f7"/>
    </marker>
    <marker id="arwG" markerWidth="10" markerHeight="7" refX="10" refY="3.5" orient="auto">
      <polygon points="0 0, 10 3.5, 0 7" fill="#22c55e"/>
    </marker>
    <marker id="arwO" markerWidth="10" markerHeight="7" refX="10" refY="3.5" orient="auto">
      <polygon points="0 0, 10 3.5, 0 7" fill="#f59e0b"/>
    </marker>
    <marker id="arwR" markerWidth="10" markerHeight="7" refX="10" refY="3.5" orient="auto">
      <polygon points="0 0, 10 3.5, 0 7" fill="#ef4444"/>
    </marker>
    <marker id="arwB" markerWidth="10" markerHeight="7" refX="10" refY="3.5" orient="auto">
      <polygon points="0 0, 10 3.5, 0 7" fill="#3b82f6"/>
    </marker>
  </defs>
  <text x="450" y="30" text-anchor="middle" fill="#06b6d4" font-family="Space Grotesk" font-size="16" font-weight="700">Data Architecture Foundation</text>
  <rect x="40" y="240" width="820" height="120" rx="12" fill="#f8fafc" stroke="#3b82f6" stroke-width="2"/>
  <text x="450" y="270" text-anchor="middle" fill="#3b82f6" font-family="Space Grotesk" font-size="14" font-weight="600">Existing Data Systems</text>
  <rect x="50" y="285" width="100" height="28" rx="6" fill="#f1f5f9" stroke="#cbd5e1" stroke-width="1"/>
  <text x="100" y="303" text-anchor="middle" fill="#3b82f6" font-family="JetBrains Mono" font-size="11">RDBMS</text>
  <rect x="210" y="285" width="100" height="28" rx="6" fill="#f1f5f9" stroke="#cbd5e1" stroke-width="1"/>
  <text x="260" y="303" text-anchor="middle" fill="#3b82f6" font-family="JetBrains Mono" font-size="11">Data Lake</text>
  <rect x="370" y="285" width="100" height="28" rx="6" fill="#f1f5f9" stroke="#cbd5e1" stroke-width="1"/>
  <text x="420" y="303" text-anchor="middle" fill="#3b82f6" font-family="JetBrains Mono" font-size="11">Data Warehouse</text>
  <rect x="530" y="285" width="100" height="28" rx="6" fill="#f1f5f9" stroke="#cbd5e1" stroke-width="1"/>
  <text x="580" y="303" text-anchor="middle" fill="#3b82f6" font-family="JetBrains Mono" font-size="11">ETL Pipelines</text>
  <rect x="690" y="285" width="100" height="28" rx="6" fill="#f1f5f9" stroke="#cbd5e1" stroke-width="1"/>
  <text x="740" y="303" text-anchor="middle" fill="#3b82f6" font-family="JetBrains Mono" font-size="11">Streaming</text>
  <text x="450" y="350" text-anchor="middle" fill="#475569" font-family="Nunito" font-size="10">PostgreSQL · S3 · Snowflake · Airflow · Kafka</text>
  <rect x="40" y="60" width="820" height="150" rx="12" fill="#f8fafc" stroke="#a855f7" stroke-width="2"/>
  <text x="450" y="85" text-anchor="middle" fill="#a855f7" font-family="Space Grotesk" font-size="14" font-weight="600">AI Requirements Layer</text>
  <rect x="45" y="100" width="110" height="28" rx="6" fill="#f1f5f9" stroke="#a855f7" stroke-width="1"/>
  <text x="100" y="118" text-anchor="middle" fill="#a855f7" font-family="JetBrains Mono" font-size="11">Vector Store</text>
  <rect x="205" y="100" width="110" height="28" rx="6" fill="#f1f5f9" stroke="#a855f7" stroke-width="1"/>
  <text x="260" y="118" text-anchor="middle" fill="#a855f7" font-family="JetBrains Mono" font-size="11">Feature Store</text>
  <rect x="365" y="100" width="110" height="28" rx="6" fill="#f1f5f9" stroke="#a855f7" stroke-width="1"/>
  <text x="420" y="118" text-anchor="middle" fill="#a855f7" font-family="JetBrains Mono" font-size="11">Labeling Platform</text>
  <rect x="525" y="100" width="110" height="28" rx="6" fill="#f1f5f9" stroke="#a855f7" stroke-width="1"/>
  <text x="580" y="118" text-anchor="middle" fill="#a855f7" font-family="JetBrains Mono" font-size="11">Lineage Tracking</text>
  <rect x="685" y="100" width="110" height="28" rx="6" fill="#f1f5f9" stroke="#a855f7" stroke-width="1"/>
  <text x="740" y="118" text-anchor="middle" fill="#a855f7" font-family="JetBrains Mono" font-size="11">Model Registry</text>
  <rect x="125" y="145" width="120" height="28" rx="6" fill="#f1f5f9" stroke="#a855f7" stroke-width="1"/>
  <text x="185" y="163" text-anchor="middle" fill="#a855f7" font-family="JetBrains Mono" font-size="11">Data Versioning</text>
  <rect x="345" y="145" width="120" height="28" rx="6" fill="#f1f5f9" stroke="#a855f7" stroke-width="1"/>
  <text x="405" y="163" text-anchor="middle" fill="#a855f7" font-family="JetBrains Mono" font-size="11">Embedding Pipeline</text>
  <rect x="565" y="145" width="120" height="28" rx="6" fill="#f1f5f9" stroke="#a855f7" stroke-width="1"/>
  <text x="625" y="163" text-anchor="middle" fill="#a855f7" font-family="JetBrains Mono" font-size="11">Quality Monitoring</text>
  <line x1="450" y1="210" x2="450" y2="238" stroke="#06b6d4" stroke-width="2" stroke-dasharray="6,4" marker-end="url(#arw)"/>
  <text x="470" y="230" text-anchor="middle" fill="#475569" font-family="JetBrains Mono" font-size="9">integrates with</text>
</svg>