<svg viewBox="0 0 900 320" width="900" height="320" xmlns="http://www.w3.org/2000/svg">
  <defs>
    <marker id="arw" markerWidth="10" markerHeight="7" refX="10" refY="3.5" orient="auto">
      <polygon points="0 0, 10 3.5, 0 7" fill="#06b6d4"/>
    </marker>
    <marker id="arwP" markerWidth="10" markerHeight="7" refX="10" refY="3.5" orient="auto">
      <polygon points="0 0, 10 3.5, 0 7" fill="#a855f7"/>
    </marker>
    <marker id="arwG" markerWidth="10" markerHeight="7" refX="10" refY="3.5" orient="auto">
      <polygon points="0 0, 10 3.5, 0 7" fill="#22c55e"/>
    </marker>
    <marker id="arwO" markerWidth="10" markerHeight="7" refX="10" refY="3.5" orient="auto">
      <polygon points="0 0, 10 3.5, 0 7" fill="#f59e0b"/>
    </marker>
    <marker id="arwR" markerWidth="10" markerHeight="7" refX="10" refY="3.5" orient="auto">
      <polygon points="0 0, 10 3.5, 0 7" fill="#ef4444"/>
    </marker>
    <marker id="arwB" markerWidth="10" markerHeight="7" refX="10" refY="3.5" orient="auto">
      <polygon points="0 0, 10 3.5, 0 7" fill="#3b82f6"/>
    </marker>
  </defs>
  <text x="450" y="30" text-anchor="middle" fill="#06b6d4" font-family="Space Grotesk" font-size="16" font-weight="700">Inference Data Pipeline</text>
  <rect x="30" y="130" width="120" height="60" rx="10" fill="#f8fafc" stroke="#3b82f6" stroke-width="2"/>
  <text x="90" y="155" text-anchor="middle" fill="#0f172a" font-family="Space Grotesk" font-size="12" font-weight="600">Input Data</text>
  <text x="90" y="172" text-anchor="middle" fill="#475569" font-family="Nunito" font-size="9">Request payload</text>
  <line x1="150" y1="145" x2="225" y2="95" stroke="#06b6d4" stroke-width="2" marker-end="url(#arw)"/>
  <line x1="150" y1="175" x2="225" y2="215" stroke="#06b6d4" stroke-width="2" marker-end="url(#arw)"/>
  <rect x="230" y="55" width="190" height="70" rx="10" fill="#f8fafc" stroke="#ef4444" stroke-width="2"/>
  <text x="325" y="82" text-anchor="middle" fill="#ef4444" font-family="Space Grotesk" font-size="13" font-weight="600">Real-time Path</text>
  <text x="325" y="100" text-anchor="middle" fill="#475569" font-family="Nunito" font-size="9">Feature lookup → Model → Response</text>
  <text x="325" y="115" text-anchor="middle" fill="#ef4444" font-family="JetBrains Mono" font-size="9">Latency: &lt;100ms</text>
  <rect x="230" y="185" width="190" height="70" rx="10" fill="#f8fafc" stroke="#22c55e" stroke-width="2"/>
  <text x="325" y="210" text-anchor="middle" fill="#22c55e" font-family="Space Grotesk" font-size="13" font-weight="600">Batch Path</text>
  <text x="325" y="228" text-anchor="middle" fill="#475569" font-family="Nunito" font-size="9">Queue → Process → Store</text>
  <text x="325" y="243" text-anchor="middle" fill="#22c55e" font-family="JetBrains Mono" font-size="9">Throughput-optimized</text>
  <rect x="470" y="120" width="140" height="70" rx="10" fill="#f8fafc" stroke="#a855f7" stroke-width="2"/>
  <text x="540" y="148" text-anchor="middle" fill="#a855f7" font-family="Space Grotesk" font-size="13" font-weight="600">Feature Store</text>
  <text x="540" y="168" text-anchor="middle" fill="#475569" font-family="Nunito" font-size="9">Online + Offline</text>
  <line x1="420" y1="90" x2="468" y2="140" stroke="#a855f7" stroke-width="2" marker-end="url(#arwP)"/>
  <line x1="420" y1="220" x2="468" y2="170" stroke="#a855f7" stroke-width="2" marker-end="url(#arwP)"/>
  <rect x="660" y="120" width="120" height="70" rx="10" fill="#f8fafc" stroke="#06b6d4" stroke-width="2"/>
  <text x="720" y="148" text-anchor="middle" fill="#06b6d4" font-family="Space Grotesk" font-size="13" font-weight="600">ML Model</text>
  <text x="720" y="168" text-anchor="middle" fill="#475569" font-family="Nunito" font-size="9">Inference</text>
  <line x1="610" y1="155" x2="658" y2="155" stroke="#06b6d4" stroke-width="2" marker-end="url(#arw)"/>
  <rect x="820" y="120" width="60" height="70" rx="10" fill="#f8fafc" stroke="#22c55e" stroke-width="2"/>
  <text x="850" y="148" text-anchor="middle" fill="#22c55e" font-family="Space Grotesk" font-size="12" font-weight="600">Out</text>
  <text x="850" y="168" text-anchor="middle" fill="#475569" font-family="Nunito" font-size="9">Result</text>
  <line x1="780" y1="155" x2="818" y2="155" stroke="#22c55e" stroke-width="2" marker-end="url(#arwG)"/>
</svg>