<svg viewBox="0 0 730 410" width="730" height="410" xmlns="http://www.w3.org/2000/svg">
  <defs>
    <marker id="arw" markerWidth="10" markerHeight="7" refX="10" refY="3.5" orient="auto">
      <polygon points="0 0, 10 3.5, 0 7" fill="#06b6d4"/>
    </marker>
    <marker id="arwP" markerWidth="10" markerHeight="7" refX="10" refY="3.5" orient="auto">
      <polygon points="0 0, 10 3.5, 0 7" fill="#a855f7"/>
    </marker>
    <marker id="arwG" markerWidth="10" markerHeight="7" refX="10" refY="3.5" orient="auto">
      <polygon points="0 0, 10 3.5, 0 7" fill="#22c55e"/>
    </marker>
    <marker id="arwO" markerWidth="10" markerHeight="7" refX="10" refY="3.5" orient="auto">
      <polygon points="0 0, 10 3.5, 0 7" fill="#f59e0b"/>
    </marker>
    <marker id="arwR" markerWidth="10" markerHeight="7" refX="10" refY="3.5" orient="auto">
      <polygon points="0 0, 10 3.5, 0 7" fill="#ef4444"/>
    </marker>
    <marker id="arwB" markerWidth="10" markerHeight="7" refX="10" refY="3.5" orient="auto">
      <polygon points="0 0, 10 3.5, 0 7" fill="#3b82f6"/>
    </marker>
  </defs>
  <text x="450" y="30" text-anchor="middle" fill="#06b6d4" font-family="Space Grotesk" font-size="16" font-weight="700">AI Gateway Architecture</text>
  <rect x="30" y="70" width="120" height="50" rx="10" fill="#f8fafc" stroke="#06b6d4" stroke-width="2"/>
  <text x="90" y="92" text-anchor="middle" fill="#0f172a" font-family="Space Grotesk" font-size="12" font-weight="600">Marketing</text>
  <text x="90" y="108" text-anchor="middle" fill="#475569" font-family="Nunito" font-size="9">Team</text>
  <line x1="150" y1="95" x2="248" y2="200" stroke="#06b6d4" stroke-width="2" marker-end="url(#arw)"/>
  <rect x="30" y="140" width="120" height="50" rx="10" fill="#f8fafc" stroke="#06b6d4" stroke-width="2"/>
  <text x="90" y="162" text-anchor="middle" fill="#0f172a" font-family="Space Grotesk" font-size="12" font-weight="600">Engineering</text>
  <text x="90" y="178" text-anchor="middle" fill="#475569" font-family="Nunito" font-size="9">Team</text>
  <line x1="150" y1="165" x2="248" y2="200" stroke="#06b6d4" stroke-width="2" marker-end="url(#arw)"/>
  <rect x="30" y="210" width="120" height="50" rx="10" fill="#f8fafc" stroke="#06b6d4" stroke-width="2"/>
  <text x="90" y="232" text-anchor="middle" fill="#0f172a" font-family="Space Grotesk" font-size="12" font-weight="600">Support</text>
  <text x="90" y="248" text-anchor="middle" fill="#475569" font-family="Nunito" font-size="9">Team</text>
  <line x1="150" y1="235" x2="248" y2="200" stroke="#06b6d4" stroke-width="2" marker-end="url(#arw)"/>
  <rect x="30" y="280" width="120" height="50" rx="10" fill="#f8fafc" stroke="#06b6d4" stroke-width="2"/>
  <text x="90" y="302" text-anchor="middle" fill="#0f172a" font-family="Space Grotesk" font-size="12" font-weight="600">Analytics</text>
  <text x="90" y="318" text-anchor="middle" fill="#475569" font-family="Nunito" font-size="9">Team</text>
  <line x1="150" y1="305" x2="248" y2="200" stroke="#06b6d4" stroke-width="2" marker-end="url(#arw)"/>
  <rect x="250" y="80" width="200" height="250" rx="12" fill="#f8fafc" stroke="#06b6d4" stroke-width="2.5"/>
  <text x="350" y="110" text-anchor="middle" fill="#06b6d4" font-family="Space Grotesk" font-size="15" font-weight="600">AI Gateway</text>
  <rect x="270" y="125" width="160" height="28" rx="6" fill="#f1f5f9" stroke="#cbd5e1" stroke-width="1"/>
  <text x="350" y="143" text-anchor="middle" fill="#0f172a" font-family="JetBrains Mono" font-size="11">Auth &amp;amp; API Keys</text>
  <rect x="270" y="163" width="160" height="28" rx="6" fill="#f1f5f9" stroke="#cbd5e1" stroke-width="1"/>
  <text x="350" y="181" text-anchor="middle" fill="#0f172a" font-family="JetBrains Mono" font-size="11">Rate Limiting</text>
  <rect x="270" y="201" width="160" height="28" rx="6" fill="#f1f5f9" stroke="#cbd5e1" stroke-width="1"/>
  <text x="350" y="219" text-anchor="middle" fill="#0f172a" font-family="JetBrains Mono" font-size="11">PII Redaction</text>
  <rect x="270" y="239" width="160" height="28" rx="6" fill="#f1f5f9" stroke="#cbd5e1" stroke-width="1"/>
  <text x="350" y="257" text-anchor="middle" fill="#0f172a" font-family="JetBrains Mono" font-size="11">I/O Logging</text>
  <rect x="270" y="277" width="160" height="28" rx="6" fill="#f1f5f9" stroke="#cbd5e1" stroke-width="1"/>
  <text x="350" y="295" text-anchor="middle" fill="#0f172a" font-family="JetBrains Mono" font-size="11">Cost Tracking</text>
  <rect x="560" y="80" width="130" height="50" rx="10" fill="#f8fafc" stroke="#a855f7" stroke-width="2"/>
  <text x="625" y="110" text-anchor="middle" fill="#a855f7" font-family="Space Grotesk" font-size="12" font-weight="600">OpenAI</text>
  <line x1="450" y1="200" x2="558" y2="105" stroke="#a855f7" stroke-width="2" marker-end="url(#arwP)"/>
  <rect x="560" y="150" width="130" height="50" rx="10" fill="#f8fafc" stroke="#a855f7" stroke-width="2"/>
  <text x="625" y="180" text-anchor="middle" fill="#a855f7" font-family="Space Grotesk" font-size="12" font-weight="600">Anthropic</text>
  <line x1="450" y1="200" x2="558" y2="175" stroke="#a855f7" stroke-width="2" marker-end="url(#arwP)"/>
  <rect x="560" y="220" width="130" height="50" rx="10" fill="#f8fafc" stroke="#a855f7" stroke-width="2"/>
  <text x="625" y="250" text-anchor="middle" fill="#a855f7" font-family="Space Grotesk" font-size="12" font-weight="600">Google</text>
  <line x1="450" y1="200" x2="558" y2="245" stroke="#a855f7" stroke-width="2" marker-end="url(#arwP)"/>
  <rect x="560" y="290" width="130" height="50" rx="10" fill="#f8fafc" stroke="#22c55e" stroke-width="2"/>
  <text x="625" y="320" text-anchor="middle" fill="#22c55e" font-family="Space Grotesk" font-size="12" font-weight="600">Self-hosted</text>
  <line x1="450" y1="200" x2="558" y2="315" stroke="#22c55e" stroke-width="2" marker-end="url(#arwP)"/>
  <path d="M 560 360 L 350 360 L 350 335" fill="none" stroke="#06b6d4" stroke-width="2" stroke-dasharray="6,4" marker-end="url(#arw)"/>
  <text x="455" y="378" text-anchor="middle" fill="#475569" font-family="JetBrains Mono" font-size="9">response with cost + latency metadata</text>
</svg>