<svg viewBox="0 0 900 400" width="900" height="400" xmlns="http://www.w3.org/2000/svg">
  <defs>
    <marker id="arw" markerWidth="10" markerHeight="7" refX="10" refY="3.5" orient="auto">
      <polygon points="0 0, 10 3.5, 0 7" fill="#06b6d4"/>
    </marker>
    <marker id="arwP" markerWidth="10" markerHeight="7" refX="10" refY="3.5" orient="auto">
      <polygon points="0 0, 10 3.5, 0 7" fill="#a855f7"/>
    </marker>
    <marker id="arwG" markerWidth="10" markerHeight="7" refX="10" refY="3.5" orient="auto">
      <polygon points="0 0, 10 3.5, 0 7" fill="#22c55e"/>
    </marker>
    <marker id="arwO" markerWidth="10" markerHeight="7" refX="10" refY="3.5" orient="auto">
      <polygon points="0 0, 10 3.5, 0 7" fill="#f59e0b"/>
    </marker>
    <marker id="arwR" markerWidth="10" markerHeight="7" refX="10" refY="3.5" orient="auto">
      <polygon points="0 0, 10 3.5, 0 7" fill="#ef4444"/>
    </marker>
    <marker id="arwB" markerWidth="10" markerHeight="7" refX="10" refY="3.5" orient="auto">
      <polygon points="0 0, 10 3.5, 0 7" fill="#3b82f6"/>
    </marker>
  </defs>
  <text x="450" y="30" text-anchor="middle" fill="#06b6d4" font-family="Space Grotesk" font-size="16" font-weight="700">AI-Augmented UI</text>
  <rect x="40" y="60" width="500" height="300" rx="12" fill="#f8fafc" stroke="#3b82f6" stroke-width="2"/>
  <text x="290" y="90" text-anchor="middle" fill="#3b82f6" font-family="Space Grotesk" font-size="15" font-weight="600">Existing Application</text>
  <rect x="60" y="110" width="460" height="80" rx="10" fill="#f1f5f9" stroke="#cbd5e1" stroke-width="2"/>
  <text x="290" y="140" text-anchor="middle" fill="#0f172a" font-family="Space Grotesk" font-size="13" font-weight="600">Main Content Area</text>
  <text x="290" y="160" text-anchor="middle" fill="#475569" font-family="Nunito" font-size="11">Forms · Tables · Reports · Workflows</text>
  <rect x="60" y="210" width="460" height="60" rx="10" fill="#f1f5f9" stroke="#cbd5e1" stroke-width="2"/>
  <text x="290" y="240" text-anchor="middle" fill="#0f172a" font-family="Space Grotesk" font-size="13" font-weight="600">Navigation + Controls</text>
  <text x="290" y="258" text-anchor="middle" fill="#475569" font-family="Nunito" font-size="10">Standard UI components</text>
  <rect x="580" y="60" width="280" height="300" rx="12" fill="#f8fafc" stroke="#a855f7" stroke-width="2"/>
  <text x="720" y="90" text-anchor="middle" fill="#a855f7" font-family="Space Grotesk" font-size="15" font-weight="600">AI Copilot Panel</text>
  <rect x="600" y="110" width="240" height="50" rx="10" fill="#f1f5f9" stroke="#a855f7" stroke-width="2"/>
  <text x="720" y="135" text-anchor="middle" fill="#a855f7" font-family="JetBrains Mono" font-size="10">Context-aware suggestions</text>
  <rect x="600" y="175" width="240" height="50" rx="10" fill="#f1f5f9" stroke="#a855f7" stroke-width="2"/>
  <text x="720" y="200" text-anchor="middle" fill="#a855f7" font-family="JetBrains Mono" font-size="10">Natural language queries</text>
  <rect x="600" y="240" width="240" height="50" rx="10" fill="#f1f5f9" stroke="#a855f7" stroke-width="2"/>
  <text x="720" y="265" text-anchor="middle" fill="#a855f7" font-family="JetBrains Mono" font-size="10">Auto-complete + drafting</text>
  <rect x="600" y="305" width="240" height="40" rx="10" fill="#f1f5f9" stroke="#a855f7" stroke-width="2"/>
  <text x="720" y="328" text-anchor="middle" fill="#a855f7" font-family="JetBrains Mono" font-size="10">Inline explanations</text>
  <line x1="540" y1="200" x2="578" y2="200" stroke="#a855f7" stroke-width="2" marker-end="url(#arwP)"/>
  <text x="560" y="190" text-anchor="middle" fill="#a855f7" font-family="JetBrains Mono" font-size="9">context</text>
</svg>