<svg viewBox="0 0 900 420" width="900" height="420" xmlns="http://www.w3.org/2000/svg">
  <defs>
    <marker id="arw" markerWidth="10" markerHeight="7" refX="10" refY="3.5" orient="auto">
      <polygon points="0 0, 10 3.5, 0 7" fill="#06b6d4"/>
    </marker>
    <marker id="arwP" markerWidth="10" markerHeight="7" refX="10" refY="3.5" orient="auto">
      <polygon points="0 0, 10 3.5, 0 7" fill="#a855f7"/>
    </marker>
    <marker id="arwG" markerWidth="10" markerHeight="7" refX="10" refY="3.5" orient="auto">
      <polygon points="0 0, 10 3.5, 0 7" fill="#22c55e"/>
    </marker>
    <marker id="arwO" markerWidth="10" markerHeight="7" refX="10" refY="3.5" orient="auto">
      <polygon points="0 0, 10 3.5, 0 7" fill="#f59e0b"/>
    </marker>
    <marker id="arwR" markerWidth="10" markerHeight="7" refX="10" refY="3.5" orient="auto">
      <polygon points="0 0, 10 3.5, 0 7" fill="#ef4444"/>
    </marker>
    <marker id="arwB" markerWidth="10" markerHeight="7" refX="10" refY="3.5" orient="auto">
      <polygon points="0 0, 10 3.5, 0 7" fill="#3b82f6"/>
    </marker>
  </defs>
  <text x="450" y="30" text-anchor="middle" fill="#06b6d4" font-family="Space Grotesk" font-size="16" font-weight="700">MLOps Lifecycle</text>
  <circle cx="450" cy="90" r="42" fill="#f8fafc" stroke="#3b82f6" stroke-width="2.5"/>
  <text x="450" y="94" text-anchor="middle" fill="#3b82f6" font-family="Space Grotesk" font-size="11" font-weight="600">Train</text>
  <line x1="488.1051177665153" y1="112" x2="533.1384387633061" y2="138" stroke="#3b82f6" stroke-width="2" marker-end="url(#arw)"/>
  <circle cx="571.2435565298214" cy="160" r="42" fill="#f8fafc" stroke="#a855f7" stroke-width="2.5"/>
  <text x="571.2435565298214" y="164" text-anchor="middle" fill="#a855f7" font-family="Space Grotesk" font-size="11" font-weight="600">Evaluate</text>
  <line x1="571.2435565298214" y1="204" x2="571.2435565298214" y2="256" stroke="#a855f7" stroke-width="2" marker-end="url(#arw)"/>
  <circle cx="571.2435565298214" cy="300" r="42" fill="#f8fafc" stroke="#22c55e" stroke-width="2.5"/>
  <text x="571.2435565298214" y="304" text-anchor="middle" fill="#22c55e" font-family="Space Grotesk" font-size="11" font-weight="600">Deploy</text>
  <line x1="533.1384387633061" y1="322" x2="488.1051177665153" y2="348" stroke="#22c55e" stroke-width="2" marker-end="url(#arw)"/>
  <circle cx="450" cy="370" r="42" fill="#f8fafc" stroke="#f59e0b" stroke-width="2.5"/>
  <text x="450" y="374" text-anchor="middle" fill="#f59e0b" font-family="Space Grotesk" font-size="11" font-weight="600">Monitor</text>
  <line x1="411.8948822334847" y1="348" x2="366.86156123669394" y2="322.00000000000006" stroke="#f59e0b" stroke-width="2" marker-end="url(#arw)"/>
  <circle cx="328.7564434701786" cy="300.00000000000006" r="42" fill="#f8fafc" stroke="#ef4444" stroke-width="2.5"/>
  <text x="328.7564434701786" y="304.00000000000006" text-anchor="middle" fill="#ef4444" font-family="Space Grotesk" font-size="11" font-weight="600">Detect Drift</text>
  <line x1="328.7564434701786" y1="256.00000000000006" x2="328.7564434701786" y2="204" stroke="#ef4444" stroke-width="2" marker-end="url(#arw)"/>
  <circle cx="328.7564434701786" cy="160" r="42" fill="#f8fafc" stroke="#06b6d4" stroke-width="2.5"/>
  <text x="328.7564434701786" y="164" text-anchor="middle" fill="#06b6d4" font-family="Space Grotesk" font-size="11" font-weight="600">Retrain</text>
  <line x1="366.86156123669394" y1="138" x2="411.8948822334847" y2="112" stroke="#06b6d4" stroke-width="2" marker-end="url(#arw)"/>
  <text x="450" y="225" text-anchor="middle" fill="#0f172a" font-family="Space Grotesk" font-size="12" font-weight="600">Continuous</text>
  <text x="450" y="242" text-anchor="middle" fill="#0f172a" font-family="Space Grotesk" font-size="12" font-weight="600">Improvement</text>
</svg>