<svg viewBox="0 0 900 380" width="900" height="380" xmlns="http://www.w3.org/2000/svg">
  <defs>
    <marker id="arw" markerWidth="10" markerHeight="7" refX="10" refY="3.5" orient="auto">
      <polygon points="0 0, 10 3.5, 0 7" fill="#06b6d4"/>
    </marker>
    <marker id="arwP" markerWidth="10" markerHeight="7" refX="10" refY="3.5" orient="auto">
      <polygon points="0 0, 10 3.5, 0 7" fill="#a855f7"/>
    </marker>
    <marker id="arwG" markerWidth="10" markerHeight="7" refX="10" refY="3.5" orient="auto">
      <polygon points="0 0, 10 3.5, 0 7" fill="#22c55e"/>
    </marker>
    <marker id="arwO" markerWidth="10" markerHeight="7" refX="10" refY="3.5" orient="auto">
      <polygon points="0 0, 10 3.5, 0 7" fill="#f59e0b"/>
    </marker>
    <marker id="arwR" markerWidth="10" markerHeight="7" refX="10" refY="3.5" orient="auto">
      <polygon points="0 0, 10 3.5, 0 7" fill="#ef4444"/>
    </marker>
    <marker id="arwB" markerWidth="10" markerHeight="7" refX="10" refY="3.5" orient="auto">
      <polygon points="0 0, 10 3.5, 0 7" fill="#3b82f6"/>
    </marker>
  </defs>
  <text x="450" y="30" text-anchor="middle" fill="#06b6d4" font-family="Space Grotesk" font-size="16" font-weight="700">Safety Layer Architecture</text>
  <rect x="30" y="155" width="100" height="60" rx="10" fill="#f8fafc" stroke="#3b82f6" stroke-width="2"/>
  <text x="80" y="180" text-anchor="middle" fill="#0f172a" font-family="Space Grotesk" font-size="12" font-weight="600">User Input</text>
  <line x1="130" y1="185" x2="198" y2="185" stroke="#06b6d4" stroke-width="2" marker-end="url(#arw)"/>
  <rect x="200" y="100" width="180" height="170" rx="12" fill="#f8fafc" stroke="#ef4444" stroke-width="2"/>
  <text x="290" y="125" text-anchor="middle" fill="#ef4444" font-family="Space Grotesk" font-size="13" font-weight="600">Input Guardrails</text>
  <rect x="215" y="140" width="150" height="24" rx="6" fill="#f1f5f9" stroke="#ef4444" stroke-width="1"/>
  <text x="290" y="156" text-anchor="middle" fill="#ef4444" font-family="JetBrains Mono" font-size="10">PII Detection</text>
  <rect x="215" y="170" width="150" height="24" rx="6" fill="#f1f5f9" stroke="#ef4444" stroke-width="1"/>
  <text x="290" y="186" text-anchor="middle" fill="#ef4444" font-family="JetBrains Mono" font-size="10">Prompt Injection</text>
  <rect x="215" y="200" width="150" height="24" rx="6" fill="#f1f5f9" stroke="#ef4444" stroke-width="1"/>
  <text x="290" y="216" text-anchor="middle" fill="#ef4444" font-family="JetBrains Mono" font-size="10">Topic Filtering</text>
  <rect x="215" y="230" width="150" height="24" rx="6" fill="#f1f5f9" stroke="#ef4444" stroke-width="1"/>
  <text x="290" y="246" text-anchor="middle" fill="#ef4444" font-family="JetBrains Mono" font-size="10">Rate Limiting</text>
  <line x1="380" y1="185" x2="428" y2="185" stroke="#06b6d4" stroke-width="2" marker-end="url(#arw)"/>
  <rect x="430" y="140" width="130" height="90" rx="12" fill="#f8fafc" stroke="#a855f7" stroke-width="2"/>
  <text x="495" y="175" text-anchor="middle" fill="#a855f7" font-family="Space Grotesk" font-size="16" font-weight="700">LLM</text>
  <text x="495" y="198" text-anchor="middle" fill="#475569" font-family="Nunito" font-size="10">Inference</text>
  <line x1="560" y1="185" x2="608" y2="185" stroke="#a855f7" stroke-width="2" marker-end="url(#arwP)"/>
  <rect x="610" y="100" width="180" height="170" rx="12" fill="#f8fafc" stroke="#22c55e" stroke-width="2"/>
  <text x="700" y="125" text-anchor="middle" fill="#22c55e" font-family="Space Grotesk" font-size="13" font-weight="600">Output Guardrails</text>
  <rect x="625" y="140" width="150" height="24" rx="6" fill="#f1f5f9" stroke="#22c55e" stroke-width="1"/>
  <text x="700" y="156" text-anchor="middle" fill="#22c55e" font-family="JetBrains Mono" font-size="10">Fact Checking</text>
  <rect x="625" y="170" width="150" height="24" rx="6" fill="#f1f5f9" stroke="#22c55e" stroke-width="1"/>
  <text x="700" y="186" text-anchor="middle" fill="#22c55e" font-family="JetBrains Mono" font-size="10">Toxicity Filter</text>
  <rect x="625" y="200" width="150" height="24" rx="6" fill="#f1f5f9" stroke="#22c55e" stroke-width="1"/>
  <text x="700" y="216" text-anchor="middle" fill="#22c55e" font-family="JetBrains Mono" font-size="10">Bias Detection</text>
  <rect x="625" y="230" width="150" height="24" rx="6" fill="#f1f5f9" stroke="#22c55e" stroke-width="1"/>
  <text x="700" y="246" text-anchor="middle" fill="#22c55e" font-family="JetBrains Mono" font-size="10">Format Validation</text>
  <line x1="790" y1="185" x2="828" y2="185" stroke="#22c55e" stroke-width="2" marker-end="url(#arwG)"/>
  <rect x="830" y="155" width="60" height="60" rx="10" fill="#f8fafc" stroke="#22c55e" stroke-width="2"/>
  <text x="860" y="185" text-anchor="middle" fill="#22c55e" font-family="Space Grotesk" font-size="12" font-weight="600">Safe</text>
  <text x="860" y="202" text-anchor="middle" fill="#475569" font-family="Nunito" font-size="9">Output</text>
  <path d="M 290 270 L 290 330 L 80 330 L 80 215" fill="none" stroke="#ef4444" stroke-width="2" stroke-dasharray="6,4" marker-end="url(#arwR)"/>
  <text x="185" y="348" text-anchor="middle" fill="#ef4444" font-family="JetBrains Mono" font-size="9">Blocked: return safe error message</text>
</svg>