<svg viewBox="0 0 900 360" width="900" height="360" xmlns="http://www.w3.org/2000/svg">
  <defs>
    <marker id="arw" markerWidth="10" markerHeight="7" refX="10" refY="3.5" orient="auto">
      <polygon points="0 0, 10 3.5, 0 7" fill="#06b6d4"/>
    </marker>
    <marker id="arwP" markerWidth="10" markerHeight="7" refX="10" refY="3.5" orient="auto">
      <polygon points="0 0, 10 3.5, 0 7" fill="#a855f7"/>
    </marker>
    <marker id="arwG" markerWidth="10" markerHeight="7" refX="10" refY="3.5" orient="auto">
      <polygon points="0 0, 10 3.5, 0 7" fill="#22c55e"/>
    </marker>
    <marker id="arwO" markerWidth="10" markerHeight="7" refX="10" refY="3.5" orient="auto">
      <polygon points="0 0, 10 3.5, 0 7" fill="#f59e0b"/>
    </marker>
    <marker id="arwR" markerWidth="10" markerHeight="7" refX="10" refY="3.5" orient="auto">
      <polygon points="0 0, 10 3.5, 0 7" fill="#ef4444"/>
    </marker>
    <marker id="arwB" markerWidth="10" markerHeight="7" refX="10" refY="3.5" orient="auto">
      <polygon points="0 0, 10 3.5, 0 7" fill="#3b82f6"/>
    </marker>
  </defs>
  <text x="450" y="25" text-anchor="middle" fill="#06b6d4" font-family="Space Grotesk" font-size="16" font-weight="700">Platform Selection Decision Tree</text>
  <polygon points="220,80 310,110 220,140 130,110" fill="#f8fafc" stroke="#f59e0b" stroke-width="2"/>
  <text x="220" y="112" text-anchor="middle" fill="#0f172a" font-family="JetBrains Mono" font-size="9">Data on-prem?</text>
  <line x1="310" y1="110" x2="380" y2="80" stroke="#22c55e" stroke-width="2" marker-end="url(#arwG)"/>
  <text x="345" y="85" text-anchor="middle" fill="#22c55e" font-family="JetBrains Mono" font-size="9">No</text>
  <polygon points="450,60 530,85 450,110 370,85" fill="#f8fafc" stroke="#f59e0b" stroke-width="2"/>
  <text x="450" y="87" text-anchor="middle" fill="#0f172a" font-family="JetBrains Mono" font-size="9">Multi-model?</text>
  <line x1="130" y1="110" x2="30" y2="200" stroke="#ef4444" stroke-width="2" marker-end="url(#arwR)"/>
  <text x="65" y="155" text-anchor="middle" fill="#ef4444" font-family="JetBrains Mono" font-size="9">Yes</text>
  <rect x="10" y="200" width="150" height="50" rx="8" fill="#f8fafc" stroke="#ef4444" stroke-width="2"/>
  <text x="85" y="222" text-anchor="middle" fill="#ef4444" font-family="Space Grotesk" font-size="12" font-weight="600">Self-hosted</text>
  <text x="85" y="240" text-anchor="middle" fill="#475569" font-family="Nunito" font-size="9">vLLM + Ollama</text>
  <line x1="530" y1="85" x2="610" y2="60" stroke="#22c55e" stroke-width="2" marker-end="url(#arwG)"/>
  <text x="570" y="62" text-anchor="middle" fill="#22c55e" font-family="JetBrains Mono" font-size="9">Yes</text>
  <rect x="610" y="40" width="160" height="50" rx="8" fill="#f8fafc" stroke="#06b6d4" stroke-width="2"/>
  <text x="690" y="62" text-anchor="middle" fill="#06b6d4" font-family="Space Grotesk" font-size="12" font-weight="600">Multi-cloud</text>
  <text x="690" y="80" text-anchor="middle" fill="#475569" font-family="Nunito" font-size="9">AI Gateway pattern</text>
  <line x1="450" y1="110" x2="450" y2="160" stroke="#ef4444" stroke-width="2" marker-end="url(#arwR)"/>
  <text x="462" y="140" text-anchor="middle" fill="#ef4444" font-family="JetBrains Mono" font-size="9">No</text>
  <polygon points="450,170 540,200 450,230 360,200" fill="#f8fafc" stroke="#f59e0b" stroke-width="2"/>
  <text x="450" y="198" text-anchor="middle" fill="#0f172a" font-family="JetBrains Mono" font-size="9">Existing cloud?</text>
  <line x1="540" y1="200" x2="640" y2="170" stroke="#f59e0b" stroke-width="2" marker-end="url(#arwO)"/>
  <text x="590" y="178" text-anchor="middle" fill="#475569" font-family="JetBrains Mono" font-size="9">AWS</text>
  <rect x="640" y="145" width="130" height="45" rx="8" fill="#f8fafc" stroke="#f59e0b" stroke-width="2"/>
  <text x="705" y="165" text-anchor="middle" fill="#f59e0b" font-family="Space Grotesk" font-size="12" font-weight="600">Bedrock</text>
  <line x1="540" y1="210" x2="640" y2="240" stroke="#22c55e" stroke-width="2" marker-end="url(#arwG)"/>
  <text x="590" y="235" text-anchor="middle" fill="#475569" font-family="JetBrains Mono" font-size="9">GCP</text>
  <rect x="640" y="215" width="130" height="45" rx="8" fill="#f8fafc" stroke="#22c55e" stroke-width="2"/>
  <text x="705" y="235" text-anchor="middle" fill="#22c55e" font-family="Space Grotesk" font-size="12" font-weight="600">Vertex AI</text>
  <line x1="450" y1="230" x2="450" y2="280" stroke="#3b82f6" stroke-width="2" marker-end="url(#arwB)"/>
  <text x="462" y="260" text-anchor="middle" fill="#3b82f6" font-family="JetBrains Mono" font-size="9">Azure</text>
  <rect x="385" y="280" width="130" height="45" rx="8" fill="#f8fafc" stroke="#3b82f6" stroke-width="2"/>
  <text x="450" y="300" text-anchor="middle" fill="#3b82f6" font-family="Space Grotesk" font-size="12" font-weight="600">Azure OpenAI</text>
</svg>