<svg viewBox="0 0 900 380" width="900" height="380" xmlns="http://www.w3.org/2000/svg">
  <defs>
    <marker id="arw" markerWidth="10" markerHeight="7" refX="10" refY="3.5" orient="auto">
      <polygon points="0 0, 10 3.5, 0 7" fill="#06b6d4"/>
    </marker>
    <marker id="arwP" markerWidth="10" markerHeight="7" refX="10" refY="3.5" orient="auto">
      <polygon points="0 0, 10 3.5, 0 7" fill="#a855f7"/>
    </marker>
    <marker id="arwG" markerWidth="10" markerHeight="7" refX="10" refY="3.5" orient="auto">
      <polygon points="0 0, 10 3.5, 0 7" fill="#22c55e"/>
    </marker>
    <marker id="arwO" markerWidth="10" markerHeight="7" refX="10" refY="3.5" orient="auto">
      <polygon points="0 0, 10 3.5, 0 7" fill="#f59e0b"/>
    </marker>
    <marker id="arwR" markerWidth="10" markerHeight="7" refX="10" refY="3.5" orient="auto">
      <polygon points="0 0, 10 3.5, 0 7" fill="#ef4444"/>
    </marker>
    <marker id="arwB" markerWidth="10" markerHeight="7" refX="10" refY="3.5" orient="auto">
      <polygon points="0 0, 10 3.5, 0 7" fill="#3b82f6"/>
    </marker>
  </defs>
  <text x="450" y="30" text-anchor="middle" fill="#06b6d4" font-family="Space Grotesk" font-size="16" font-weight="700">Multi-Cloud AI Gateway</text>
  <rect x="30" y="80" width="150" height="250" rx="12" fill="#f8fafc" stroke="#3b82f6" stroke-width="2"/>
  <text x="105" y="110" text-anchor="middle" fill="#3b82f6" font-family="Space Grotesk" font-size="13" font-weight="600">Enterprise</text>
  <text x="105" y="128" text-anchor="middle" fill="#3b82f6" font-family="Space Grotesk" font-size="13" font-weight="600">Applications</text>
  <rect x="45" y="145" width="120" height="30" rx="6" fill="#f1f5f9" stroke="#cbd5e1" stroke-width="1"/>
  <text x="105" y="164" text-anchor="middle" fill="#0f172a" font-family="JetBrains Mono" font-size="11">CRM</text>
  <rect x="45" y="187" width="120" height="30" rx="6" fill="#f1f5f9" stroke="#cbd5e1" stroke-width="1"/>
  <text x="105" y="206" text-anchor="middle" fill="#0f172a" font-family="JetBrains Mono" font-size="11">ERP</text>
  <rect x="45" y="229" width="120" height="30" rx="6" fill="#f1f5f9" stroke="#cbd5e1" stroke-width="1"/>
  <text x="105" y="248" text-anchor="middle" fill="#0f172a" font-family="JetBrains Mono" font-size="11">Analytics</text>
  <rect x="45" y="271" width="120" height="30" rx="6" fill="#f1f5f9" stroke="#cbd5e1" stroke-width="1"/>
  <text x="105" y="290" text-anchor="middle" fill="#0f172a" font-family="JetBrains Mono" font-size="11">Support</text>
  <rect x="260" y="80" width="200" height="250" rx="12" fill="#f8fafc" stroke="#06b6d4" stroke-width="2.5"/>
  <text x="360" y="110" text-anchor="middle" fill="#06b6d4" font-family="Space Grotesk" font-size="15" font-weight="600">AI Gateway</text>
  <rect x="280" y="125" width="160" height="30" rx="6" fill="#f1f5f9" stroke="#cbd5e1" stroke-width="1"/>
  <text x="360" y="144" text-anchor="middle" fill="#0f172a" font-family="JetBrains Mono" font-size="11">Unified API</text>
  <rect x="280" y="165" width="160" height="30" rx="6" fill="#f1f5f9" stroke="#cbd5e1" stroke-width="1"/>
  <text x="360" y="184" text-anchor="middle" fill="#0f172a" font-family="JetBrains Mono" font-size="11">Model Routing</text>
  <rect x="280" y="205" width="160" height="30" rx="6" fill="#f1f5f9" stroke="#cbd5e1" stroke-width="1"/>
  <text x="360" y="224" text-anchor="middle" fill="#0f172a" font-family="JetBrains Mono" font-size="11">Cost Control</text>
  <rect x="280" y="245" width="160" height="30" rx="6" fill="#f1f5f9" stroke="#cbd5e1" stroke-width="1"/>
  <text x="360" y="264" text-anchor="middle" fill="#0f172a" font-family="JetBrains Mono" font-size="11">Failover</text>
  <rect x="280" y="285" width="160" height="30" rx="6" fill="#f1f5f9" stroke="#cbd5e1" stroke-width="1"/>
  <text x="360" y="304" text-anchor="middle" fill="#0f172a" font-family="JetBrains Mono" font-size="11">Observability</text>
  <line x1="180" y1="205" x2="258" y2="205" stroke="#06b6d4" stroke-width="2" marker-end="url(#arw)"/>
  <rect x="560" y="80" width="170" height="65" rx="10" fill="#f8fafc" stroke="#f59e0b" stroke-width="2"/>
  <text x="645" y="105" text-anchor="middle" fill="#f59e0b" font-family="Space Grotesk" font-size="13" font-weight="600">AWS Bedrock</text>
  <text x="645" y="125" text-anchor="middle" fill="#475569" font-family="Nunito" font-size="10">Claude, Titan</text>
  <line x1="460" y1="205" x2="558" y2="112" stroke="#06b6d4" stroke-width="2" marker-end="url(#arw)"/>
  <rect x="560" y="170" width="170" height="65" rx="10" fill="#f8fafc" stroke="#22c55e" stroke-width="2"/>
  <text x="645" y="195" text-anchor="middle" fill="#22c55e" font-family="Space Grotesk" font-size="13" font-weight="600">Google Vertex</text>
  <text x="645" y="215" text-anchor="middle" fill="#475569" font-family="Nunito" font-size="10">Gemini, PaLM</text>
  <line x1="460" y1="205" x2="558" y2="202" stroke="#06b6d4" stroke-width="2" marker-end="url(#arw)"/>
  <rect x="560" y="260" width="170" height="65" rx="10" fill="#f8fafc" stroke="#3b82f6" stroke-width="2"/>
  <text x="645" y="285" text-anchor="middle" fill="#3b82f6" font-family="Space Grotesk" font-size="13" font-weight="600">Azure OpenAI</text>
  <text x="645" y="305" text-anchor="middle" fill="#475569" font-family="Nunito" font-size="10">GPT-4, DALL-E</text>
  <line x1="460" y1="205" x2="558" y2="292" stroke="#06b6d4" stroke-width="2" marker-end="url(#arw)"/>
  <rect x="780" y="150" width="100" height="65" rx="10" fill="#f8fafc" stroke="#a855f7" stroke-width="2"/>
  <text x="830" y="178" text-anchor="middle" fill="#a855f7" font-family="Space Grotesk" font-size="12" font-weight="600">On-prem</text>
  <text x="830" y="196" text-anchor="middle" fill="#475569" font-family="Nunito" font-size="9">Llama, Mistral</text>
  <line x1="730" y1="202" x2="778" y2="182" stroke="#a855f7" stroke-width="2" stroke-dasharray="6,4" marker-end="url(#arwP)"/>
</svg>