<svg viewBox="0 0 900 500" width="900" height="500" xmlns="http://www.w3.org/2000/svg">
  <defs>
    <marker id="arw" markerWidth="10" markerHeight="7" refX="10" refY="3.5" orient="auto">
      <polygon points="0 0, 10 3.5, 0 7" fill="#06b6d4"/>
    </marker>
    <marker id="arwP" markerWidth="10" markerHeight="7" refX="10" refY="3.5" orient="auto">
      <polygon points="0 0, 10 3.5, 0 7" fill="#a855f7"/>
    </marker>
    <marker id="arwG" markerWidth="10" markerHeight="7" refX="10" refY="3.5" orient="auto">
      <polygon points="0 0, 10 3.5, 0 7" fill="#22c55e"/>
    </marker>
    <marker id="arwO" markerWidth="10" markerHeight="7" refX="10" refY="3.5" orient="auto">
      <polygon points="0 0, 10 3.5, 0 7" fill="#f59e0b"/>
    </marker>
    <marker id="arwR" markerWidth="10" markerHeight="7" refX="10" refY="3.5" orient="auto">
      <polygon points="0 0, 10 3.5, 0 7" fill="#ef4444"/>
    </marker>
    <marker id="arwB" markerWidth="10" markerHeight="7" refX="10" refY="3.5" orient="auto">
      <polygon points="0 0, 10 3.5, 0 7" fill="#3b82f6"/>
    </marker>
  </defs>
  <text x="450" y="35" text-anchor="middle" fill="#06b6d4" font-family="Space Grotesk" font-size="16" font-weight="700">Portfolio Prioritization Matrix</text>
  <line x1="120" y1="60" x2="120" y2="440" stroke="#cbd5e1" stroke-width="2"/>
  <line x1="120" y1="440" x2="830" y2="440" stroke="#cbd5e1" stroke-width="2"/>
  <text x="460" y="465" text-anchor="middle" fill="#0f172a" font-family="JetBrains Mono" font-size="11">Business Value →</text>
  <text x="105" y="240" text-anchor="middle" fill="#0f172a" font-family="JetBrains Mono" font-size="11" transform="rotate(-90,105,240)">Implementation Effort →</text>
  <circle cx="662" cy="369" r="28" fill="#f0fdf4" stroke="#22c55e" stroke-width="2"/>
  <text x="662" y="373" text-anchor="middle" fill="#0f172a" font-family="JetBrains Mono" font-size="9">Quick Win</text>
  <circle cx="694" cy="148" r="28" fill="#eff6ff" stroke="#3b82f6" stroke-width="2"/>
  <text x="694" y="152" text-anchor="middle" fill="#0f172a" font-family="JetBrains Mono" font-size="9">Strategic</text>
  <circle cx="246" cy="369" r="28" fill="#f8fafc" stroke="#cbd5e1" stroke-width="2"/>
  <text x="246" y="373" text-anchor="middle" fill="#0f172a" font-family="JetBrains Mono" font-size="9">Low Prio</text>
  <circle cx="246" cy="131" r="28" fill="#fef2f2" stroke="#ef4444" stroke-width="2"/>
  <text x="246" y="135" text-anchor="middle" fill="#0f172a" font-family="JetBrains Mono" font-size="9">Avoid</text>
</svg>