<svg viewBox="0 0 900 380" width="900" height="380" xmlns="http://www.w3.org/2000/svg">
  <defs>
    <marker id="arw" markerWidth="10" markerHeight="7" refX="10" refY="3.5" orient="auto">
      <polygon points="0 0, 10 3.5, 0 7" fill="#06b6d4"/>
    </marker>
    <marker id="arwP" markerWidth="10" markerHeight="7" refX="10" refY="3.5" orient="auto">
      <polygon points="0 0, 10 3.5, 0 7" fill="#a855f7"/>
    </marker>
    <marker id="arwG" markerWidth="10" markerHeight="7" refX="10" refY="3.5" orient="auto">
      <polygon points="0 0, 10 3.5, 0 7" fill="#22c55e"/>
    </marker>
    <marker id="arwO" markerWidth="10" markerHeight="7" refX="10" refY="3.5" orient="auto">
      <polygon points="0 0, 10 3.5, 0 7" fill="#f59e0b"/>
    </marker>
    <marker id="arwR" markerWidth="10" markerHeight="7" refX="10" refY="3.5" orient="auto">
      <polygon points="0 0, 10 3.5, 0 7" fill="#ef4444"/>
    </marker>
    <marker id="arwB" markerWidth="10" markerHeight="7" refX="10" refY="3.5" orient="auto">
      <polygon points="0 0, 10 3.5, 0 7" fill="#3b82f6"/>
    </marker>
  </defs>
  <text x="450" y="30" text-anchor="middle" fill="#06b6d4" font-family="Space Grotesk" font-size="16" font-weight="700">AI Sidecar Pattern</text>
  <rect x="40" y="70" width="380" height="270" rx="12" fill="#f8fafc" stroke="#3b82f6" stroke-width="2"/>
  <text x="230" y="100" text-anchor="middle" fill="#3b82f6" font-family="Space Grotesk" font-size="15" font-weight="600">Existing System</text>
  <rect x="60" y="120" width="340" height="50" rx="10" fill="#f1f5f9" stroke="#cbd5e1" stroke-width="2"/>
  <text x="230" y="145" text-anchor="middle" fill="#0f172a" font-family="Space Grotesk" font-size="12" font-weight="600">Business Logic (unchanged)</text>
  <rect x="60" y="185" width="340" height="50" rx="10" fill="#f1f5f9" stroke="#cbd5e1" stroke-width="2"/>
  <text x="230" y="210" text-anchor="middle" fill="#0f172a" font-family="Space Grotesk" font-size="12" font-weight="600">Database + APIs (unchanged)</text>
  <rect x="60" y="250" width="340" height="70" rx="10" fill="#f1f5f9" stroke="#cbd5e1" stroke-width="2"/>
  <text x="230" y="278" text-anchor="middle" fill="#0f172a" font-family="Space Grotesk" font-size="12" font-weight="600">UI (unchanged)</text>
  <text x="230" y="298" text-anchor="middle" fill="#475569" font-family="Nunito" font-size="10">Zero modifications to existing code</text>
  <rect x="500" y="70" width="360" height="270" rx="12" fill="#f8fafc" stroke="#a855f7" stroke-width="2"/>
  <text x="680" y="100" text-anchor="middle" fill="#a855f7" font-family="Space Grotesk" font-size="15" font-weight="600">AI Sidecar (Read-Only)</text>
  <rect x="520" y="120" width="320" height="50" rx="10" fill="#f1f5f9" stroke="#a855f7" stroke-width="2"/>
  <text x="680" y="148" text-anchor="middle" fill="#a855f7" font-family="JetBrains Mono" font-size="11">Observes system events</text>
  <rect x="520" y="185" width="320" height="50" rx="10" fill="#f1f5f9" stroke="#a855f7" stroke-width="2"/>
  <text x="680" y="213" text-anchor="middle" fill="#a855f7" font-family="JetBrains Mono" font-size="11">Generates insights / suggestions</text>
  <rect x="520" y="250" width="320" height="70" rx="10" fill="#f1f5f9" stroke="#a855f7" stroke-width="2"/>
  <text x="680" y="278" text-anchor="middle" fill="#a855f7" font-family="JetBrains Mono" font-size="11">Dashboard / Alerts</text>
  <text x="680" y="298" text-anchor="middle" fill="#475569" font-family="Nunito" font-size="10">No write access to main system</text>
  <line x1="420" y1="200" x2="498" y2="200" stroke="#a855f7" stroke-width="2" stroke-dasharray="6,4" marker-end="url(#arwP)"/>
  <text x="460" y="190" text-anchor="middle" fill="#a855f7" font-family="JetBrains Mono" font-size="9">read</text>
</svg>