<svg viewBox="0 0 900 500" width="900" height="500" xmlns="http://www.w3.org/2000/svg">
  <defs>
    <marker id="arw" markerWidth="10" markerHeight="7" refX="10" refY="3.5" orient="auto">
      <polygon points="0 0, 10 3.5, 0 7" fill="#06b6d4"/>
    </marker>
    <marker id="arwP" markerWidth="10" markerHeight="7" refX="10" refY="3.5" orient="auto">
      <polygon points="0 0, 10 3.5, 0 7" fill="#a855f7"/>
    </marker>
    <marker id="arwG" markerWidth="10" markerHeight="7" refX="10" refY="3.5" orient="auto">
      <polygon points="0 0, 10 3.5, 0 7" fill="#22c55e"/>
    </marker>
    <marker id="arwO" markerWidth="10" markerHeight="7" refX="10" refY="3.5" orient="auto">
      <polygon points="0 0, 10 3.5, 0 7" fill="#f59e0b"/>
    </marker>
    <marker id="arwR" markerWidth="10" markerHeight="7" refX="10" refY="3.5" orient="auto">
      <polygon points="0 0, 10 3.5, 0 7" fill="#ef4444"/>
    </marker>
    <marker id="arwB" markerWidth="10" markerHeight="7" refX="10" refY="3.5" orient="auto">
      <polygon points="0 0, 10 3.5, 0 7" fill="#3b82f6"/>
    </marker>
  </defs>
  <text x="450" y="35" text-anchor="middle" fill="#06b6d4" font-family="Space Grotesk" font-size="16" font-weight="700">Migration Risk-Value Matrix</text>
  <line x1="120" y1="60" x2="120" y2="440" stroke="#cbd5e1" stroke-width="2"/>
  <line x1="120" y1="440" x2="830" y2="440" stroke="#cbd5e1" stroke-width="2"/>
  <text x="460" y="465" text-anchor="middle" fill="#0f172a" font-family="JetBrains Mono" font-size="11">Implementation Time →</text>
  <text x="105" y="240" text-anchor="middle" fill="#0f172a" font-family="JetBrains Mono" font-size="11" transform="rotate(-90,105,240)">Business Impact →</text>
  <circle cx="246" cy="301" r="28" fill="#f0fdf4" stroke="#22c55e" stroke-width="2"/>
  <text x="246" y="305" text-anchor="middle" fill="#0f172a" font-family="JetBrains Mono" font-size="9">Sidecar</text>
  <circle cx="438" cy="216" r="28" fill="#fffbeb" stroke="#f59e0b" stroke-width="2"/>
  <text x="438" y="220" text-anchor="middle" fill="#0f172a" font-family="JetBrains Mono" font-size="9">Augment</text>
  <circle cx="694" cy="114" r="28" fill="#fef2f2" stroke="#ef4444" stroke-width="2"/>
  <text x="694" y="118" text-anchor="middle" fill="#0f172a" font-family="JetBrains Mono" font-size="9">Rebuild</text>
</svg>