<svg viewBox="0 0 900 420" width="900" height="420" xmlns="http://www.w3.org/2000/svg">
  <defs>
    <marker id="arw" markerWidth="10" markerHeight="7" refX="10" refY="3.5" orient="auto">
      <polygon points="0 0, 10 3.5, 0 7" fill="#06b6d4"/>
    </marker>
    <marker id="arwP" markerWidth="10" markerHeight="7" refX="10" refY="3.5" orient="auto">
      <polygon points="0 0, 10 3.5, 0 7" fill="#a855f7"/>
    </marker>
    <marker id="arwG" markerWidth="10" markerHeight="7" refX="10" refY="3.5" orient="auto">
      <polygon points="0 0, 10 3.5, 0 7" fill="#22c55e"/>
    </marker>
    <marker id="arwO" markerWidth="10" markerHeight="7" refX="10" refY="3.5" orient="auto">
      <polygon points="0 0, 10 3.5, 0 7" fill="#f59e0b"/>
    </marker>
    <marker id="arwR" markerWidth="10" markerHeight="7" refX="10" refY="3.5" orient="auto">
      <polygon points="0 0, 10 3.5, 0 7" fill="#ef4444"/>
    </marker>
    <marker id="arwB" markerWidth="10" markerHeight="7" refX="10" refY="3.5" orient="auto">
      <polygon points="0 0, 10 3.5, 0 7" fill="#3b82f6"/>
    </marker>
  </defs>
  <text x="450" y="35" text-anchor="middle" fill="#06b6d4" font-family="Space Grotesk" font-size="16" font-weight="700">Production GenAI Platform</text>
  <rect x="100" y="128" width="700" height="50" rx="8" fill="#f8fafc" stroke="#06b6d4" stroke-width="2"/>
  <text x="450" y="149" text-anchor="middle" fill="#06b6d4" font-family="Space Grotesk" font-size="14" font-weight="600">AI Gateway</text>
  <text x="450" y="167" text-anchor="middle" fill="#475569" font-family="Nunito" font-size="10">Routing · Auth · Rate Limiting · PII Redaction · Cost Tracking</text>
  <rect x="100" y="186" width="700" height="50" rx="8" fill="#f8fafc" stroke="#a855f7" stroke-width="2"/>
  <text x="450" y="207" text-anchor="middle" fill="#a855f7" font-family="Space Grotesk" font-size="14" font-weight="600">Capabilities Layer</text>
  <text x="450" y="225" text-anchor="middle" fill="#475569" font-family="Nunito" font-size="10">Chat · RAG · Agents · Document Processing · Fine-tuned Models</text>
  <rect x="100" y="244" width="700" height="50" rx="8" fill="#f8fafc" stroke="#3b82f6" stroke-width="2"/>
  <text x="450" y="265" text-anchor="middle" fill="#3b82f6" font-family="Space Grotesk" font-size="14" font-weight="600">Shared Services</text>
  <text x="450" y="283" text-anchor="middle" fill="#475569" font-family="Nunito" font-size="10">Vector Store · Eval Framework · Guardrails · Prompt Registry · Observability</text>
  <rect x="100" y="302" width="700" height="50" rx="8" fill="#f8fafc" stroke="#f59e0b" stroke-width="2"/>
  <text x="450" y="323" text-anchor="middle" fill="#f59e0b" font-family="Space Grotesk" font-size="14" font-weight="600">Foundation Layer</text>
  <text x="450" y="341" text-anchor="middle" fill="#475569" font-family="Nunito" font-size="10">Model Providers · GPU Infra · Data Platform · Security · IAM</text>
</svg>