<svg viewBox="0 0 900 420" width="900" height="420" xmlns="http://www.w3.org/2000/svg">
  <defs>
    <marker id="arw" markerWidth="10" markerHeight="7" refX="10" refY="3.5" orient="auto">
      <polygon points="0 0, 10 3.5, 0 7" fill="#06b6d4"/>
    </marker>
    <marker id="arwP" markerWidth="10" markerHeight="7" refX="10" refY="3.5" orient="auto">
      <polygon points="0 0, 10 3.5, 0 7" fill="#a855f7"/>
    </marker>
    <marker id="arwG" markerWidth="10" markerHeight="7" refX="10" refY="3.5" orient="auto">
      <polygon points="0 0, 10 3.5, 0 7" fill="#22c55e"/>
    </marker>
    <marker id="arwO" markerWidth="10" markerHeight="7" refX="10" refY="3.5" orient="auto">
      <polygon points="0 0, 10 3.5, 0 7" fill="#f59e0b"/>
    </marker>
    <marker id="arwR" markerWidth="10" markerHeight="7" refX="10" refY="3.5" orient="auto">
      <polygon points="0 0, 10 3.5, 0 7" fill="#ef4444"/>
    </marker>
    <marker id="arwB" markerWidth="10" markerHeight="7" refX="10" refY="3.5" orient="auto">
      <polygon points="0 0, 10 3.5, 0 7" fill="#3b82f6"/>
    </marker>
  </defs>
  <text x="450" y="30" text-anchor="middle" fill="#06b6d4" font-family="Space Grotesk" font-size="16" font-weight="700">Multi-Agent Orchestration</text>
  <rect x="320" y="60" width="260" height="70" rx="12" fill="#f8fafc" stroke="#06b6d4" stroke-width="2.5"/>
  <text x="450" y="88" text-anchor="middle" fill="#06b6d4" font-family="Space Grotesk" font-size="14" font-weight="600">Orchestrator Agent</text>
  <text x="450" y="108" text-anchor="middle" fill="#475569" font-family="Nunito" font-size="10">Plans, delegates, synthesizes</text>
  <rect x="50" y="190" width="150" height="70" rx="10" fill="#f8fafc" stroke="#3b82f6" stroke-width="2"/>
  <text x="125" y="218" text-anchor="middle" fill="#3b82f6" font-family="Space Grotesk" font-size="13" font-weight="600">Research</text>
  <text x="125" y="240" text-anchor="middle" fill="#475569" font-family="Nunito" font-size="9">Web search + RAG</text>
  <line x1="450" y1="130" x2="125" y2="188" stroke="#3b82f6" stroke-width="2" marker-end="url(#arw)"/>
  <rect x="250" y="190" width="150" height="70" rx="10" fill="#f8fafc" stroke="#a855f7" stroke-width="2"/>
  <text x="325" y="218" text-anchor="middle" fill="#a855f7" font-family="Space Grotesk" font-size="13" font-weight="600">Analysis</text>
  <text x="325" y="240" text-anchor="middle" fill="#475569" font-family="Nunito" font-size="9">Data processing</text>
  <line x1="450" y1="130" x2="325" y2="188" stroke="#a855f7" stroke-width="2" marker-end="url(#arw)"/>
  <rect x="450" y="190" width="150" height="70" rx="10" fill="#f8fafc" stroke="#22c55e" stroke-width="2"/>
  <text x="525" y="218" text-anchor="middle" fill="#22c55e" font-family="Space Grotesk" font-size="13" font-weight="600">Writing</text>
  <text x="525" y="240" text-anchor="middle" fill="#475569" font-family="Nunito" font-size="9">Content generation</text>
  <line x1="450" y1="130" x2="525" y2="188" stroke="#22c55e" stroke-width="2" marker-end="url(#arw)"/>
  <rect x="650" y="190" width="150" height="70" rx="10" fill="#f8fafc" stroke="#f59e0b" stroke-width="2"/>
  <text x="725" y="218" text-anchor="middle" fill="#f59e0b" font-family="Space Grotesk" font-size="13" font-weight="600">Review</text>
  <text x="725" y="240" text-anchor="middle" fill="#475569" font-family="Nunito" font-size="9">Quality + fact check</text>
  <line x1="450" y1="130" x2="725" y2="188" stroke="#f59e0b" stroke-width="2" marker-end="url(#arw)"/>
  <rect x="320" y="320" width="260" height="60" rx="10" fill="#f8fafc" stroke="#a855f7" stroke-width="2"/>
  <text x="450" y="345" text-anchor="middle" fill="#a855f7" font-family="Space Grotesk" font-size="13" font-weight="600">Result Merger</text>
  <text x="450" y="363" text-anchor="middle" fill="#475569" font-family="Nunito" font-size="10">Combine + format final output</text>
  <line x1="125" y1="260" x2="450" y2="318" stroke="#3b82f6" stroke-width="2" stroke-dasharray="6,4" marker-end="url(#arw)"/>
  <line x1="325" y1="260" x2="450" y2="318" stroke="#a855f7" stroke-width="2" stroke-dasharray="6,4" marker-end="url(#arw)"/>
  <line x1="525" y1="260" x2="450" y2="318" stroke="#22c55e" stroke-width="2" stroke-dasharray="6,4" marker-end="url(#arw)"/>
  <line x1="725" y1="260" x2="450" y2="318" stroke="#f59e0b" stroke-width="2" stroke-dasharray="6,4" marker-end="url(#arw)"/>
</svg>