<svg viewBox="0 0 900 340" width="900" height="340" xmlns="http://www.w3.org/2000/svg">
  <defs>
    <marker id="arw" markerWidth="10" markerHeight="7" refX="10" refY="3.5" orient="auto">
      <polygon points="0 0, 10 3.5, 0 7" fill="#06b6d4"/>
    </marker>
    <marker id="arwP" markerWidth="10" markerHeight="7" refX="10" refY="3.5" orient="auto">
      <polygon points="0 0, 10 3.5, 0 7" fill="#a855f7"/>
    </marker>
    <marker id="arwG" markerWidth="10" markerHeight="7" refX="10" refY="3.5" orient="auto">
      <polygon points="0 0, 10 3.5, 0 7" fill="#22c55e"/>
    </marker>
    <marker id="arwO" markerWidth="10" markerHeight="7" refX="10" refY="3.5" orient="auto">
      <polygon points="0 0, 10 3.5, 0 7" fill="#f59e0b"/>
    </marker>
    <marker id="arwR" markerWidth="10" markerHeight="7" refX="10" refY="3.5" orient="auto">
      <polygon points="0 0, 10 3.5, 0 7" fill="#ef4444"/>
    </marker>
    <marker id="arwB" markerWidth="10" markerHeight="7" refX="10" refY="3.5" orient="auto">
      <polygon points="0 0, 10 3.5, 0 7" fill="#3b82f6"/>
    </marker>
  </defs>
  <text x="450" y="30" text-anchor="middle" fill="#06b6d4" font-family="Space Grotesk" font-size="16" font-weight="700">Parallel Fan-Out Pattern</text>
  <rect x="30" y="140" width="140" height="70" rx="10" fill="#f8fafc" stroke="#06b6d4" stroke-width="2"/>
  <text x="100" y="168" text-anchor="middle" fill="#06b6d4" font-family="Space Grotesk" font-size="14" font-weight="600">Planner</text>
  <text x="100" y="188" text-anchor="middle" fill="#475569" font-family="Nunito" font-size="10">Decompose task</text>
  <rect x="280" y="60" width="140" height="60" rx="10" fill="#f8fafc" stroke="#3b82f6" stroke-width="2"/>
  <text x="350" y="85" text-anchor="middle" fill="#3b82f6" font-family="Space Grotesk" font-size="12" font-weight="600">Agent A</text>
  <text x="350" y="103" text-anchor="middle" fill="#475569" font-family="Nunito" font-size="9">Sub-task 1</text>
  <line x1="170" y1="175" x2="278" y2="90" stroke="#3b82f6" stroke-width="2" marker-end="url(#arw)"/>
  <line x1="420" y1="90" x2="518" y2="175" stroke="#3b82f6" stroke-width="2" marker-end="url(#arw)"/>
  <rect x="280" y="145" width="140" height="60" rx="10" fill="#f8fafc" stroke="#a855f7" stroke-width="2"/>
  <text x="350" y="170" text-anchor="middle" fill="#a855f7" font-family="Space Grotesk" font-size="12" font-weight="600">Agent B</text>
  <text x="350" y="188" text-anchor="middle" fill="#475569" font-family="Nunito" font-size="9">Sub-task 2</text>
  <line x1="170" y1="175" x2="278" y2="175" stroke="#a855f7" stroke-width="2" marker-end="url(#arw)"/>
  <line x1="420" y1="175" x2="518" y2="175" stroke="#a855f7" stroke-width="2" marker-end="url(#arw)"/>
  <rect x="280" y="230" width="140" height="60" rx="10" fill="#f8fafc" stroke="#22c55e" stroke-width="2"/>
  <text x="350" y="255" text-anchor="middle" fill="#22c55e" font-family="Space Grotesk" font-size="12" font-weight="600">Agent C</text>
  <text x="350" y="273" text-anchor="middle" fill="#475569" font-family="Nunito" font-size="9">Sub-task 3</text>
  <line x1="170" y1="175" x2="278" y2="260" stroke="#22c55e" stroke-width="2" marker-end="url(#arw)"/>
  <line x1="420" y1="260" x2="518" y2="175" stroke="#22c55e" stroke-width="2" marker-end="url(#arw)"/>
  <text x="210" y="120" text-anchor="middle" fill="#06b6d4" font-family="JetBrains Mono" font-size="9">fan-out</text>
  <text x="475" y="120" text-anchor="middle" fill="#a855f7" font-family="JetBrains Mono" font-size="9">fan-in</text>
  <rect x="520" y="140" width="140" height="70" rx="10" fill="#f8fafc" stroke="#a855f7" stroke-width="2"/>
  <text x="590" y="168" text-anchor="middle" fill="#a855f7" font-family="Space Grotesk" font-size="14" font-weight="600">Merger</text>
  <text x="590" y="188" text-anchor="middle" fill="#475569" font-family="Nunito" font-size="10">Combine results</text>
  <line x1="660" y1="175" x2="730" y2="175" stroke="#06b6d4" stroke-width="2" marker-end="url(#arw)"/>
  <rect x="730" y="145" width="120" height="60" rx="10" fill="#f8fafc" stroke="#22c55e" stroke-width="2"/>
  <text x="790" y="170" text-anchor="middle" fill="#22c55e" font-family="Space Grotesk" font-size="13" font-weight="600">Result</text>
  <text x="790" y="188" text-anchor="middle" fill="#475569" font-family="Nunito" font-size="9">Final output</text>
</svg>