<svg viewBox="0 0 900 400" width="900" height="400" xmlns="http://www.w3.org/2000/svg">
  <defs>
    <marker id="arw" markerWidth="10" markerHeight="7" refX="10" refY="3.5" orient="auto">
      <polygon points="0 0, 10 3.5, 0 7" fill="#06b6d4"/>
    </marker>
    <marker id="arwP" markerWidth="10" markerHeight="7" refX="10" refY="3.5" orient="auto">
      <polygon points="0 0, 10 3.5, 0 7" fill="#a855f7"/>
    </marker>
    <marker id="arwG" markerWidth="10" markerHeight="7" refX="10" refY="3.5" orient="auto">
      <polygon points="0 0, 10 3.5, 0 7" fill="#22c55e"/>
    </marker>
    <marker id="arwO" markerWidth="10" markerHeight="7" refX="10" refY="3.5" orient="auto">
      <polygon points="0 0, 10 3.5, 0 7" fill="#f59e0b"/>
    </marker>
    <marker id="arwR" markerWidth="10" markerHeight="7" refX="10" refY="3.5" orient="auto">
      <polygon points="0 0, 10 3.5, 0 7" fill="#ef4444"/>
    </marker>
    <marker id="arwB" markerWidth="10" markerHeight="7" refX="10" refY="3.5" orient="auto">
      <polygon points="0 0, 10 3.5, 0 7" fill="#3b82f6"/>
    </marker>
  </defs>
  <text x="450" y="30" text-anchor="middle" fill="#06b6d4" font-family="Space Grotesk" font-size="16" font-weight="700">Model Tiering Strategy</text>
  <rect x="100" y="65" width="700" height="65" rx="10" fill="#f8fafc" stroke="#22c55e" stroke-width="2"/>
  <text x="450" y="90" text-anchor="middle" fill="#22c55e" font-family="Space Grotesk" font-size="14" font-weight="600">Fast Tier (70%)</text>
  <text x="450" y="110" text-anchor="middle" fill="#475569" font-family="Nunito" font-size="11">Simple queries · FAQ · Classification</text>
  <text x="740" y="115" text-anchor="middle" fill="#22c55e" font-family="JetBrains Mono" font-size="10">$0.25/1K</text>
  <rect x="175" y="150" width="550" height="65" rx="10" fill="#f8fafc" stroke="#3b82f6" stroke-width="2"/>
  <text x="450" y="175" text-anchor="middle" fill="#3b82f6" font-family="Space Grotesk" font-size="14" font-weight="600">Standard Tier (25%)</text>
  <text x="450" y="195" text-anchor="middle" fill="#475569" font-family="Nunito" font-size="11">Summarization · Analysis · Drafting</text>
  <text x="665" y="200" text-anchor="middle" fill="#3b82f6" font-family="JetBrains Mono" font-size="10">$3/1K</text>
  <rect x="250" y="235" width="400" height="65" rx="10" fill="#f8fafc" stroke="#a855f7" stroke-width="2"/>
  <text x="450" y="260" text-anchor="middle" fill="#a855f7" font-family="Space Grotesk" font-size="14" font-weight="600">Advanced Tier (5%)</text>
  <text x="450" y="280" text-anchor="middle" fill="#475569" font-family="Nunito" font-size="11">Complex reasoning · Coding · Research</text>
  <text x="590" y="285" text-anchor="middle" fill="#a855f7" font-family="JetBrains Mono" font-size="10">$15/1K</text>
  <rect x="250" y="320" width="400" height="50" rx="10" fill="#f8fafc" stroke="#22c55e" stroke-width="2"/>
  <text x="450" y="342" text-anchor="middle" fill="#22c55e" font-family="Space Grotesk" font-size="14" font-weight="600">Estimated 60-80% cost savings</text>
  <text x="450" y="360" text-anchor="middle" fill="#475569" font-family="Nunito" font-size="10">vs routing everything to the most capable model</text>
</svg>