<svg viewBox="0 0 900 420" width="900" height="420" xmlns="http://www.w3.org/2000/svg">
  <defs>
    <marker id="arw" markerWidth="10" markerHeight="7" refX="10" refY="3.5" orient="auto">
      <polygon points="0 0, 10 3.5, 0 7" fill="#06b6d4"/>
    </marker>
    <marker id="arwP" markerWidth="10" markerHeight="7" refX="10" refY="3.5" orient="auto">
      <polygon points="0 0, 10 3.5, 0 7" fill="#a855f7"/>
    </marker>
    <marker id="arwG" markerWidth="10" markerHeight="7" refX="10" refY="3.5" orient="auto">
      <polygon points="0 0, 10 3.5, 0 7" fill="#22c55e"/>
    </marker>
    <marker id="arwO" markerWidth="10" markerHeight="7" refX="10" refY="3.5" orient="auto">
      <polygon points="0 0, 10 3.5, 0 7" fill="#f59e0b"/>
    </marker>
    <marker id="arwR" markerWidth="10" markerHeight="7" refX="10" refY="3.5" orient="auto">
      <polygon points="0 0, 10 3.5, 0 7" fill="#ef4444"/>
    </marker>
    <marker id="arwB" markerWidth="10" markerHeight="7" refX="10" refY="3.5" orient="auto">
      <polygon points="0 0, 10 3.5, 0 7" fill="#3b82f6"/>
    </marker>
  </defs>
  <text x="450" y="30" text-anchor="middle" fill="#06b6d4" font-family="Space Grotesk" font-size="16" font-weight="700">Expanded EA Role with AI</text>
  <rect x="30" y="55" width="420" height="140" rx="12" fill="#f8fafc" stroke="#3b82f6" stroke-width="2"/>
  <text x="240" y="80" text-anchor="middle" fill="#3b82f6" font-family="Space Grotesk" font-size="13" font-weight="600">Traditional Responsibilities</text>
  <rect x="50" y="95" width="120" height="28" rx="6" fill="#f1f5f9" stroke="#cbd5e1" stroke-width="1"/>
  <text x="110" y="113" text-anchor="middle" fill="#3b82f6" font-family="JetBrains Mono" font-size="11">Solution Design</text>
  <rect x="180" y="95" width="120" height="28" rx="6" fill="#f1f5f9" stroke="#cbd5e1" stroke-width="1"/>
  <text x="240" y="113" text-anchor="middle" fill="#3b82f6" font-family="JetBrains Mono" font-size="11">Tech Selection</text>
  <rect x="310" y="95" width="120" height="28" rx="6" fill="#f1f5f9" stroke="#cbd5e1" stroke-width="1"/>
  <text x="370" y="113" text-anchor="middle" fill="#3b82f6" font-family="JetBrains Mono" font-size="11">Governance</text>
  <rect x="50" y="130" width="120" height="28" rx="6" fill="#f1f5f9" stroke="#cbd5e1" stroke-width="1"/>
  <text x="110" y="148" text-anchor="middle" fill="#3b82f6" font-family="JetBrains Mono" font-size="11">Integration</text>
  <rect x="180" y="130" width="120" height="28" rx="6" fill="#f1f5f9" stroke="#cbd5e1" stroke-width="1"/>
  <text x="240" y="148" text-anchor="middle" fill="#3b82f6" font-family="JetBrains Mono" font-size="11">Security</text>
  <rect x="310" y="130" width="120" height="28" rx="6" fill="#f1f5f9" stroke="#cbd5e1" stroke-width="1"/>
  <text x="370" y="148" text-anchor="middle" fill="#3b82f6" font-family="JetBrains Mono" font-size="11">Roadmapping</text>
  <rect x="30" y="215" width="840" height="170" rx="12" fill="#f8fafc" stroke="#a855f7" stroke-width="2"/>
  <text x="450" y="240" text-anchor="middle" fill="#a855f7" font-family="Space Grotesk" font-size="14" font-weight="600">New AI Responsibilities</text>
  <rect x="50" y="260" width="190" height="32" rx="6" fill="#f1f5f9" stroke="#a855f7" stroke-width="1"/>
  <text x="145" y="280" text-anchor="middle" fill="#a855f7" font-family="JetBrains Mono" font-size="11">AI Strategy</text>
  <rect x="255" y="260" width="190" height="32" rx="6" fill="#f1f5f9" stroke="#a855f7" stroke-width="1"/>
  <text x="350" y="280" text-anchor="middle" fill="#a855f7" font-family="JetBrains Mono" font-size="11">Model Governance</text>
  <rect x="460" y="260" width="190" height="32" rx="6" fill="#f1f5f9" stroke="#a855f7" stroke-width="1"/>
  <text x="555" y="280" text-anchor="middle" fill="#a855f7" font-family="JetBrains Mono" font-size="11">MLOps Design</text>
  <rect x="665" y="260" width="190" height="32" rx="6" fill="#f1f5f9" stroke="#a855f7" stroke-width="1"/>
  <text x="760" y="280" text-anchor="middle" fill="#a855f7" font-family="JetBrains Mono" font-size="11">AI Ethics</text>
  <rect x="50" y="302" width="190" height="32" rx="6" fill="#f1f5f9" stroke="#a855f7" stroke-width="1"/>
  <text x="145" y="322" text-anchor="middle" fill="#a855f7" font-family="JetBrains Mono" font-size="11">Prompt Engineering Standards</text>
  <rect x="255" y="302" width="190" height="32" rx="6" fill="#f1f5f9" stroke="#a855f7" stroke-width="1"/>
  <text x="350" y="322" text-anchor="middle" fill="#a855f7" font-family="JetBrains Mono" font-size="11">AI Cost Management</text>
  <rect x="460" y="302" width="190" height="32" rx="6" fill="#f1f5f9" stroke="#a855f7" stroke-width="1"/>
  <text x="555" y="322" text-anchor="middle" fill="#a855f7" font-family="JetBrains Mono" font-size="11">Vendor Assessment</text>
  <rect x="665" y="302" width="190" height="32" rx="6" fill="#f1f5f9" stroke="#a855f7" stroke-width="1"/>
  <text x="760" y="322" text-anchor="middle" fill="#a855f7" font-family="JetBrains Mono" font-size="11">AI Risk Management</text>
  <text x="470" y="200" text-anchor="middle" fill="#06b6d4" font-family="Space Grotesk" font-size="24" font-weight="700">+</text>
</svg>