<svg viewBox="0 0 900 320" width="900" height="320" xmlns="http://www.w3.org/2000/svg">
  <defs>
    <marker id="arw" markerWidth="10" markerHeight="7" refX="10" refY="3.5" orient="auto">
      <polygon points="0 0, 10 3.5, 0 7" fill="#06b6d4"/>
    </marker>
    <marker id="arwP" markerWidth="10" markerHeight="7" refX="10" refY="3.5" orient="auto">
      <polygon points="0 0, 10 3.5, 0 7" fill="#a855f7"/>
    </marker>
    <marker id="arwG" markerWidth="10" markerHeight="7" refX="10" refY="3.5" orient="auto">
      <polygon points="0 0, 10 3.5, 0 7" fill="#22c55e"/>
    </marker>
    <marker id="arwO" markerWidth="10" markerHeight="7" refX="10" refY="3.5" orient="auto">
      <polygon points="0 0, 10 3.5, 0 7" fill="#f59e0b"/>
    </marker>
    <marker id="arwR" markerWidth="10" markerHeight="7" refX="10" refY="3.5" orient="auto">
      <polygon points="0 0, 10 3.5, 0 7" fill="#ef4444"/>
    </marker>
    <marker id="arwB" markerWidth="10" markerHeight="7" refX="10" refY="3.5" orient="auto">
      <polygon points="0 0, 10 3.5, 0 7" fill="#3b82f6"/>
    </marker>
  </defs>
  <text x="450" y="30" text-anchor="middle" fill="#06b6d4" font-family="Space Grotesk" font-size="16" font-weight="700">Traditional Enterprise Architect Role</text>
  <rect x="60" y="65" width="240" height="80" rx="10" fill="#f8fafc" stroke="#3b82f6" stroke-width="2"/>
  <text x="180" y="95" text-anchor="middle" fill="#3b82f6" font-family="Space Grotesk" font-size="14" font-weight="600">Solution Design</text>
  <text x="180" y="117" text-anchor="middle" fill="#475569" font-family="Nunito" font-size="11">Architecture patterns</text>
  <rect x="330" y="65" width="240" height="80" rx="10" fill="#f8fafc" stroke="#a855f7" stroke-width="2"/>
  <text x="450" y="95" text-anchor="middle" fill="#a855f7" font-family="Space Grotesk" font-size="14" font-weight="600">Technology Selection</text>
  <text x="450" y="117" text-anchor="middle" fill="#475569" font-family="Nunito" font-size="11">Vendor evaluation</text>
  <rect x="600" y="65" width="240" height="80" rx="10" fill="#f8fafc" stroke="#ef4444" stroke-width="2"/>
  <text x="720" y="95" text-anchor="middle" fill="#ef4444" font-family="Space Grotesk" font-size="14" font-weight="600">Governance</text>
  <text x="720" y="117" text-anchor="middle" fill="#475569" font-family="Nunito" font-size="11">Standards + policies</text>
  <rect x="60" y="165" width="240" height="80" rx="10" fill="#f8fafc" stroke="#06b6d4" stroke-width="2"/>
  <text x="180" y="195" text-anchor="middle" fill="#06b6d4" font-family="Space Grotesk" font-size="14" font-weight="600">Integration</text>
  <text x="180" y="217" text-anchor="middle" fill="#475569" font-family="Nunito" font-size="11">System connectivity</text>
  <rect x="330" y="165" width="240" height="80" rx="10" fill="#f8fafc" stroke="#f59e0b" stroke-width="2"/>
  <text x="450" y="195" text-anchor="middle" fill="#f59e0b" font-family="Space Grotesk" font-size="14" font-weight="600">Security</text>
  <text x="450" y="217" text-anchor="middle" fill="#475569" font-family="Nunito" font-size="11">Threat modeling</text>
  <rect x="600" y="165" width="240" height="80" rx="10" fill="#f8fafc" stroke="#22c55e" stroke-width="2"/>
  <text x="720" y="195" text-anchor="middle" fill="#22c55e" font-family="Space Grotesk" font-size="14" font-weight="600">Roadmapping</text>
  <text x="720" y="217" text-anchor="middle" fill="#475569" font-family="Nunito" font-size="11">Strategic planning</text>
</svg>