<svg viewBox="0 0 900 280" width="900" height="280" xmlns="http://www.w3.org/2000/svg">
  <defs>
    <marker id="arw" markerWidth="10" markerHeight="7" refX="10" refY="3.5" orient="auto">
      <polygon points="0 0, 10 3.5, 0 7" fill="#06b6d4"/>
    </marker>
    <marker id="arwP" markerWidth="10" markerHeight="7" refX="10" refY="3.5" orient="auto">
      <polygon points="0 0, 10 3.5, 0 7" fill="#a855f7"/>
    </marker>
    <marker id="arwG" markerWidth="10" markerHeight="7" refX="10" refY="3.5" orient="auto">
      <polygon points="0 0, 10 3.5, 0 7" fill="#22c55e"/>
    </marker>
    <marker id="arwO" markerWidth="10" markerHeight="7" refX="10" refY="3.5" orient="auto">
      <polygon points="0 0, 10 3.5, 0 7" fill="#f59e0b"/>
    </marker>
    <marker id="arwR" markerWidth="10" markerHeight="7" refX="10" refY="3.5" orient="auto">
      <polygon points="0 0, 10 3.5, 0 7" fill="#ef4444"/>
    </marker>
    <marker id="arwB" markerWidth="10" markerHeight="7" refX="10" refY="3.5" orient="auto">
      <polygon points="0 0, 10 3.5, 0 7" fill="#3b82f6"/>
    </marker>
  </defs>
  <text x="450" y="35" text-anchor="middle" fill="#06b6d4" font-family="Space Grotesk" font-size="16" font-weight="700">Bank Compliance Architecture</text>
  <rect x="30" y="90" width="145" height="70" rx="10" fill="#f8fafc" stroke="#3b82f6" stroke-width="2"/>
  <text x="102.5" y="115" text-anchor="middle" fill="#0f172a" font-family="Space Grotesk" font-size="13" font-weight="600">Document</text>
  <text x="102.5" y="133" text-anchor="middle" fill="#475569" font-family="Nunito" font-size="10">Regulatory filings</text>
  <line x1="175" y1="125" x2="201.75" y2="125" stroke="#06b6d4" stroke-width="2" marker-end="url(#arw)"/>
  <rect x="203.75" y="90" width="145" height="70" rx="10" fill="#f8fafc" stroke="#06b6d4" stroke-width="2"/>
  <text x="276.25" y="115" text-anchor="middle" fill="#0f172a" font-family="Space Grotesk" font-size="13" font-weight="600">Ingestion</text>
  <text x="276.25" y="133" text-anchor="middle" fill="#475569" font-family="Nunito" font-size="10">Parse + chunk</text>
  <line x1="348.75" y1="125" x2="375.5" y2="125" stroke="#06b6d4" stroke-width="2" marker-end="url(#arw)"/>
  <rect x="377.5" y="90" width="145" height="70" rx="10" fill="#f8fafc" stroke="#ef4444" stroke-width="2"/>
  <text x="450" y="115" text-anchor="middle" fill="#0f172a" font-family="Space Grotesk" font-size="13" font-weight="600">Self-hosted LLM</text>
  <text x="450" y="133" text-anchor="middle" fill="#475569" font-family="Nunito" font-size="10">On-prem inference</text>
  <line x1="522.5" y1="125" x2="549.25" y2="125" stroke="#06b6d4" stroke-width="2" marker-end="url(#arw)"/>
  <rect x="551.25" y="90" width="145" height="70" rx="10" fill="#f8fafc" stroke="#f59e0b" stroke-width="2"/>
  <text x="623.75" y="115" text-anchor="middle" fill="#0f172a" font-family="Space Grotesk" font-size="13" font-weight="600">Human Review</text>
  <text x="623.75" y="133" text-anchor="middle" fill="#475569" font-family="Nunito" font-size="10">Expert validation</text>
  <line x1="696.25" y1="125" x2="723" y2="125" stroke="#06b6d4" stroke-width="2" marker-end="url(#arw)"/>
  <rect x="725" y="90" width="145" height="70" rx="10" fill="#f8fafc" stroke="#22c55e" stroke-width="2"/>
  <text x="797.5" y="115" text-anchor="middle" fill="#0f172a" font-family="Space Grotesk" font-size="13" font-weight="600">Audit Log</text>
  <text x="797.5" y="133" text-anchor="middle" fill="#475569" font-family="Nunito" font-size="10">Full lineage</text>
</svg>