<svg viewBox="0 0 900 300" width="900" height="300" xmlns="http://www.w3.org/2000/svg">
  <defs>
    <marker id="arw" markerWidth="10" markerHeight="7" refX="10" refY="3.5" orient="auto">
      <polygon points="0 0, 10 3.5, 0 7" fill="#06b6d4"/>
    </marker>
    <marker id="arwP" markerWidth="10" markerHeight="7" refX="10" refY="3.5" orient="auto">
      <polygon points="0 0, 10 3.5, 0 7" fill="#a855f7"/>
    </marker>
    <marker id="arwG" markerWidth="10" markerHeight="7" refX="10" refY="3.5" orient="auto">
      <polygon points="0 0, 10 3.5, 0 7" fill="#22c55e"/>
    </marker>
    <marker id="arwO" markerWidth="10" markerHeight="7" refX="10" refY="3.5" orient="auto">
      <polygon points="0 0, 10 3.5, 0 7" fill="#f59e0b"/>
    </marker>
    <marker id="arwR" markerWidth="10" markerHeight="7" refX="10" refY="3.5" orient="auto">
      <polygon points="0 0, 10 3.5, 0 7" fill="#ef4444"/>
    </marker>
    <marker id="arwB" markerWidth="10" markerHeight="7" refX="10" refY="3.5" orient="auto">
      <polygon points="0 0, 10 3.5, 0 7" fill="#3b82f6"/>
    </marker>
  </defs>
  <text x="450" y="30" text-anchor="middle" fill="#06b6d4" font-family="Space Grotesk" font-size="16" font-weight="700">Retail Supply Chain AI</text>
  <rect x="30" y="70" width="120" height="50" rx="8" fill="#f8fafc" stroke="#3b82f6" stroke-width="2"/>
  <text x="90" y="100" text-anchor="middle" fill="#3b82f6" font-family="Space Grotesk" font-size="12" font-weight="600">POS Data</text>
  <line x1="150" y1="95" x2="210" y2="165" stroke="#06b6d4" stroke-width="2" marker-end="url(#arw)"/>
  <rect x="30" y="140" width="120" height="50" rx="8" fill="#f8fafc" stroke="#06b6d4" stroke-width="2"/>
  <text x="90" y="170" text-anchor="middle" fill="#06b6d4" font-family="Space Grotesk" font-size="12" font-weight="600">Weather</text>
  <line x1="150" y1="165" x2="210" y2="165" stroke="#06b6d4" stroke-width="2" marker-end="url(#arw)"/>
  <rect x="30" y="210" width="120" height="50" rx="8" fill="#f8fafc" stroke="#a855f7" stroke-width="2"/>
  <text x="90" y="240" text-anchor="middle" fill="#a855f7" font-family="Space Grotesk" font-size="12" font-weight="600">Events</text>
  <line x1="150" y1="235" x2="210" y2="165" stroke="#06b6d4" stroke-width="2" marker-end="url(#arw)"/>
  <rect x="215" y="120" width="130" height="90" rx="10" fill="#f8fafc" stroke="#f59e0b" stroke-width="2"/>
  <text x="280" y="150" text-anchor="middle" fill="#f59e0b" font-family="Space Grotesk" font-size="12" font-weight="600">Feature Store</text>
  <text x="280" y="170" text-anchor="middle" fill="#475569" font-family="Nunito" font-size="9">Time-series</text>
  <text x="280" y="185" text-anchor="middle" fill="#475569" font-family="Nunito" font-size="9">aggregations</text>
  <line x1="345" y1="165" x2="400" y2="165" stroke="#06b6d4" stroke-width="2" marker-end="url(#arw)"/>
  <rect x="405" y="130" width="120" height="70" rx="10" fill="#f8fafc" stroke="#22c55e" stroke-width="2"/>
  <text x="465" y="158" text-anchor="middle" fill="#22c55e" font-family="Space Grotesk" font-size="13" font-weight="600">XGBoost</text>
  <text x="465" y="178" text-anchor="middle" fill="#475569" font-family="Nunito" font-size="9">Forecast model</text>
  <line x1="525" y1="165" x2="580" y2="165" stroke="#06b6d4" stroke-width="2" marker-end="url(#arw)"/>
  <rect x="585" y="130" width="130" height="70" rx="10" fill="#f8fafc" stroke="#ef4444" stroke-width="2"/>
  <text x="650" y="155" text-anchor="middle" fill="#ef4444" font-family="Space Grotesk" font-size="12" font-weight="600">Drift Detector</text>
  <text x="650" y="175" text-anchor="middle" fill="#475569" font-family="Nunito" font-size="9">Monitor accuracy</text>
  <line x1="715" y1="165" x2="770" y2="165" stroke="#06b6d4" stroke-width="2" marker-end="url(#arw)"/>
  <rect x="775" y="120" width="110" height="90" rx="10" fill="#f8fafc" stroke="#a855f7" stroke-width="2"/>
  <text x="830" y="150" text-anchor="middle" fill="#a855f7" font-family="Space Grotesk" font-size="13" font-weight="600">GenAI</text>
  <text x="830" y="170" text-anchor="middle" fill="#475569" font-family="Nunito" font-size="9">Natural lang.</text>
  <text x="830" y="185" text-anchor="middle" fill="#475569" font-family="Nunito" font-size="9">explanations</text>
</svg>