<svg viewBox="0 0 900 400" width="900" height="400" xmlns="http://www.w3.org/2000/svg">
  <defs>
    <marker id="arw" markerWidth="10" markerHeight="7" refX="10" refY="3.5" orient="auto">
      <polygon points="0 0, 10 3.5, 0 7" fill="#06b6d4"/>
    </marker>
    <marker id="arwP" markerWidth="10" markerHeight="7" refX="10" refY="3.5" orient="auto">
      <polygon points="0 0, 10 3.5, 0 7" fill="#a855f7"/>
    </marker>
    <marker id="arwG" markerWidth="10" markerHeight="7" refX="10" refY="3.5" orient="auto">
      <polygon points="0 0, 10 3.5, 0 7" fill="#22c55e"/>
    </marker>
    <marker id="arwO" markerWidth="10" markerHeight="7" refX="10" refY="3.5" orient="auto">
      <polygon points="0 0, 10 3.5, 0 7" fill="#f59e0b"/>
    </marker>
    <marker id="arwR" markerWidth="10" markerHeight="7" refX="10" refY="3.5" orient="auto">
      <polygon points="0 0, 10 3.5, 0 7" fill="#ef4444"/>
    </marker>
    <marker id="arwB" markerWidth="10" markerHeight="7" refX="10" refY="3.5" orient="auto">
      <polygon points="0 0, 10 3.5, 0 7" fill="#3b82f6"/>
    </marker>
  </defs>
  <text x="450" y="25" text-anchor="middle" fill="#06b6d4" font-family="Space Grotesk" font-size="15" font-weight="700">90-Day AI Enterprise Architect Learning Plan</text>
  <rect x="30" y="50" width="270" height="310" rx="12" fill="#f8fafc" stroke="#3b82f6" stroke-width="2"/>
  <text x="165" y="80" text-anchor="middle" fill="#3b82f6" font-family="Space Grotesk" font-size="13" font-weight="600">Phase 1: Fundamentals</text>
  <text x="165" y="100" text-anchor="middle" fill="#475569" font-family="JetBrains Mono" font-size="10">Days 1-30</text>
  <rect x="45" y="115" width="240" height="28" rx="10" fill="#f1f5f9" stroke="#cbd5e1" stroke-width="2"/>
  <text x="165" y="134" text-anchor="middle" fill="#475569" font-family="Nunito" font-size="11">AI/ML concepts</text>
  <rect x="45" y="150" width="240" height="28" rx="10" fill="#f1f5f9" stroke="#cbd5e1" stroke-width="2"/>
  <text x="165" y="169" text-anchor="middle" fill="#475569" font-family="Nunito" font-size="11">Prompt engineering</text>
  <rect x="45" y="185" width="240" height="28" rx="10" fill="#f1f5f9" stroke="#cbd5e1" stroke-width="2"/>
  <text x="165" y="204" text-anchor="middle" fill="#475569" font-family="Nunito" font-size="11">Model types</text>
  <rect x="45" y="220" width="240" height="28" rx="10" fill="#f1f5f9" stroke="#cbd5e1" stroke-width="2"/>
  <text x="165" y="239" text-anchor="middle" fill="#475569" font-family="Nunito" font-size="11">Data foundations</text>
  <rect x="45" y="270" width="240" height="45" rx="10" fill="#f1f5f9" stroke="#3b82f6" stroke-width="2"/>
  <text x="165" y="288" text-anchor="middle" fill="#3b82f6" font-family="JetBrains Mono" font-size="9">Milestone:</text>
  <text x="165" y="305" text-anchor="middle" fill="#475569" font-family="Nunito" font-size="10">Build a RAG prototype</text>
  <line x1="300" y1="200" x2="318" y2="200" stroke="#06b6d4" stroke-width="2" marker-end="url(#arw)"/>
  <rect x="320" y="50" width="270" height="310" rx="12" fill="#f8fafc" stroke="#a855f7" stroke-width="2"/>
  <text x="455" y="80" text-anchor="middle" fill="#a855f7" font-family="Space Grotesk" font-size="13" font-weight="600">Phase 2: Technical</text>
  <text x="455" y="100" text-anchor="middle" fill="#475569" font-family="JetBrains Mono" font-size="10">Days 31-60</text>
  <rect x="335" y="115" width="240" height="28" rx="10" fill="#f1f5f9" stroke="#cbd5e1" stroke-width="2"/>
  <text x="455" y="134" text-anchor="middle" fill="#475569" font-family="Nunito" font-size="11">Architecture patterns</text>
  <rect x="335" y="150" width="240" height="28" rx="10" fill="#f1f5f9" stroke="#cbd5e1" stroke-width="2"/>
  <text x="455" y="169" text-anchor="middle" fill="#475569" font-family="Nunito" font-size="11">MLOps pipelines</text>
  <rect x="335" y="185" width="240" height="28" rx="10" fill="#f1f5f9" stroke="#cbd5e1" stroke-width="2"/>
  <text x="455" y="204" text-anchor="middle" fill="#475569" font-family="Nunito" font-size="11">Security + safety</text>
  <rect x="335" y="220" width="240" height="28" rx="10" fill="#f1f5f9" stroke="#cbd5e1" stroke-width="2"/>
  <text x="455" y="239" text-anchor="middle" fill="#475569" font-family="Nunito" font-size="11">Cost optimization</text>
  <rect x="335" y="270" width="240" height="45" rx="10" fill="#f1f5f9" stroke="#a855f7" stroke-width="2"/>
  <text x="455" y="288" text-anchor="middle" fill="#a855f7" font-family="JetBrains Mono" font-size="9">Milestone:</text>
  <text x="455" y="305" text-anchor="middle" fill="#475569" font-family="Nunito" font-size="10">Design AI integration</text>
  <line x1="590" y1="200" x2="608" y2="200" stroke="#06b6d4" stroke-width="2" marker-end="url(#arw)"/>
  <rect x="610" y="50" width="270" height="310" rx="12" fill="#f8fafc" stroke="#22c55e" stroke-width="2"/>
  <text x="745" y="80" text-anchor="middle" fill="#22c55e" font-family="Space Grotesk" font-size="13" font-weight="600">Phase 3: Enterprise</text>
  <text x="745" y="100" text-anchor="middle" fill="#475569" font-family="JetBrains Mono" font-size="10">Days 61-90</text>
  <rect x="625" y="115" width="240" height="28" rx="10" fill="#f1f5f9" stroke="#cbd5e1" stroke-width="2"/>
  <text x="745" y="134" text-anchor="middle" fill="#475569" font-family="Nunito" font-size="11">Governance frameworks</text>
  <rect x="625" y="150" width="240" height="28" rx="10" fill="#f1f5f9" stroke="#cbd5e1" stroke-width="2"/>
  <text x="745" y="169" text-anchor="middle" fill="#475569" font-family="Nunito" font-size="11">Vendor evaluation</text>
  <rect x="625" y="185" width="240" height="28" rx="10" fill="#f1f5f9" stroke="#cbd5e1" stroke-width="2"/>
  <text x="745" y="204" text-anchor="middle" fill="#475569" font-family="Nunito" font-size="11">Org structures</text>
  <rect x="625" y="220" width="240" height="28" rx="10" fill="#f1f5f9" stroke="#cbd5e1" stroke-width="2"/>
  <text x="745" y="239" text-anchor="middle" fill="#475569" font-family="Nunito" font-size="11">Case studies</text>
  <rect x="625" y="270" width="240" height="45" rx="10" fill="#f1f5f9" stroke="#22c55e" stroke-width="2"/>
  <text x="745" y="288" text-anchor="middle" fill="#22c55e" font-family="JetBrains Mono" font-size="9">Milestone:</text>
  <text x="745" y="305" text-anchor="middle" fill="#475569" font-family="Nunito" font-size="10">Present AI strategy</text>
</svg>