<?xml version="1.0" encoding="UTF-8"?>
<svg viewBox="0 0 900 300" width="900" height="300" xmlns="http://www.w3.org/2000/svg">
  <defs>
    <marker id="arw" markerWidth="10" markerHeight="7" refX="9" refY="3.5" orient="auto">
      <polygon points="0 0, 10 3.5, 0 7" fill="#06b6d4"/>
    </marker>
    <marker id="arwP" markerWidth="10" markerHeight="7" refX="9" refY="3.5" orient="auto">
      <polygon points="0 0, 10 3.5, 0 7" fill="#a855f7"/>
    </marker>
    <marker id="arwG" markerWidth="10" markerHeight="7" refX="9" refY="3.5" orient="auto">
      <polygon points="0 0, 10 3.5, 0 7" fill="#22c55e"/>
    </marker>
    <marker id="arwO" markerWidth="10" markerHeight="7" refX="9" refY="3.5" orient="auto">
      <polygon points="0 0, 10 3.5, 0 7" fill="#f59e0b"/>
    </marker>
    <marker id="arwR" markerWidth="10" markerHeight="7" refX="9" refY="3.5" orient="auto">
      <polygon points="0 0, 10 3.5, 0 7" fill="#ef4444"/>
    </marker>
    <marker id="arwB" markerWidth="10" markerHeight="7" refX="9" refY="3.5" orient="auto">
      <polygon points="0 0, 10 3.5, 0 7" fill="#3b82f6"/>
    </marker>
    <marker id="arwN" markerWidth="10" markerHeight="7" refX="9" refY="3.5" orient="auto">
      <polygon points="0 0, 10 3.5, 0 7" fill="#0f172a"/>
    </marker>
  </defs>
  <text x="450" y="28" text-anchor="middle" fill="#06b6d4" font-family="Space Grotesk" font-size="16" font-weight="700">Capstone: Customer 360 — Identity Resolution to Graph</text>
  <rect x="48" y="130" width="104" height="40" rx="8" fill="#f8fafc" stroke="#3b82f6" stroke-width="2"/>
  <text x="100" y="155" text-anchor="middle" fill="#3b82f6" font-family="Space Grotesk" font-size="12" font-weight="700">CRM</text>
  <rect x="48" y="195" width="104" height="40" rx="8" fill="#f8fafc" stroke="#06b6d4" stroke-width="2"/>
  <text x="100" y="220" text-anchor="middle" fill="#06b6d4" font-family="Space Grotesk" font-size="12" font-weight="700">Support</text>
  <rect x="48" y="260" width="104" height="40" rx="8" fill="#f8fafc" stroke="#a855f7" stroke-width="2"/>
  <text x="100" y="285" text-anchor="middle" fill="#a855f7" font-family="Space Grotesk" font-size="12" font-weight="700">Orders</text>
  <line x1="152" y1="150" x2="250" y2="195.5" stroke="#3b82f6" stroke-width="2" marker-end="url(#arw)"/>
  <line x1="152" y1="215" x2="250" y2="215" stroke="#06b6d4" stroke-width="2" marker-end="url(#arw)"/>
  <line x1="152" y1="280" x2="250" y2="234.5" stroke="#a855f7" stroke-width="2" marker-end="url(#arw)"/>
  <rect x="248" y="187" width="144" height="56" rx="10" fill="#f8fafc" stroke="#f59e0b" stroke-width="2"/>
  <text x="320" y="211" text-anchor="middle" fill="#f59e0b" font-family="Space Grotesk" font-size="13" font-weight="700">Identity</text>
  <text x="320" y="231" text-anchor="middle" fill="#f59e0b" font-family="Space Grotesk" font-size="13" font-weight="700">Resolution</text>
  <line x1="392" y1="215" x2="480" y2="215" stroke="#f59e0b" stroke-width="2" marker-end="url(#arwO)"/>
  <circle cx="560" cy="215" r="52" fill="#f8fafc" stroke="#06b6d4" stroke-width="2.5"/>
  <text x="560" y="211" text-anchor="middle" fill="#06b6d4" font-family="Space Grotesk" font-size="13" font-weight="700">Customer</text>
  <text x="560" y="229" text-anchor="middle" fill="#06b6d4" font-family="Space Grotesk" font-size="13" font-weight="700">Graph</text>
  <line x1="612" y1="215" x2="690" y2="215" stroke="#06b6d4" stroke-width="2" marker-end="url(#arw)"/>
  <rect x="690" y="186" width="170" height="58" rx="10" fill="#f8fafc" stroke="#a855f7" stroke-width="2"/>
  <text x="775" y="210" text-anchor="middle" fill="#a855f7" font-family="Space Grotesk" font-size="13" font-weight="700">AI Agent</text>
  <text x="775" y="228" text-anchor="middle" fill="#a855f7" font-family="Space Grotesk" font-size="13" font-weight="700">360 View</text>
  <text x="450" y="268" text-anchor="middle" fill="#475569" font-family="Nunito" font-size="10" font-weight="400">Identity resolution unifies customer records across systems into a single enriched graph entity</text>
</svg>