<?xml version="1.0" encoding="UTF-8"?>
<svg viewBox="0 0 900 300" width="900" height="300" xmlns="http://www.w3.org/2000/svg">
  <defs>
    <marker id="arw" markerWidth="10" markerHeight="7" refX="9" refY="3.5" orient="auto">
      <polygon points="0 0, 10 3.5, 0 7" fill="#06b6d4"/>
    </marker>
    <marker id="arwP" markerWidth="10" markerHeight="7" refX="9" refY="3.5" orient="auto">
      <polygon points="0 0, 10 3.5, 0 7" fill="#a855f7"/>
    </marker>
    <marker id="arwG" markerWidth="10" markerHeight="7" refX="9" refY="3.5" orient="auto">
      <polygon points="0 0, 10 3.5, 0 7" fill="#22c55e"/>
    </marker>
    <marker id="arwO" markerWidth="10" markerHeight="7" refX="9" refY="3.5" orient="auto">
      <polygon points="0 0, 10 3.5, 0 7" fill="#f59e0b"/>
    </marker>
    <marker id="arwR" markerWidth="10" markerHeight="7" refX="9" refY="3.5" orient="auto">
      <polygon points="0 0, 10 3.5, 0 7" fill="#ef4444"/>
    </marker>
    <marker id="arwB" markerWidth="10" markerHeight="7" refX="9" refY="3.5" orient="auto">
      <polygon points="0 0, 10 3.5, 0 7" fill="#3b82f6"/>
    </marker>
    <marker id="arwN" markerWidth="10" markerHeight="7" refX="9" refY="3.5" orient="auto">
      <polygon points="0 0, 10 3.5, 0 7" fill="#0f172a"/>
    </marker>
  </defs>
  <text x="450" y="28" text-anchor="middle" fill="#06b6d4" font-family="Space Grotesk" font-size="16" font-weight="700">Capstone: Regulatory Intelligence Pipeline</text>
  <rect x="35" y="120" width="110" height="60" rx="8" fill="#f8fafc" stroke="#cbd5e1" stroke-width="2"/>
  <text x="90" y="155" text-anchor="middle" fill="#0f172a" font-family="Space Grotesk" font-size="11" font-weight="700">PDFs</text>
  <line x1="145" y1="150" x2="165" y2="150" stroke="#0f172a" stroke-width="2" marker-end="url(#arw)"/>
  <rect x="167" y="120" width="110" height="60" rx="8" fill="#f8fafc" stroke="#f59e0b" stroke-width="2"/>
  <text x="222" y="155" text-anchor="middle" fill="#f59e0b" font-family="Space Grotesk" font-size="11" font-weight="700">LLM Extract</text>
  <line x1="277" y1="150" x2="297" y2="150" stroke="#f59e0b" stroke-width="2" marker-end="url(#arw)"/>
  <rect x="299" y="120" width="110" height="60" rx="8" fill="#f8fafc" stroke="#06b6d4" stroke-width="2"/>
  <text x="354" y="155" text-anchor="middle" fill="#06b6d4" font-family="Space Grotesk" font-size="11" font-weight="700">Neo4j KG</text>
  <line x1="409" y1="150" x2="429" y2="150" stroke="#06b6d4" stroke-width="2" marker-end="url(#arw)"/>
  <rect x="431" y="120" width="110" height="60" rx="8" fill="#f8fafc" stroke="#a855f7" stroke-width="2"/>
  <text x="486" y="155" text-anchor="middle" fill="#a855f7" font-family="Space Grotesk" font-size="11" font-weight="700">GraphRAG</text>
  <line x1="541" y1="150" x2="561" y2="150" stroke="#a855f7" stroke-width="2" marker-end="url(#arw)"/>
  <rect x="563" y="120" width="110" height="60" rx="8" fill="#f8fafc" stroke="#3b82f6" stroke-width="2"/>
  <text x="618" y="155" text-anchor="middle" fill="#3b82f6" font-family="Space Grotesk" font-size="11" font-weight="700">Compliance Agent</text>
  <line x1="673" y1="150" x2="693" y2="150" stroke="#3b82f6" stroke-width="2" marker-end="url(#arw)"/>
  <rect x="695" y="120" width="110" height="60" rx="8" fill="#dcfce7" stroke="#22c55e" stroke-width="2"/>
  <text x="750" y="155" text-anchor="middle" fill="#22c55e" font-family="Space Grotesk" font-size="11" font-weight="700">Answers</text>
  <text x="450" y="222" text-anchor="middle" fill="#475569" font-family="Nunito" font-size="10" font-weight="400">End-to-end: raw regulatory documents become a queryable knowledge graph powering AI-driven compliance Q+A</text>
  <text x="450" y="240" text-anchor="middle" fill="#06b6d4" font-family="Nunito" font-size="10" font-weight="400">GraphRAG retrieval answers questions that require multi-hop reasoning across regulation clauses and entities</text>
</svg>