<?xml version="1.0" encoding="UTF-8"?>
<svg viewBox="0 0 900 350" width="900" height="350" xmlns="http://www.w3.org/2000/svg">
  <defs>
    <marker id="arw" markerWidth="10" markerHeight="7" refX="9" refY="3.5" orient="auto">
      <polygon points="0 0, 10 3.5, 0 7" fill="#06b6d4"/>
    </marker>
    <marker id="arwP" markerWidth="10" markerHeight="7" refX="9" refY="3.5" orient="auto">
      <polygon points="0 0, 10 3.5, 0 7" fill="#a855f7"/>
    </marker>
    <marker id="arwG" markerWidth="10" markerHeight="7" refX="9" refY="3.5" orient="auto">
      <polygon points="0 0, 10 3.5, 0 7" fill="#22c55e"/>
    </marker>
    <marker id="arwO" markerWidth="10" markerHeight="7" refX="9" refY="3.5" orient="auto">
      <polygon points="0 0, 10 3.5, 0 7" fill="#f59e0b"/>
    </marker>
    <marker id="arwR" markerWidth="10" markerHeight="7" refX="9" refY="3.5" orient="auto">
      <polygon points="0 0, 10 3.5, 0 7" fill="#ef4444"/>
    </marker>
    <marker id="arwB" markerWidth="10" markerHeight="7" refX="9" refY="3.5" orient="auto">
      <polygon points="0 0, 10 3.5, 0 7" fill="#3b82f6"/>
    </marker>
    <marker id="arwN" markerWidth="10" markerHeight="7" refX="9" refY="3.5" orient="auto">
      <polygon points="0 0, 10 3.5, 0 7" fill="#0f172a"/>
    </marker>
  </defs>
  <text x="450" y="28" text-anchor="middle" fill="#06b6d4" font-family="Space Grotesk" font-size="16" font-weight="700">Capstone: Service Dependency Graph — Blast Radius</text>
  <rect x="380" y="78" width="140" height="44" rx="8" fill="#f8fafc" stroke="#0f172a" stroke-width="2"/>
  <text x="450" y="105" text-anchor="middle" fill="#0f172a" font-family="Space Grotesk" font-size="11" font-weight="700">API Gateway</text>
  <rect x="150" y="178" width="140" height="44" rx="8" fill="#f8fafc" stroke="#3b82f6" stroke-width="2"/>
  <text x="220" y="205" text-anchor="middle" fill="#3b82f6" font-family="Space Grotesk" font-size="11" font-weight="700">Auth Service</text>
  <rect x="610" y="178" width="140" height="44" rx="8" fill="#f8fafc" stroke="#3b82f6" stroke-width="2"/>
  <text x="680" y="205" text-anchor="middle" fill="#3b82f6" font-family="Space Grotesk" font-size="11" font-weight="700">Order Service</text>
  <rect x="30" y="278" width="140" height="44" rx="8" fill="#fee2e2" stroke="#ef4444" stroke-width="2"/>
  <text x="100" y="305" text-anchor="middle" fill="#ef4444" font-family="Space Grotesk" font-size="11" font-weight="700">User DB</text>
  <rect x="270" y="278" width="140" height="44" rx="8" fill="#fee2e2" stroke="#ef4444" stroke-width="2"/>
  <text x="340" y="305" text-anchor="middle" fill="#ef4444" font-family="Space Grotesk" font-size="11" font-weight="700">Cache</text>
  <rect x="510" y="278" width="140" height="44" rx="8" fill="#f8fafc" stroke="#06b6d4" stroke-width="2"/>
  <text x="580" y="305" text-anchor="middle" fill="#06b6d4" font-family="Space Grotesk" font-size="11" font-weight="700">Inventory DB</text>
  <rect x="730" y="278" width="140" height="44" rx="8" fill="#f8fafc" stroke="#06b6d4" stroke-width="2"/>
  <text x="800" y="305" text-anchor="middle" fill="#06b6d4" font-family="Space Grotesk" font-size="11" font-weight="700">Payment DB</text>
  <line x1="450" y1="122" x2="220" y2="178" stroke="#0f172a" stroke-width="2" marker-end="url(#arwN)"/>
  <line x1="450" y1="122" x2="680" y2="178" stroke="#0f172a" stroke-width="2" marker-end="url(#arwN)"/>
  <line x1="220" y1="222" x2="100" y2="278" stroke="#3b82f6" stroke-width="2" marker-end="url(#arwB)"/>
  <line x1="220" y1="222" x2="340" y2="278" stroke="#3b82f6" stroke-width="2" marker-end="url(#arwB)"/>
  <line x1="680" y1="222" x2="580" y2="278" stroke="#3b82f6" stroke-width="2" marker-end="url(#arwB)"/>
  <line x1="680" y1="222" x2="800" y2="278" stroke="#3b82f6" stroke-width="2" marker-end="url(#arwB)"/>
  <rect x="303" y="147" width="64" height="14" rx="3" fill="white" stroke="#0f172a" stroke-width="1"/>
  <text x="335" y="157" text-anchor="middle" fill="#0f172a" font-family="JetBrains Mono" font-size="9" font-weight="400">DEPENDS_ON</text>
  <rect x="30" y="248" width="440" height="68" rx="8" fill="none" stroke="#ef4444" stroke-width="2"/>
  <text x="35" y="236" text-anchor="start" fill="#ef4444" font-family="Nunito" font-size="9" font-weight="400">Blast radius: failure of User DB propagates up</text>
  <text x="100" y="332" text-anchor="middle" fill="#ef4444" font-family="Nunito" font-size="9" font-weight="400">FAILED</text>
  <text x="340" y="332" text-anchor="middle" fill="#ef4444" font-family="Nunito" font-size="9" font-weight="400">IMPACTED</text>
</svg>