<?xml version="1.0" encoding="UTF-8"?>
<svg viewBox="0 0 900 350" width="900" height="350" xmlns="http://www.w3.org/2000/svg">
  <defs>
    <marker id="arw" markerWidth="10" markerHeight="7" refX="9" refY="3.5" orient="auto">
      <polygon points="0 0, 10 3.5, 0 7" fill="#06b6d4"/>
    </marker>
    <marker id="arwP" markerWidth="10" markerHeight="7" refX="9" refY="3.5" orient="auto">
      <polygon points="0 0, 10 3.5, 0 7" fill="#a855f7"/>
    </marker>
    <marker id="arwG" markerWidth="10" markerHeight="7" refX="9" refY="3.5" orient="auto">
      <polygon points="0 0, 10 3.5, 0 7" fill="#22c55e"/>
    </marker>
    <marker id="arwO" markerWidth="10" markerHeight="7" refX="9" refY="3.5" orient="auto">
      <polygon points="0 0, 10 3.5, 0 7" fill="#f59e0b"/>
    </marker>
    <marker id="arwR" markerWidth="10" markerHeight="7" refX="9" refY="3.5" orient="auto">
      <polygon points="0 0, 10 3.5, 0 7" fill="#ef4444"/>
    </marker>
    <marker id="arwB" markerWidth="10" markerHeight="7" refX="9" refY="3.5" orient="auto">
      <polygon points="0 0, 10 3.5, 0 7" fill="#3b82f6"/>
    </marker>
    <marker id="arwN" markerWidth="10" markerHeight="7" refX="9" refY="3.5" orient="auto">
      <polygon points="0 0, 10 3.5, 0 7" fill="#0f172a"/>
    </marker>
  </defs>
  <text x="450" y="28" text-anchor="middle" fill="#06b6d4" font-family="Space Grotesk" font-size="16" font-weight="700">Capstone: Transaction Graph — Fraud Ring Detection</text>
  <circle cx="100" cy="130" r="34" fill="#f8fafc" stroke="#3b82f6" stroke-width="2"/>
  <text x="100" y="135" text-anchor="middle" fill="#0f172a" font-family="Space Grotesk" font-size="11" font-weight="700">Acct A</text>
  <circle cx="240" cy="90" r="34" fill="#f8fafc" stroke="#3b82f6" stroke-width="2"/>
  <text x="240" y="95" text-anchor="middle" fill="#0f172a" font-family="Space Grotesk" font-size="11" font-weight="700">Acct B</text>
  <circle cx="240" cy="180" r="34" fill="#f8fafc" stroke="#3b82f6" stroke-width="2"/>
  <text x="240" y="185" text-anchor="middle" fill="#0f172a" font-family="Space Grotesk" font-size="11" font-weight="700">Acct C</text>
  <circle cx="100" cy="240" r="34" fill="#f8fafc" stroke="#3b82f6" stroke-width="2"/>
  <text x="100" y="245" text-anchor="middle" fill="#0f172a" font-family="Space Grotesk" font-size="11" font-weight="700">Acct D</text>
  <line x1="134" y1="123" x2="206" y2="101" stroke="#3b82f6" stroke-width="2" marker-end="url(#arwB)"/>
  <line x1="134" y1="143" x2="206" y2="170" stroke="#3b82f6" stroke-width="2" marker-end="url(#arwB)"/>
  <line x1="240" y1="124" x2="240" y2="156" stroke="#3b82f6" stroke-width="2" marker-end="url(#arwB)"/>
  <circle cx="530" cy="120" r="36" fill="#fee2e2" stroke="#ef4444" stroke-width="2.5"/>
  <text x="530" y="125" text-anchor="middle" fill="#ef4444" font-family="Space Grotesk" font-size="11" font-weight="700">Shell 1</text>
  <circle cx="680" cy="100" r="36" fill="#fee2e2" stroke="#ef4444" stroke-width="2.5"/>
  <text x="680" y="105" text-anchor="middle" fill="#ef4444" font-family="Space Grotesk" font-size="11" font-weight="700">Shell 2</text>
  <circle cx="760" cy="210" r="36" fill="#fee2e2" stroke="#ef4444" stroke-width="2.5"/>
  <text x="760" y="215" text-anchor="middle" fill="#ef4444" font-family="Space Grotesk" font-size="11" font-weight="700">Shell 3</text>
  <circle cx="600" cy="260" r="36" fill="#fee2e2" stroke="#ef4444" stroke-width="2.5"/>
  <text x="600" y="265" text-anchor="middle" fill="#ef4444" font-family="Space Grotesk" font-size="11" font-weight="700">Shell 4</text>
  <line x1="566" y1="110" x2="644" y2="104" stroke="#ef4444" stroke-width="2" marker-end="url(#arwR)"/>
  <line x1="710" y1="122" x2="746" y2="186" stroke="#ef4444" stroke-width="2" marker-end="url(#arwR)"/>
  <line x1="742" y1="236" x2="634" y2="262" stroke="#ef4444" stroke-width="2" marker-end="url(#arwR)"/>
  <line x1="570" y1="250" x2="536" y2="156" stroke="#ef4444" stroke-width="2" marker-end="url(#arwR)"/>
  <text x="170" y="310" text-anchor="middle" fill="#3b82f6" font-family="Nunito" font-size="11" font-weight="400">Normal Transactions</text>
  <text x="650" y="310" text-anchor="middle" fill="#ef4444" font-family="Nunito" font-size="11" font-weight="400">Fraud Ring (circular pattern)</text>
  <rect x="460" y="40" width="400" height="30" rx="6" fill="#fee2e2" stroke="#ef4444" stroke-width="2"/>
  <text x="660" y="60" text-anchor="middle" fill="#ef4444" font-family="Nunito" font-size="9" font-weight="400">Cycle detected: Cypher MATCH (a)-[*3..6]-&gt;(a) identifies rings in ms</text>
</svg>