<?xml version="1.0" encoding="UTF-8"?>
<svg viewBox="0 0 900 350" width="900" height="350" xmlns="http://www.w3.org/2000/svg">
  <defs>
    <marker id="arw" markerWidth="10" markerHeight="7" refX="9" refY="3.5" orient="auto">
      <polygon points="0 0, 10 3.5, 0 7" fill="#06b6d4"/>
    </marker>
    <marker id="arwP" markerWidth="10" markerHeight="7" refX="9" refY="3.5" orient="auto">
      <polygon points="0 0, 10 3.5, 0 7" fill="#a855f7"/>
    </marker>
    <marker id="arwG" markerWidth="10" markerHeight="7" refX="9" refY="3.5" orient="auto">
      <polygon points="0 0, 10 3.5, 0 7" fill="#22c55e"/>
    </marker>
    <marker id="arwO" markerWidth="10" markerHeight="7" refX="9" refY="3.5" orient="auto">
      <polygon points="0 0, 10 3.5, 0 7" fill="#f59e0b"/>
    </marker>
    <marker id="arwR" markerWidth="10" markerHeight="7" refX="9" refY="3.5" orient="auto">
      <polygon points="0 0, 10 3.5, 0 7" fill="#ef4444"/>
    </marker>
    <marker id="arwB" markerWidth="10" markerHeight="7" refX="9" refY="3.5" orient="auto">
      <polygon points="0 0, 10 3.5, 0 7" fill="#3b82f6"/>
    </marker>
    <marker id="arwN" markerWidth="10" markerHeight="7" refX="9" refY="3.5" orient="auto">
      <polygon points="0 0, 10 3.5, 0 7" fill="#0f172a"/>
    </marker>
  </defs>
  <text x="450" y="28" text-anchor="middle" fill="#06b6d4" font-family="Space Grotesk" font-size="16" font-weight="700">SQL vs Graph: Same Data, Different Model</text>
  <line x1="450" y1="50" x2="450" y2="330" stroke="#cbd5e1" stroke-width="1" stroke-dasharray="4,3"/>
  <text x="225" y="58" text-anchor="middle" fill="#3b82f6" font-family="Space Grotesk" font-size="13" font-weight="700">Relational Model</text>
  <text x="675" y="58" text-anchor="middle" fill="#06b6d4" font-family="Space Grotesk" font-size="13" font-weight="700">Graph Model</text>
  <rect x="40" y="80" width="150" height="60" rx="6" fill="#f8fafc" stroke="#3b82f6" stroke-width="2"/>
  <text x="115" y="102" text-anchor="middle" fill="#3b82f6" font-family="Space Grotesk" font-size="12" font-weight="700">employees</text>
  <text x="115" y="122" text-anchor="middle" fill="#475569" font-family="JetBrains Mono" font-size="9" font-weight="400">id  |  name  |  FK</text>
  <rect x="40" y="175" width="150" height="60" rx="6" fill="#f8fafc" stroke="#3b82f6" stroke-width="2"/>
  <text x="115" y="197" text-anchor="middle" fill="#3b82f6" font-family="Space Grotesk" font-size="12" font-weight="700">departments</text>
  <text x="115" y="217" text-anchor="middle" fill="#475569" font-family="JetBrains Mono" font-size="9" font-weight="400">id  |  name  |  FK</text>
  <rect x="220" y="80" width="150" height="60" rx="6" fill="#f8fafc" stroke="#3b82f6" stroke-width="2"/>
  <text x="295" y="102" text-anchor="middle" fill="#3b82f6" font-family="Space Grotesk" font-size="12" font-weight="700">projects</text>
  <text x="295" y="122" text-anchor="middle" fill="#475569" font-family="JetBrains Mono" font-size="9" font-weight="400">id  |  name  |  FK</text>
  <rect x="220" y="175" width="150" height="60" rx="6" fill="#f8fafc" stroke="#3b82f6" stroke-width="2"/>
  <text x="295" y="197" text-anchor="middle" fill="#3b82f6" font-family="Space Grotesk" font-size="12" font-weight="700">skills</text>
  <text x="295" y="217" text-anchor="middle" fill="#475569" font-family="JetBrains Mono" font-size="9" font-weight="400">id  |  name  |  FK</text>
  <line x1="115" y1="140" x2="115" y2="173" stroke="#3b82f6" stroke-width="2" marker-end="url(#arwB)"/>
  <line x1="220" y1="110" x2="222" y2="110" stroke="#3b82f6" stroke-width="2" marker-end="url(#arwB)"/>
  <line x1="295" y1="140" x2="295" y2="173" stroke="#3b82f6" stroke-width="2" marker-end="url(#arwB)"/>
  <line x1="190" y1="205" x2="222" y2="205" stroke="#3b82f6" stroke-width="2" marker-end="url(#arwB)"/>
  <text x="225" y="290" text-anchor="middle" fill="#475569" font-family="Nunito" font-size="10" font-weight="400">FK constraints + JOINs required</text>
  <circle cx="560" cy="130" r="36" fill="#f8fafc" stroke="#06b6d4" stroke-width="2.5"/>
  <text x="560" y="135" text-anchor="middle" fill="#0f172a" font-family="Space Grotesk" font-size="11" font-weight="700">Person</text>
  <circle cx="700" cy="100" r="36" fill="#f8fafc" stroke="#06b6d4" stroke-width="2.5"/>
  <text x="700" y="105" text-anchor="middle" fill="#0f172a" font-family="Space Grotesk" font-size="11" font-weight="700">Dept</text>
  <circle cx="790" cy="200" r="36" fill="#f8fafc" stroke="#06b6d4" stroke-width="2.5"/>
  <text x="790" y="205" text-anchor="middle" fill="#0f172a" font-family="Space Grotesk" font-size="11" font-weight="700">Project</text>
  <circle cx="620" cy="240" r="36" fill="#f8fafc" stroke="#06b6d4" stroke-width="2.5"/>
  <text x="620" y="245" text-anchor="middle" fill="#0f172a" font-family="Space Grotesk" font-size="11" font-weight="700">Skill</text>
  <line x1="596" y1="118" x2="664" y2="107" stroke="#06b6d4" stroke-width="2" marker-end="url(#arw)"/>
  <rect x="604.4" y="100" width="51.2" height="14" rx="3" fill="white" stroke="#06b6d4" stroke-width="1"/>
  <text x="630" y="110" text-anchor="middle" fill="#06b6d4" font-family="JetBrains Mono" font-size="9" font-weight="400">WORKS_AT</text>
  <line x1="736" y1="118" x2="764" y2="182" stroke="#a855f7" stroke-width="2" marker-end="url(#arwP)"/>
  <rect x="748.4" y="136" width="19.200000000000003" height="14" rx="3" fill="white" stroke="#06b6d4" stroke-width="1"/>
  <text x="758" y="146" text-anchor="middle" fill="#06b6d4" font-family="JetBrains Mono" font-size="9" font-weight="400">HAS</text>
  <line x1="656" y1="240" x2="700" y2="236" stroke="#22c55e" stroke-width="2" marker-end="url(#arwG)"/>
  <rect x="643.2" y="224" width="57.6" height="14" rx="3" fill="white" stroke="#06b6d4" stroke-width="1"/>
  <text x="672" y="234" text-anchor="middle" fill="#06b6d4" font-family="JetBrains Mono" font-size="9" font-weight="400">HAS_SKILL</text>
  <line x1="560" y1="166" x2="600" y2="230" stroke="#f59e0b" stroke-width="2" marker-end="url(#arwO)"/>
  <text x="675" y="290" text-anchor="middle" fill="#06b6d4" font-family="Nunito" font-size="10" font-weight="400">Direct traversal — no JOINs</text>
</svg>