<?xml version="1.0" encoding="UTF-8"?>
<svg viewBox="0 0 900 350" width="900" height="350" xmlns="http://www.w3.org/2000/svg">
  <defs>
    <marker id="arw" markerWidth="10" markerHeight="7" refX="9" refY="3.5" orient="auto">
      <polygon points="0 0, 10 3.5, 0 7" fill="#06b6d4"/>
    </marker>
    <marker id="arwP" markerWidth="10" markerHeight="7" refX="9" refY="3.5" orient="auto">
      <polygon points="0 0, 10 3.5, 0 7" fill="#a855f7"/>
    </marker>
    <marker id="arwG" markerWidth="10" markerHeight="7" refX="9" refY="3.5" orient="auto">
      <polygon points="0 0, 10 3.5, 0 7" fill="#22c55e"/>
    </marker>
    <marker id="arwO" markerWidth="10" markerHeight="7" refX="9" refY="3.5" orient="auto">
      <polygon points="0 0, 10 3.5, 0 7" fill="#f59e0b"/>
    </marker>
    <marker id="arwR" markerWidth="10" markerHeight="7" refX="9" refY="3.5" orient="auto">
      <polygon points="0 0, 10 3.5, 0 7" fill="#ef4444"/>
    </marker>
    <marker id="arwB" markerWidth="10" markerHeight="7" refX="9" refY="3.5" orient="auto">
      <polygon points="0 0, 10 3.5, 0 7" fill="#3b82f6"/>
    </marker>
    <marker id="arwN" markerWidth="10" markerHeight="7" refX="9" refY="3.5" orient="auto">
      <polygon points="0 0, 10 3.5, 0 7" fill="#0f172a"/>
    </marker>
  </defs>
  <text x="450" y="28" text-anchor="middle" fill="#06b6d4" font-family="Space Grotesk" font-size="16" font-weight="700">Same Data: Relational vs Graph Representation</text>
  <line x1="450" y1="48" x2="450" y2="330" stroke="#cbd5e1" stroke-width="1" stroke-dasharray="4,3"/>
  <text x="225" y="58" text-anchor="middle" fill="#3b82f6" font-family="Space Grotesk" font-size="13" font-weight="700">Relational</text>
  <text x="675" y="58" text-anchor="middle" fill="#06b6d4" font-family="Space Grotesk" font-size="13" font-weight="700">Graph</text>
  <rect x="30" y="70" width="390" height="62" rx="6" fill="#f8fafc" stroke="#3b82f6" stroke-width="2"/>
  <text x="225" y="92" text-anchor="middle" fill="#3b82f6" font-family="Space Grotesk" font-size="12" font-weight="700">employees</text>
  <text x="225" y="114" text-anchor="middle" fill="#475569" font-family="JetBrains Mono" font-size="9" font-weight="400">emp_id | name | dept_id</text>
  <rect x="30" y="155" width="390" height="62" rx="6" fill="#f8fafc" stroke="#3b82f6" stroke-width="2"/>
  <text x="225" y="177" text-anchor="middle" fill="#3b82f6" font-family="Space Grotesk" font-size="12" font-weight="700">departments</text>
  <text x="225" y="199" text-anchor="middle" fill="#475569" font-family="JetBrains Mono" font-size="9" font-weight="400">dept_id | dept_name</text>
  <rect x="30" y="235" width="390" height="62" rx="6" fill="#f8fafc" stroke="#3b82f6" stroke-width="2"/>
  <text x="225" y="257" text-anchor="middle" fill="#3b82f6" font-family="Space Grotesk" font-size="12" font-weight="700">projects</text>
  <text x="225" y="279" text-anchor="middle" fill="#475569" font-family="JetBrains Mono" font-size="9" font-weight="400">proj_id | name | dept_id</text>
  <line x1="225" y1="132" x2="225" y2="153" stroke="#3b82f6" stroke-width="2" marker-end="url(#arwB)"/>
  <line x1="225" y1="217" x2="225" y2="233" stroke="#3b82f6" stroke-width="2" marker-end="url(#arwB)"/>
  <circle cx="580" cy="160" r="38" fill="#f8fafc" stroke="#06b6d4" stroke-width="2.5"/>
  <circle cx="730" cy="110" r="38" fill="#f8fafc" stroke="#3b82f6" stroke-width="2.5"/>
  <circle cx="730" cy="240" r="38" fill="#f8fafc" stroke="#a855f7" stroke-width="2.5"/>
  <text x="580" y="165" text-anchor="middle" fill="#0f172a" font-family="Space Grotesk" font-size="11" font-weight="700">Employee</text>
  <text x="730" y="115" text-anchor="middle" fill="#0f172a" font-family="Space Grotesk" font-size="11" font-weight="700">Department</text>
  <text x="730" y="245" text-anchor="middle" fill="#0f172a" font-family="Space Grotesk" font-size="11" font-weight="700">Project</text>
  <line x1="615" y1="145" x2="693" y2="122" stroke="#06b6d4" stroke-width="2" marker-end="url(#arw)"/>
  <rect x="631.6" y="120" width="44.800000000000004" height="14" rx="3" fill="white" stroke="#06b6d4" stroke-width="1"/>
  <text x="654" y="130" text-anchor="middle" fill="#06b6d4" font-family="JetBrains Mono" font-size="9" font-weight="400">IN_DEPT</text>
  <line x1="693" y1="148" x2="621" y2="182" stroke="#a855f7" stroke-width="2" marker-end="url(#arwP)"/>
  <rect x="631.6" y="164" width="44.800000000000004" height="14" rx="3" fill="white" stroke="#06b6d4" stroke-width="1"/>
  <text x="654" y="174" text-anchor="middle" fill="#06b6d4" font-family="JetBrains Mono" font-size="9" font-weight="400">MANAGES</text>
  <line x1="730" y1="148" x2="730" y2="200" stroke="#3b82f6" stroke-width="2" marker-end="url(#arwB)"/>
  <rect x="737.2" y="168" width="25.6" height="14" rx="3" fill="white" stroke="#06b6d4" stroke-width="1"/>
  <text x="750" y="178" text-anchor="middle" fill="#06b6d4" font-family="JetBrains Mono" font-size="9" font-weight="400">OWNS</text>
</svg>