<?xml version="1.0" encoding="UTF-8"?>
<svg viewBox="0 0 900 350" width="900" height="350" xmlns="http://www.w3.org/2000/svg">
  <defs>
    <marker id="arw" markerWidth="10" markerHeight="7" refX="9" refY="3.5" orient="auto">
      <polygon points="0 0, 10 3.5, 0 7" fill="#06b6d4"/>
    </marker>
    <marker id="arwP" markerWidth="10" markerHeight="7" refX="9" refY="3.5" orient="auto">
      <polygon points="0 0, 10 3.5, 0 7" fill="#a855f7"/>
    </marker>
    <marker id="arwG" markerWidth="10" markerHeight="7" refX="9" refY="3.5" orient="auto">
      <polygon points="0 0, 10 3.5, 0 7" fill="#22c55e"/>
    </marker>
    <marker id="arwO" markerWidth="10" markerHeight="7" refX="9" refY="3.5" orient="auto">
      <polygon points="0 0, 10 3.5, 0 7" fill="#f59e0b"/>
    </marker>
    <marker id="arwR" markerWidth="10" markerHeight="7" refX="9" refY="3.5" orient="auto">
      <polygon points="0 0, 10 3.5, 0 7" fill="#ef4444"/>
    </marker>
    <marker id="arwB" markerWidth="10" markerHeight="7" refX="9" refY="3.5" orient="auto">
      <polygon points="0 0, 10 3.5, 0 7" fill="#3b82f6"/>
    </marker>
    <marker id="arwN" markerWidth="10" markerHeight="7" refX="9" refY="3.5" orient="auto">
      <polygon points="0 0, 10 3.5, 0 7" fill="#0f172a"/>
    </marker>
  </defs>
  <text x="450" y="28" text-anchor="middle" fill="#06b6d4" font-family="Space Grotesk" font-size="16" font-weight="700">The Property Graph Model</text>
  <circle cx="150" cy="175" r="52" fill="#f8fafc" stroke="#3b82f6" stroke-width="2.5"/>
  <text x="150" y="167" text-anchor="middle" fill="#3b82f6" font-family="Space Grotesk" font-size="13" font-weight="700">Person</text>
  <text x="150" y="185" text-anchor="middle" fill="#475569" font-family="JetBrains Mono" font-size="9" font-weight="400">name: Alice</text>
  <text x="150" y="199" text-anchor="middle" fill="#475569" font-family="JetBrains Mono" font-size="9" font-weight="400">age: 34</text>
  <circle cx="450" cy="175" r="52" fill="#f8fafc" stroke="#06b6d4" stroke-width="2.5"/>
  <text x="450" y="167" text-anchor="middle" fill="#06b6d4" font-family="Space Grotesk" font-size="13" font-weight="700">Company</text>
  <text x="450" y="185" text-anchor="middle" fill="#475569" font-family="JetBrains Mono" font-size="9" font-weight="400">name: Acme</text>
  <text x="450" y="199" text-anchor="middle" fill="#475569" font-family="JetBrains Mono" font-size="9" font-weight="400">size: 500</text>
  <circle cx="750" cy="175" r="52" fill="#f8fafc" stroke="#a855f7" stroke-width="2.5"/>
  <text x="750" y="167" text-anchor="middle" fill="#a855f7" font-family="Space Grotesk" font-size="13" font-weight="700">Project</text>
  <text x="750" y="185" text-anchor="middle" fill="#475569" font-family="JetBrains Mono" font-size="9" font-weight="400">title: Apollo</text>
  <text x="750" y="199" text-anchor="middle" fill="#475569" font-family="JetBrains Mono" font-size="9" font-weight="400">q: 4</text>
  <line x1="202" y1="175" x2="396" y2="175" stroke="#06b6d4" stroke-width="2" marker-end="url(#arw)"/>
  <rect x="273.4" y="157" width="51.2" height="14" rx="3" fill="white" stroke="#06b6d4" stroke-width="1"/>
  <text x="299" y="167" text-anchor="middle" fill="#06b6d4" font-family="JetBrains Mono" font-size="9" font-weight="400">WORKS_AT</text>
  <text x="299" y="155" text-anchor="middle" fill="#475569" font-family="Nunito" font-size="9" font-weight="400">since: 2021</text>
  <line x1="502" y1="175" x2="696" y2="175" stroke="#a855f7" stroke-width="2" marker-end="url(#arwP)"/>
  <rect x="563.8" y="157" width="70.4" height="14" rx="3" fill="white" stroke="#06b6d4" stroke-width="1"/>
  <text x="599" y="167" text-anchor="middle" fill="#06b6d4" font-family="JetBrains Mono" font-size="9" font-weight="400">HAS_PROJECT</text>
  <text x="599" y="155" text-anchor="middle" fill="#475569" font-family="Nunito" font-size="9" font-weight="400">role: lead</text>
  <circle cx="60" cy="315" r="8" fill="#f8fafc" stroke="#3b82f6" stroke-width="2"/>
  <text x="120" y="319" text-anchor="start" fill="#475569" font-family="Nunito" font-size="10" font-weight="400">Node (label + properties)</text>
  <line x1="250" y1="315" x2="310" y2="315" stroke="#06b6d4" stroke-width="2" marker-end="url(#arw)"/>
  <text x="390" y="319" text-anchor="start" fill="#475569" font-family="Nunito" font-size="10" font-weight="400">Relationship (type + properties)</text>
</svg>