<?xml version="1.0" encoding="UTF-8"?>
<svg viewBox="0 0 900 350" width="900" height="350" xmlns="http://www.w3.org/2000/svg">
  <defs>
    <marker id="arw" markerWidth="10" markerHeight="7" refX="9" refY="3.5" orient="auto">
      <polygon points="0 0, 10 3.5, 0 7" fill="#06b6d4"/>
    </marker>
    <marker id="arwP" markerWidth="10" markerHeight="7" refX="9" refY="3.5" orient="auto">
      <polygon points="0 0, 10 3.5, 0 7" fill="#a855f7"/>
    </marker>
    <marker id="arwG" markerWidth="10" markerHeight="7" refX="9" refY="3.5" orient="auto">
      <polygon points="0 0, 10 3.5, 0 7" fill="#22c55e"/>
    </marker>
    <marker id="arwO" markerWidth="10" markerHeight="7" refX="9" refY="3.5" orient="auto">
      <polygon points="0 0, 10 3.5, 0 7" fill="#f59e0b"/>
    </marker>
    <marker id="arwR" markerWidth="10" markerHeight="7" refX="9" refY="3.5" orient="auto">
      <polygon points="0 0, 10 3.5, 0 7" fill="#ef4444"/>
    </marker>
    <marker id="arwB" markerWidth="10" markerHeight="7" refX="9" refY="3.5" orient="auto">
      <polygon points="0 0, 10 3.5, 0 7" fill="#3b82f6"/>
    </marker>
    <marker id="arwN" markerWidth="10" markerHeight="7" refX="9" refY="3.5" orient="auto">
      <polygon points="0 0, 10 3.5, 0 7" fill="#0f172a"/>
    </marker>
  </defs>
  <text x="450" y="28" text-anchor="middle" fill="#06b6d4" font-family="Space Grotesk" font-size="16" font-weight="700">Vector Search vs Graph Search</text>
  <rect x="375" y="55" width="150" height="44" rx="10" fill="#f8fafc" stroke="#0f172a" stroke-width="2.5"/>
  <text x="450" y="82" text-anchor="middle" fill="#0f172a" font-family="Space Grotesk" font-size="14" font-weight="700">Query</text>
  <rect x="80" y="145" width="160" height="44" rx="8" fill="#f8fafc" stroke="#3b82f6" stroke-width="2"/>
  <text x="160" y="172" text-anchor="middle" fill="#3b82f6" font-family="Space Grotesk" font-size="12" font-weight="700">Embed</text>
  <rect x="80" y="210" width="160" height="44" rx="8" fill="#f8fafc" stroke="#3b82f6" stroke-width="2"/>
  <text x="160" y="237" text-anchor="middle" fill="#3b82f6" font-family="Space Grotesk" font-size="12" font-weight="700">Vector DB</text>
  <rect x="80" y="275" width="160" height="44" rx="8" fill="#f8fafc" stroke="#3b82f6" stroke-width="2"/>
  <text x="160" y="302" text-anchor="middle" fill="#3b82f6" font-family="Space Grotesk" font-size="12" font-weight="700">Similar Docs</text>
  <line x1="160" y1="99" x2="160" y2="143" stroke="#3b82f6" stroke-width="2" marker-end="url(#arwB)"/>
  <line x1="160" y1="189" x2="160" y2="210" stroke="#3b82f6" stroke-width="2" marker-end="url(#arwB)"/>
  <line x1="160" y1="254" x2="160" y2="275" stroke="#3b82f6" stroke-width="2" marker-end="url(#arwB)"/>
  <line x1="375" y1="77" x2="242" y2="147" stroke="#3b82f6" stroke-width="2" marker-end="url(#arwB)"/>
  <text x="160" y="330" text-anchor="middle" fill="#3b82f6" font-family="Space Grotesk" font-size="11" font-weight="700">Semantic Similarity</text>
  <rect x="660" y="145" width="160" height="44" rx="8" fill="#f8fafc" stroke="#06b6d4" stroke-width="2"/>
  <text x="740" y="172" text-anchor="middle" fill="#06b6d4" font-family="Space Grotesk" font-size="12" font-weight="700">Parse</text>
  <rect x="660" y="210" width="160" height="44" rx="8" fill="#f8fafc" stroke="#06b6d4" stroke-width="2"/>
  <text x="740" y="237" text-anchor="middle" fill="#06b6d4" font-family="Space Grotesk" font-size="12" font-weight="700">Graph DB</text>
  <rect x="660" y="275" width="160" height="44" rx="8" fill="#f8fafc" stroke="#06b6d4" stroke-width="2"/>
  <text x="740" y="302" text-anchor="middle" fill="#06b6d4" font-family="Space Grotesk" font-size="12" font-weight="700">Connected Entities</text>
  <line x1="525" y1="77" x2="660" y2="147" stroke="#06b6d4" stroke-width="2" marker-end="url(#arw)"/>
  <line x1="740" y1="189" x2="740" y2="210" stroke="#06b6d4" stroke-width="2" marker-end="url(#arw)"/>
  <line x1="740" y1="254" x2="740" y2="275" stroke="#06b6d4" stroke-width="2" marker-end="url(#arw)"/>
  <text x="740" y="330" text-anchor="middle" fill="#06b6d4" font-family="Space Grotesk" font-size="11" font-weight="700">Structural Context</text>
  <text x="450" y="180" text-anchor="middle" fill="#cbd5e1" font-family="Nunito" font-size="18" font-weight="400">OR</text>
  <text x="450" y="210" text-anchor="middle" fill="#475569" font-family="Nunito" font-size="10" font-weight="400">COMBINE</text>
  <text x="450" y="225" text-anchor="middle" fill="#06b6d4" font-family="Nunito" font-size="10" font-weight="400">for GraphRAG</text>
</svg>