<?xml version="1.0" encoding="UTF-8"?>
<svg viewBox="0 0 900 400" width="900" height="400" xmlns="http://www.w3.org/2000/svg">
  <defs>
    <marker id="arw" markerWidth="10" markerHeight="7" refX="9" refY="3.5" orient="auto">
      <polygon points="0 0, 10 3.5, 0 7" fill="#06b6d4"/>
    </marker>
    <marker id="arwP" markerWidth="10" markerHeight="7" refX="9" refY="3.5" orient="auto">
      <polygon points="0 0, 10 3.5, 0 7" fill="#a855f7"/>
    </marker>
    <marker id="arwG" markerWidth="10" markerHeight="7" refX="9" refY="3.5" orient="auto">
      <polygon points="0 0, 10 3.5, 0 7" fill="#22c55e"/>
    </marker>
    <marker id="arwO" markerWidth="10" markerHeight="7" refX="9" refY="3.5" orient="auto">
      <polygon points="0 0, 10 3.5, 0 7" fill="#f59e0b"/>
    </marker>
    <marker id="arwR" markerWidth="10" markerHeight="7" refX="9" refY="3.5" orient="auto">
      <polygon points="0 0, 10 3.5, 0 7" fill="#ef4444"/>
    </marker>
    <marker id="arwB" markerWidth="10" markerHeight="7" refX="9" refY="3.5" orient="auto">
      <polygon points="0 0, 10 3.5, 0 7" fill="#3b82f6"/>
    </marker>
    <marker id="arwN" markerWidth="10" markerHeight="7" refX="9" refY="3.5" orient="auto">
      <polygon points="0 0, 10 3.5, 0 7" fill="#0f172a"/>
    </marker>
  </defs>
  <text x="450" y="28" text-anchor="middle" fill="#06b6d4" font-family="Space Grotesk" font-size="16" font-weight="700">When to Use a Graph Database: Decision Guide</text>
  <rect x="375" y="55" width="150" height="44" rx="10" fill="#f8fafc" stroke="#0f172a" stroke-width="2"/>
  <text x="450" y="82" text-anchor="middle" fill="#0f172a" font-family="Space Grotesk" font-size="13" font-weight="700">New Project</text>
  <line x1="450" y1="99" x2="450" y2="140" stroke="#0f172a" stroke-width="2" marker-end="url(#arwN)"/>
  <polygon points="450,134 570,168 450,202 330,168" fill="#f8fafc" stroke="#f59e0b" stroke-width="2"/>
  <text x="450" y="172" text-anchor="middle" fill="#f59e0b" font-family="Space Grotesk" font-size="11" font-weight="700">Deep relationships?</text>
  <line x1="570" y1="168" x2="720" y2="168" stroke="#cbd5e1" stroke-width="2" marker-end="url(#arw)"/>
  <text x="644" y="160" text-anchor="middle" fill="#475569" font-family="Nunito" font-size="10" font-weight="400">No</text>
  <rect x="720" y="145" width="150" height="46" rx="8" fill="#f8fafc" stroke="#3b82f6" stroke-width="2"/>
  <text x="795" y="173" text-anchor="middle" fill="#3b82f6" font-family="Space Grotesk" font-size="12" font-weight="700">Stay Relational</text>
  <line x1="450" y1="202" x2="450" y2="250" stroke="#06b6d4" stroke-width="2" marker-end="url(#arw)"/>
  <text x="460" y="232" text-anchor="middle" fill="#06b6d4" font-family="Nunito" font-size="10" font-weight="400">Yes</text>
  <polygon points="450,241 570,275 450,309 330,275" fill="#f8fafc" stroke="#06b6d4" stroke-width="2"/>
  <text x="450" y="279" text-anchor="middle" fill="#06b6d4" font-family="Space Grotesk" font-size="11" font-weight="700">Pattern matching?</text>
  <line x1="570" y1="275" x2="720" y2="275" stroke="#cbd5e1" stroke-width="2" marker-end="url(#arw)"/>
  <text x="644" y="267" text-anchor="middle" fill="#475569" font-family="Nunito" font-size="10" font-weight="400">No</text>
  <rect x="720" y="252" width="150" height="46" rx="8" fill="#f8fafc" stroke="#f59e0b" stroke-width="2"/>
  <text x="795" y="280" text-anchor="middle" fill="#f59e0b" font-family="Space Grotesk" font-size="12" font-weight="700">Consider Graph</text>
  <line x1="450" y1="309" x2="450" y2="350" stroke="#22c55e" stroke-width="2" marker-end="url(#arwG)"/>
  <text x="460" y="336" text-anchor="middle" fill="#22c55e" font-family="Nunito" font-size="10" font-weight="400">Yes</text>
  <rect x="360" y="350" width="180" height="44" rx="8" fill="#dcfce7" stroke="#22c55e" stroke-width="2"/>
  <text x="450" y="377" text-anchor="middle" fill="#22c55e" font-family="Space Grotesk" font-size="14" font-weight="700">Use Graph DB</text>
</svg>