<?xml version="1.0" encoding="UTF-8"?>
<svg viewBox="0 0 900 250" width="900" height="250" xmlns="http://www.w3.org/2000/svg">
  <defs>
    <marker id="arw" markerWidth="10" markerHeight="7" refX="9" refY="3.5" orient="auto">
      <polygon points="0 0, 10 3.5, 0 7" fill="#06b6d4"/>
    </marker>
    <marker id="arwP" markerWidth="10" markerHeight="7" refX="9" refY="3.5" orient="auto">
      <polygon points="0 0, 10 3.5, 0 7" fill="#a855f7"/>
    </marker>
    <marker id="arwG" markerWidth="10" markerHeight="7" refX="9" refY="3.5" orient="auto">
      <polygon points="0 0, 10 3.5, 0 7" fill="#22c55e"/>
    </marker>
    <marker id="arwO" markerWidth="10" markerHeight="7" refX="9" refY="3.5" orient="auto">
      <polygon points="0 0, 10 3.5, 0 7" fill="#f59e0b"/>
    </marker>
    <marker id="arwR" markerWidth="10" markerHeight="7" refX="9" refY="3.5" orient="auto">
      <polygon points="0 0, 10 3.5, 0 7" fill="#ef4444"/>
    </marker>
    <marker id="arwB" markerWidth="10" markerHeight="7" refX="9" refY="3.5" orient="auto">
      <polygon points="0 0, 10 3.5, 0 7" fill="#3b82f6"/>
    </marker>
    <marker id="arwN" markerWidth="10" markerHeight="7" refX="9" refY="3.5" orient="auto">
      <polygon points="0 0, 10 3.5, 0 7" fill="#0f172a"/>
    </marker>
  </defs>
  <text x="450" y="28" text-anchor="middle" fill="#06b6d4" font-family="Space Grotesk" font-size="16" font-weight="700">Iterative Schema Design: Growing the Graph</text>
  <circle cx="110" cy="145" r="40" fill="#f8fafc" stroke="#3b82f6" stroke-width="2.5"/>
  <text x="110" y="139" text-anchor="middle" fill="#3b82f6" font-family="Space Grotesk" font-size="12" font-weight="700">Day 1</text>
  <text x="110" y="156" text-anchor="middle" fill="#475569" font-family="Nunito" font-size="10" font-weight="400">5 types</text>
  <circle cx="285" cy="145" r="52" fill="#f8fafc" stroke="#06b6d4" stroke-width="2.5"/>
  <text x="285" y="139" text-anchor="middle" fill="#06b6d4" font-family="Space Grotesk" font-size="12" font-weight="700">Day 3</text>
  <text x="285" y="156" text-anchor="middle" fill="#475569" font-family="Nunito" font-size="10" font-weight="400">12 types</text>
  <circle cx="510" cy="145" r="64" fill="#f8fafc" stroke="#a855f7" stroke-width="2.5"/>
  <text x="510" y="139" text-anchor="middle" fill="#a855f7" font-family="Space Grotesk" font-size="12" font-weight="700">Day 5</text>
  <text x="510" y="156" text-anchor="middle" fill="#475569" font-family="Nunito" font-size="10" font-weight="400">20 types</text>
  <circle cx="760" cy="145" r="78" fill="#f8fafc" stroke="#22c55e" stroke-width="2.5"/>
  <text x="760" y="139" text-anchor="middle" fill="#22c55e" font-family="Space Grotesk" font-size="12" font-weight="700">Day 7</text>
  <text x="760" y="156" text-anchor="middle" fill="#475569" font-family="Nunito" font-size="10" font-weight="400">Validated</text>
  <text x="760" y="174" text-anchor="middle" fill="#22c55e" font-family="Space Grotesk" font-size="14" font-weight="700">✓</text>
  <line x1="150" y1="145" x2="233" y2="145" stroke="#cbd5e1" stroke-width="2" marker-end="url(#arw)"/>
  <line x1="337" y1="145" x2="446" y2="145" stroke="#cbd5e1" stroke-width="2" marker-end="url(#arw)"/>
  <line x1="574" y1="145" x2="682" y2="145" stroke="#cbd5e1" stroke-width="2" marker-end="url(#arw)"/>
  <text x="450" y="222" text-anchor="middle" fill="#475569" font-family="Nunito" font-size="10" font-weight="400">Start small, add types and relationships incrementally based on query needs</text>
</svg>