<?xml version="1.0" encoding="UTF-8"?>
<svg viewBox="0 0 900 300" width="900" height="300" xmlns="http://www.w3.org/2000/svg">
  <defs>
    <marker id="arw" markerWidth="10" markerHeight="7" refX="9" refY="3.5" orient="auto">
      <polygon points="0 0, 10 3.5, 0 7" fill="#06b6d4"/>
    </marker>
    <marker id="arwP" markerWidth="10" markerHeight="7" refX="9" refY="3.5" orient="auto">
      <polygon points="0 0, 10 3.5, 0 7" fill="#a855f7"/>
    </marker>
    <marker id="arwG" markerWidth="10" markerHeight="7" refX="9" refY="3.5" orient="auto">
      <polygon points="0 0, 10 3.5, 0 7" fill="#22c55e"/>
    </marker>
    <marker id="arwO" markerWidth="10" markerHeight="7" refX="9" refY="3.5" orient="auto">
      <polygon points="0 0, 10 3.5, 0 7" fill="#f59e0b"/>
    </marker>
    <marker id="arwR" markerWidth="10" markerHeight="7" refX="9" refY="3.5" orient="auto">
      <polygon points="0 0, 10 3.5, 0 7" fill="#ef4444"/>
    </marker>
    <marker id="arwB" markerWidth="10" markerHeight="7" refX="9" refY="3.5" orient="auto">
      <polygon points="0 0, 10 3.5, 0 7" fill="#3b82f6"/>
    </marker>
    <marker id="arwN" markerWidth="10" markerHeight="7" refX="9" refY="3.5" orient="auto">
      <polygon points="0 0, 10 3.5, 0 7" fill="#0f172a"/>
    </marker>
  </defs>
  <text x="450" y="28" text-anchor="middle" fill="#06b6d4" font-family="Space Grotesk" font-size="16" font-weight="700">Knowledge Graph Review Workflow</text>
  <rect x="45" y="120" width="120" height="60" rx="8" fill="#f8fafc" stroke="#3b82f6" stroke-width="2"/>
  <text x="105" y="155" text-anchor="middle" fill="#3b82f6" font-family="Space Grotesk" font-size="11" font-weight="700">Extraction</text>
  <line x1="165" y1="150" x2="199" y2="150" stroke="#3b82f6" stroke-width="2" marker-end="url(#arw)"/>
  <rect x="201" y="120" width="120" height="60" rx="8" fill="#f8fafc" stroke="#06b6d4" stroke-width="2"/>
  <text x="261" y="155" text-anchor="middle" fill="#06b6d4" font-family="Space Grotesk" font-size="11" font-weight="700">Auto-check</text>
  <line x1="321" y1="150" x2="355" y2="150" stroke="#06b6d4" stroke-width="2" marker-end="url(#arw)"/>
  <rect x="357" y="120" width="120" height="60" rx="8" fill="#f8fafc" stroke="#f59e0b" stroke-width="2"/>
  <text x="417" y="155" text-anchor="middle" fill="#f59e0b" font-family="Space Grotesk" font-size="11" font-weight="700">Sample</text>
  <line x1="477" y1="150" x2="511" y2="150" stroke="#f59e0b" stroke-width="2" marker-end="url(#arw)"/>
  <rect x="513" y="120" width="120" height="60" rx="8" fill="#f8fafc" stroke="#a855f7" stroke-width="2"/>
  <text x="573" y="155" text-anchor="middle" fill="#a855f7" font-family="Space Grotesk" font-size="11" font-weight="700">Human Review</text>
  <line x1="633" y1="150" x2="667" y2="150" stroke="#a855f7" stroke-width="2" marker-end="url(#arw)"/>
  <rect x="669" y="120" width="120" height="60" rx="8" fill="#f8fafc" stroke="#22c55e" stroke-width="2"/>
  <text x="729" y="155" text-anchor="middle" fill="#22c55e" font-family="Space Grotesk" font-size="11" font-weight="700">Feedback</text>
  <path d="M 729 180 Q 729 230 450 240 Q 105 230 105 180" fill="none" stroke="#22c55e" stroke-width="2" marker-end="url(#arwG)"/>
  <text x="450" y="258" text-anchor="middle" fill="#22c55e" font-family="Nunito" font-size="10" font-weight="400">Continuous improvement loop</text>
</svg>