<?xml version="1.0" encoding="UTF-8"?>
<svg viewBox="0 0 900 250" width="900" height="250" xmlns="http://www.w3.org/2000/svg">
  <defs>
    <marker id="arw" markerWidth="10" markerHeight="7" refX="9" refY="3.5" orient="auto">
      <polygon points="0 0, 10 3.5, 0 7" fill="#06b6d4"/>
    </marker>
    <marker id="arwP" markerWidth="10" markerHeight="7" refX="9" refY="3.5" orient="auto">
      <polygon points="0 0, 10 3.5, 0 7" fill="#a855f7"/>
    </marker>
    <marker id="arwG" markerWidth="10" markerHeight="7" refX="9" refY="3.5" orient="auto">
      <polygon points="0 0, 10 3.5, 0 7" fill="#22c55e"/>
    </marker>
    <marker id="arwO" markerWidth="10" markerHeight="7" refX="9" refY="3.5" orient="auto">
      <polygon points="0 0, 10 3.5, 0 7" fill="#f59e0b"/>
    </marker>
    <marker id="arwR" markerWidth="10" markerHeight="7" refX="9" refY="3.5" orient="auto">
      <polygon points="0 0, 10 3.5, 0 7" fill="#ef4444"/>
    </marker>
    <marker id="arwB" markerWidth="10" markerHeight="7" refX="9" refY="3.5" orient="auto">
      <polygon points="0 0, 10 3.5, 0 7" fill="#3b82f6"/>
    </marker>
    <marker id="arwN" markerWidth="10" markerHeight="7" refX="9" refY="3.5" orient="auto">
      <polygon points="0 0, 10 3.5, 0 7" fill="#0f172a"/>
    </marker>
  </defs>
  <text x="450" y="28" text-anchor="middle" fill="#06b6d4" font-family="Space Grotesk" font-size="16" font-weight="700">Multi-Hop Graph Traversal</text>
  <circle cx="130" cy="125" r="52" fill="#f8fafc" stroke="#3b82f6" stroke-width="2.5"/>
  <text x="130" y="119" text-anchor="middle" fill="#3b82f6" font-family="Space Grotesk" font-size="11" font-weight="700">Manager</text>
  <text x="130" y="135" text-anchor="middle" fill="#475569" font-family="Nunito" font-size="10" font-weight="400">(1)</text>
  <circle cx="360" cy="125" r="52" fill="#f8fafc" stroke="#06b6d4" stroke-width="2.5"/>
  <text x="360" y="119" text-anchor="middle" fill="#06b6d4" font-family="Space Grotesk" font-size="11" font-weight="700">Vendor</text>
  <text x="360" y="135" text-anchor="middle" fill="#475569" font-family="Nunito" font-size="10" font-weight="400">(2)</text>
  <circle cx="590" cy="125" r="52" fill="#f8fafc" stroke="#a855f7" stroke-width="2.5"/>
  <text x="590" y="119" text-anchor="middle" fill="#a855f7" font-family="Space Grotesk" font-size="11" font-weight="700">Component</text>
  <text x="590" y="135" text-anchor="middle" fill="#475569" font-family="Nunito" font-size="10" font-weight="400">(3)</text>
  <circle cx="800" cy="125" r="52" fill="#f8fafc" stroke="#22c55e" stroke-width="2.5"/>
  <text x="800" y="119" text-anchor="middle" fill="#22c55e" font-family="Space Grotesk" font-size="11" font-weight="700">Safety Test</text>
  <text x="800" y="135" text-anchor="middle" fill="#475569" font-family="Nunito" font-size="10" font-weight="400">(4)</text>
  <line x1="182" y1="125" x2="308" y2="125" stroke="#3b82f6" stroke-width="2.5" marker-end="url(#arw)"/>
  <rect x="216.2" y="102" width="57.6" height="14" rx="3" fill="white" stroke="#3b82f6" stroke-width="1"/>
  <text x="245" y="112" text-anchor="middle" fill="#3b82f6" font-family="JetBrains Mono" font-size="9" font-weight="400">CONTRACTS</text>
  <text x="245" y="180" text-anchor="middle" fill="#475569" font-family="Nunito" font-size="10" font-weight="400">hop 1</text>
  <line x1="412" y1="125" x2="538" y2="125" stroke="#06b6d4" stroke-width="2.5" marker-end="url(#arw)"/>
  <rect x="449.4" y="102" width="51.2" height="14" rx="3" fill="white" stroke="#06b6d4" stroke-width="1"/>
  <text x="475" y="112" text-anchor="middle" fill="#06b6d4" font-family="JetBrains Mono" font-size="9" font-weight="400">SUPPLIES</text>
  <text x="475" y="180" text-anchor="middle" fill="#475569" font-family="Nunito" font-size="10" font-weight="400">hop 2</text>
  <line x1="642" y1="125" x2="748" y2="125" stroke="#a855f7" stroke-width="2.5" marker-end="url(#arw)"/>
  <rect x="666.2" y="102" width="57.6" height="14" rx="3" fill="white" stroke="#a855f7" stroke-width="1"/>
  <text x="695" y="112" text-anchor="middle" fill="#a855f7" font-family="JetBrains Mono" font-size="9" font-weight="400">TESTED_BY</text>
  <text x="695" y="180" text-anchor="middle" fill="#475569" font-family="Nunito" font-size="10" font-weight="400">hop 3</text>
  <text x="450" y="220" text-anchor="middle" fill="#06b6d4" font-family="Nunito" font-size="10" font-weight="400">Cypher *1..N syntax traverses any depth in a single query — SQL would require N recursive CTEs</text>
</svg>