<?xml version="1.0" encoding="UTF-8"?>
<svg viewBox="0 0 900 300" width="900" height="300" xmlns="http://www.w3.org/2000/svg">
  <defs>
    <marker id="arw" markerWidth="10" markerHeight="7" refX="9" refY="3.5" orient="auto">
      <polygon points="0 0, 10 3.5, 0 7" fill="#06b6d4"/>
    </marker>
    <marker id="arwT" markerWidth="10" markerHeight="7" refX="9" refY="3.5" orient="auto">
      <polygon points="0 0, 10 3.5, 0 7" fill="#06b6d4"/>
    </marker>
    <marker id="arwO" markerWidth="10" markerHeight="7" refX="9" refY="3.5" orient="auto">
      <polygon points="0 0, 10 3.5, 0 7" fill="#f59e0b"/>
    </marker>
    <marker id="arwR" markerWidth="10" markerHeight="7" refX="9" refY="3.5" orient="auto">
      <polygon points="0 0, 10 3.5, 0 7" fill="#ef4444"/>
    </marker>
    <marker id="arwG" markerWidth="10" markerHeight="7" refX="9" refY="3.5" orient="auto">
      <polygon points="0 0, 10 3.5, 0 7" fill="#22c55e"/>
    </marker>
    <marker id="arwB" markerWidth="10" markerHeight="7" refX="9" refY="3.5" orient="auto">
      <polygon points="0 0, 10 3.5, 0 7" fill="#3b82f6"/>
    </marker>
    <marker id="arwP" markerWidth="10" markerHeight="7" refX="9" refY="3.5" orient="auto">
      <polygon points="0 0, 10 3.5, 0 7" fill="#a855f7"/>
    </marker>
    <marker id="arwDk" markerWidth="10" markerHeight="7" refX="9" refY="3.5" orient="auto">
      <polygon points="0 0, 10 3.5, 0 7" fill="#0f172a"/>
    </marker>
  </defs>
  <rect x="0" y="0" width="900" height="300" fill="#f8fafc"/>
  <text x="450" y="30" text-anchor="middle" fill="#0f172a" font-family="Space Grotesk" font-size="16" font-weight="700">The JOIN Wall — When Queries Become Unmanageable</text>
  <rect x="80" y="55" width="760" height="185" rx="8" fill="#ffffff" stroke="#e2e8f0" stroke-width="1"/>
  <text x="30" y="147.5" text-anchor="middle" fill="#64748b" font-family="Space Grotesk" font-size="11" font-weight="600">Query Time</text>
  <text transform="rotate(-90, 30, 147.5)" x="30" y="151.5" text-anchor="middle" fill="#64748b" font-family="Space Grotesk" font-size="11" font-weight="600">Query Time</text>
  <text x="460" y="263" text-anchor="middle" fill="#64748b" font-family="Nunito" font-size="11" font-weight="400">Number of JOINs</text>
  <rect x="80" y="55" width="255" height="185" rx="0" fill="#f0fdf4" stroke="none"/>
  <rect x="335" y="55" width="135" height="185" rx="0" fill="#fffbeb" stroke="none"/>
  <rect x="470" y="55" width="370" height="185" rx="0" fill="#fff1f2" stroke="none"/>
  <rect x="80" y="55" width="760" height="185" rx="8" fill="none" stroke="#e2e8f0" stroke-width="1"/>
  <line x1="138.46153846153845" y1="240" x2="138.46153846153845" y2="245" stroke="#cbd5e1" stroke-width="1"/>
  <text x="138.46153846153845" y="256" text-anchor="middle" fill="#94a3b8" font-family="JetBrains Mono" font-size="10" font-weight="400">1</text>
  <line x1="196.9230769230769" y1="240" x2="196.9230769230769" y2="245" stroke="#cbd5e1" stroke-width="1"/>
  <text x="196.9230769230769" y="256" text-anchor="middle" fill="#94a3b8" font-family="JetBrains Mono" font-size="10" font-weight="400">2</text>
  <line x1="255.3846153846154" y1="240" x2="255.3846153846154" y2="245" stroke="#cbd5e1" stroke-width="1"/>
  <text x="255.3846153846154" y="256" text-anchor="middle" fill="#94a3b8" font-family="JetBrains Mono" font-size="10" font-weight="400">3</text>
  <line x1="313.8461538461538" y1="240" x2="313.8461538461538" y2="245" stroke="#cbd5e1" stroke-width="1"/>
  <text x="313.8461538461538" y="256" text-anchor="middle" fill="#94a3b8" font-family="JetBrains Mono" font-size="10" font-weight="400">4</text>
  <line x1="372.3076923076923" y1="240" x2="372.3076923076923" y2="245" stroke="#cbd5e1" stroke-width="1"/>
  <text x="372.3076923076923" y="256" text-anchor="middle" fill="#94a3b8" font-family="JetBrains Mono" font-size="10" font-weight="400">5</text>
  <line x1="430.7692307692308" y1="240" x2="430.7692307692308" y2="245" stroke="#cbd5e1" stroke-width="1"/>
  <text x="430.7692307692308" y="256" text-anchor="middle" fill="#94a3b8" font-family="JetBrains Mono" font-size="10" font-weight="400">6</text>
  <line x1="489.2307692307692" y1="240" x2="489.2307692307692" y2="245" stroke="#cbd5e1" stroke-width="1"/>
  <text x="489.2307692307692" y="256" text-anchor="middle" fill="#94a3b8" font-family="JetBrains Mono" font-size="10" font-weight="400">7</text>
  <line x1="547.6923076923076" y1="240" x2="547.6923076923076" y2="245" stroke="#cbd5e1" stroke-width="1"/>
  <text x="547.6923076923076" y="256" text-anchor="middle" fill="#94a3b8" font-family="JetBrains Mono" font-size="10" font-weight="400">8</text>
  <line x1="606.1538461538462" y1="240" x2="606.1538461538462" y2="245" stroke="#cbd5e1" stroke-width="1"/>
  <text x="606.1538461538462" y="256" text-anchor="middle" fill="#94a3b8" font-family="JetBrains Mono" font-size="10" font-weight="400">9</text>
  <line x1="664.6153846153846" y1="240" x2="664.6153846153846" y2="245" stroke="#cbd5e1" stroke-width="1"/>
  <text x="664.6153846153846" y="256" text-anchor="middle" fill="#94a3b8" font-family="JetBrains Mono" font-size="10" font-weight="400">10</text>
  <line x1="723.0769230769231" y1="240" x2="723.0769230769231" y2="245" stroke="#cbd5e1" stroke-width="1"/>
  <text x="723.0769230769231" y="256" text-anchor="middle" fill="#94a3b8" font-family="JetBrains Mono" font-size="10" font-weight="400">11</text>
  <line x1="781.5384615384615" y1="240" x2="781.5384615384615" y2="245" stroke="#cbd5e1" stroke-width="1"/>
  <text x="781.5384615384615" y="256" text-anchor="middle" fill="#94a3b8" font-family="JetBrains Mono" font-size="10" font-weight="400">12</text>
  <polyline points="138.46153846153845,210 196.9230769230769,210 255.3846153846154,210 313.8461538461538,210 372.3076923076923,198 430.7692307692308,182 489.2307692307692,155 547.6923076923076,120 606.1538461538462,90 664.6153846153846,70 723.0769230769231,58 781.5384615384615,52" fill="none" stroke="#0f172a" stroke-width="2.5" stroke-linejoin="round" stroke-linecap="round"/>
  <circle cx="138.46153846153845" cy="210" r="4" fill="#22c55e" stroke="#ffffff" stroke-width="1.5"/>
  <circle cx="196.9230769230769" cy="210" r="4" fill="#22c55e" stroke="#ffffff" stroke-width="1.5"/>
  <circle cx="255.3846153846154" cy="210" r="4" fill="#22c55e" stroke="#ffffff" stroke-width="1.5"/>
  <circle cx="313.8461538461538" cy="210" r="4" fill="#22c55e" stroke="#ffffff" stroke-width="1.5"/>
  <circle cx="372.3076923076923" cy="198" r="4" fill="#f59e0b" stroke="#ffffff" stroke-width="1.5"/>
  <circle cx="430.7692307692308" cy="182" r="4" fill="#f59e0b" stroke="#ffffff" stroke-width="1.5"/>
  <circle cx="489.2307692307692" cy="155" r="4" fill="#ef4444" stroke="#ffffff" stroke-width="1.5"/>
  <circle cx="547.6923076923076" cy="120" r="4" fill="#ef4444" stroke="#ffffff" stroke-width="1.5"/>
  <circle cx="606.1538461538462" cy="90" r="4" fill="#ef4444" stroke="#ffffff" stroke-width="1.5"/>
  <circle cx="664.6153846153846" cy="70" r="4" fill="#ef4444" stroke="#ffffff" stroke-width="1.5"/>
  <circle cx="723.0769230769231" cy="58" r="4" fill="#ef4444" stroke="#ffffff" stroke-width="1.5"/>
  <circle cx="781.5384615384615" cy="52" r="4" fill="#ef4444" stroke="#ffffff" stroke-width="1.5"/>
  <line x1="489.2307692307692" y1="55" x2="489.2307692307692" y2="240" stroke="#ef4444" stroke-width="1.5" stroke-dasharray="5,3"/>
  <rect x="451.2307692307692" y="63" width="76" height="22" rx="6" fill="#fff1f2" stroke="#ef4444" stroke-width="1.5"/>
  <text x="489.2307692307692" y="78" text-anchor="middle" fill="#ef4444" font-family="Space Grotesk" font-size="11" font-weight="700">"The Wall"</text>
  <text x="207" y="230" text-anchor="middle" fill="#16a34a" font-family="Space Grotesk" font-size="10" font-weight="600">Safe Zone (1-4)</text>
  <text x="402" y="230" text-anchor="middle" fill="#d97706" font-family="Space Grotesk" font-size="10" font-weight="600">Caution (5-6)</text>
  <text x="645" y="230" text-anchor="middle" fill="#dc2626" font-family="Space Grotesk" font-size="10" font-weight="600">Danger Zone (7+)</text>
  <text x="450" y="286" text-anchor="middle" fill="#94a3b8" font-family="Nunito" font-size="10" font-weight="400">Beyond 6 JOINs, query optimizer choices become unpredictable and performance collapses</text>
</svg>