<?xml version="1.0" encoding="UTF-8"?>
<svg viewBox="0 0 900 250" width="900" height="250" xmlns="http://www.w3.org/2000/svg">
  <defs>
    <marker id="arw" markerWidth="10" markerHeight="7" refX="9" refY="3.5" orient="auto">
      <polygon points="0 0, 10 3.5, 0 7" fill="#06b6d4"/>
    </marker>
    <marker id="arwT" markerWidth="10" markerHeight="7" refX="9" refY="3.5" orient="auto">
      <polygon points="0 0, 10 3.5, 0 7" fill="#06b6d4"/>
    </marker>
    <marker id="arwO" markerWidth="10" markerHeight="7" refX="9" refY="3.5" orient="auto">
      <polygon points="0 0, 10 3.5, 0 7" fill="#f59e0b"/>
    </marker>
    <marker id="arwR" markerWidth="10" markerHeight="7" refX="9" refY="3.5" orient="auto">
      <polygon points="0 0, 10 3.5, 0 7" fill="#ef4444"/>
    </marker>
    <marker id="arwG" markerWidth="10" markerHeight="7" refX="9" refY="3.5" orient="auto">
      <polygon points="0 0, 10 3.5, 0 7" fill="#22c55e"/>
    </marker>
    <marker id="arwB" markerWidth="10" markerHeight="7" refX="9" refY="3.5" orient="auto">
      <polygon points="0 0, 10 3.5, 0 7" fill="#3b82f6"/>
    </marker>
    <marker id="arwP" markerWidth="10" markerHeight="7" refX="9" refY="3.5" orient="auto">
      <polygon points="0 0, 10 3.5, 0 7" fill="#a855f7"/>
    </marker>
    <marker id="arwDk" markerWidth="10" markerHeight="7" refX="9" refY="3.5" orient="auto">
      <polygon points="0 0, 10 3.5, 0 7" fill="#0f172a"/>
    </marker>
  </defs>
  <rect x="0" y="0" width="900" height="250" fill="#f8fafc"/>
  <text x="450" y="30" text-anchor="middle" fill="#0f172a" font-family="Space Grotesk" font-size="17" font-weight="700">The AI Autonomy Spectrum</text>
  <text x="450" y="50" text-anchor="middle" fill="#64748b" font-family="Nunito" font-size="12" font-weight="400">From deterministic scripts to emergent multi-agent systems</text>
  <rect x="80" y="88" width="185" height="52" fill="#f1f5f9" stroke="#64748b" stroke-width="2"/>
  <rect x="265" y="88" width="185" height="52" fill="#eff6ff" stroke="#3b82f6" stroke-width="2"/>
  <rect x="450" y="88" width="185" height="52" fill="#ecfeff" stroke="#06b6d4" stroke-width="2"/>
  <rect x="635" y="88" width="185" height="52" fill="#faf5ff" stroke="#a855f7" stroke-width="2"/>
  <rect x="80" y="88" width="12" height="52" rx="0" fill="#f1f5f9"/>
  <rect x="808" y="88" width="12" height="52" rx="0" fill="#faf5ff"/>
  <rect x="80" y="88" width="740" height="52" rx="12" fill="none" stroke="#e2e8f0" stroke-width="2"/>
  <text x="172.5" y="110" text-anchor="middle" fill="#64748b" font-family="Space Grotesk" font-size="14" font-weight="700">Scripts</text>
  <text x="172.5" y="125" text-anchor="middle" fill="#64748b" font-family="Nunito" font-size="9" font-weight="400">Hard-coded logic</text>
  <text x="172.5" y="137" text-anchor="middle" fill="#64748b" font-family="Nunito" font-size="9" font-weight="400">No AI reasoning</text>
  <text x="357.5" y="110" text-anchor="middle" fill="#3b82f6" font-family="Space Grotesk" font-size="14" font-weight="700">Chains</text>
  <text x="357.5" y="125" text-anchor="middle" fill="#3b82f6" font-family="Nunito" font-size="9" font-weight="400">LLM calls in</text>
  <text x="357.5" y="137" text-anchor="middle" fill="#3b82f6" font-family="Nunito" font-size="9" font-weight="400">fixed sequence</text>
  <text x="542.5" y="110" text-anchor="middle" fill="#06b6d4" font-family="Space Grotesk" font-size="14" font-weight="700">Agents</text>
  <text x="542.5" y="125" text-anchor="middle" fill="#06b6d4" font-family="Nunito" font-size="9" font-weight="400">Tool use and</text>
  <text x="542.5" y="137" text-anchor="middle" fill="#06b6d4" font-family="Nunito" font-size="9" font-weight="400">dynamic planning</text>
  <text x="727.5" y="110" text-anchor="middle" fill="#a855f7" font-family="Space Grotesk" font-size="14" font-weight="700">Multi-Agent</text>
  <text x="727.5" y="125" text-anchor="middle" fill="#a855f7" font-family="Nunito" font-size="9" font-weight="400">Emergent behavior</text>
  <text x="727.5" y="137" text-anchor="middle" fill="#a855f7" font-family="Nunito" font-size="9" font-weight="400">between agents</text>
  <line x1="265" y1="88" x2="265" y2="140" stroke="#64748b40" stroke-width="2"/>
  <line x1="450" y1="88" x2="450" y2="140" stroke="#3b82f640" stroke-width="2"/>
  <line x1="635" y1="88" x2="635" y2="140" stroke="#06b6d440" stroke-width="2"/>
  <line x1="80" y1="73" x2="820" y2="73" stroke="#94a3b8" stroke-width="1.5" marker-end="url(#arw)"/>
  <text x="450" y="69" text-anchor="middle" fill="#94a3b8" font-family="Nunito" font-size="10" font-weight="400">Increasing Cost and Complexity</text>
  <text x="172.5" y="160" text-anchor="middle" fill="#64748b" font-family="Nunito" font-size="10" font-weight="400">Predictable</text>
  <text x="172.5" y="174" text-anchor="middle" fill="#64748b" font-family="Nunito" font-size="10" font-weight="400">Debuggable</text>
  <text x="357.5" y="160" text-anchor="middle" fill="#3b82f6" font-family="Nunito" font-size="10" font-weight="400">Composable</text>
  <text x="357.5" y="174" text-anchor="middle" fill="#3b82f6" font-family="Nunito" font-size="10" font-weight="400">Testable</text>
  <text x="542.5" y="160" text-anchor="middle" fill="#06b6d4" font-family="Nunito" font-size="10" font-weight="400">Flexible</text>
  <text x="542.5" y="174" text-anchor="middle" fill="#06b6d4" font-family="Nunito" font-size="10" font-weight="400">Goal-driven</text>
  <text x="727.5" y="160" text-anchor="middle" fill="#a855f7" font-family="Nunito" font-size="10" font-weight="400">Powerful</text>
  <text x="727.5" y="174" text-anchor="middle" fill="#a855f7" font-family="Nunito" font-size="10" font-weight="400">Unpredictable</text>
  <rect x="122.5" y="186" width="100" height="22" rx="6" fill="#64748b20" stroke="#64748b" stroke-width="1"/>
  <text x="172.5" y="201" text-anchor="middle" fill="#64748b" font-family="JetBrains Mono" font-size="9" font-weight="400">ETL / Rules</text>
  <rect x="307.5" y="186" width="100" height="22" rx="6" fill="#3b82f620" stroke="#3b82f6" stroke-width="1"/>
  <text x="357.5" y="201" text-anchor="middle" fill="#3b82f6" font-family="JetBrains Mono" font-size="9" font-weight="400">RAG / Q&amp;A</text>
  <rect x="492.5" y="186" width="100" height="22" rx="6" fill="#06b6d420" stroke="#06b6d4" stroke-width="1"/>
  <text x="542.5" y="201" text-anchor="middle" fill="#06b6d4" font-family="JetBrains Mono" font-size="9" font-weight="400">Copilots</text>
  <rect x="677.5" y="186" width="100" height="22" rx="6" fill="#a855f720" stroke="#a855f7" stroke-width="1"/>
  <text x="727.5" y="201" text-anchor="middle" fill="#a855f7" font-family="JetBrains Mono" font-size="9" font-weight="400">Research / Ops</text>
  <text x="450" y="238" text-anchor="middle" fill="#94a3b8" font-family="Nunito" font-size="10" font-weight="400">Match autonomy level to task complexity, risk tolerance, and explainability requirements</text>
</svg>