<?xml version="1.0" encoding="UTF-8"?>
<svg xmlns="http://www.w3.org/2000/svg" width="600" height="800" viewBox="0 0 600 800">
  <defs>
    <radialGradient id="bgGlow-ea" cx="50%" cy="55%" r="55%">
      <stop offset="0%" stop-color="#1a1a3e" stop-opacity="1"/>
      <stop offset="100%" stop-color="#060d1a" stop-opacity="1"/>
    </radialGradient>
    <radialGradient id="heroGlow-ea" cx="50%" cy="50%" r="50%">
      <stop offset="0%" stop-color="#a855f7" stop-opacity="0.20"/>
      <stop offset="100%" stop-color="#060d1a" stop-opacity="0"/>
    </radialGradient>
  </defs>

  <rect width="600" height="800" fill="url(#bgGlow-ea)"/>
  <rect width="600" height="200" fill="#060d1a" opacity="0.35"/>

  <!-- Blueprint grid (subtle) -->
  <line x1="0" y1="300" x2="600" y2="300" stroke="#1e1e4a" stroke-width="0.8"/>
  <line x1="0" y1="400" x2="600" y2="400" stroke="#1e1e4a" stroke-width="0.8"/>
  <line x1="0" y1="500" x2="600" y2="500" stroke="#1e1e4a" stroke-width="0.8"/>
  <line x1="0" y1="600" x2="600" y2="600" stroke="#1e1e4a" stroke-width="0.8"/>
  <line x1="150" y1="270" x2="150" y2="680" stroke="#1e1e4a" stroke-width="0.8"/>
  <line x1="300" y1="270" x2="300" y2="680" stroke="#1e1e4a" stroke-width="0.8"/>
  <line x1="450" y1="270" x2="450" y2="680" stroke="#1e1e4a" stroke-width="0.8"/>

  <!-- Wordmark -->
  <text x="190" y="52" font-family="Inter, 'Helvetica Neue', Arial, sans-serif" font-size="26" font-weight="700" fill="white" letter-spacing="-0.5">Legacy</text>
  <text x="280" y="52" font-family="Inter, 'Helvetica Neue', Arial, sans-serif" font-size="26" font-weight="700" fill="#2dd4bf" letter-spacing="-0.5">Forward</text>
  <rect x="385" y="34" width="32" height="20" rx="4" fill="#14b8a6"/>
  <text x="394" y="49" font-family="Inter, 'Helvetica Neue', Arial, sans-serif" font-size="11" font-weight="700" fill="white">AI</text>

  <!-- Title -->
  <text x="300" y="118" font-family="'Helvetica Neue', Helvetica, Arial, sans-serif" font-size="58" font-weight="900" fill="white" text-anchor="middle" letter-spacing="-1">THE AI-FIRST</text>
  <text x="300" y="180" font-family="'Helvetica Neue', Helvetica, Arial, sans-serif" font-size="58" font-weight="900" fill="#c084fc" text-anchor="middle" letter-spacing="-1">ENTERPRISE</text>
  <line x1="160" y1="193" x2="440" y2="193" stroke="#a855f7" stroke-width="2.5" stroke-linecap="round"/>

  <!-- Subtitle -->
  <text x="300" y="222" font-family="'Helvetica Neue', Helvetica, Arial, sans-serif" font-size="16" font-weight="400" fill="#93c5fd" text-anchor="middle" letter-spacing="0.5">An Architect's Guide to AI Transformation</text>
  <text x="300" y="245" font-family="'Helvetica Neue', Helvetica, Arial, sans-serif" font-size="13" fill="#64748b" text-anchor="middle" letter-spacing="0.3">Design the systems AI will run on</text>

  <!-- Hero glow -->
  <ellipse cx="300" cy="490" rx="250" ry="170" fill="url(#heroGlow-ea)"/>

  <!-- Architecture diagram: nested tier boxes -->

  <!-- Tier 4: Cloud Platform (outermost) -->
  <rect x="70" y="280" width="460" height="340" rx="8" fill="none" stroke="#a855f7" stroke-width="1.5" stroke-dasharray="6,3" opacity="0.6"/>
  <text x="86" y="298" font-family="'Helvetica Neue', Arial, sans-serif" font-size="8" font-weight="700" fill="#a855f7" letter-spacing="1.5" opacity="0.8">CLOUD PLATFORM</text>
  <!-- Hex corner marks -->
  <polygon points="70,280 82,280 76,291" fill="#a855f7" opacity="0.4"/>
  <polygon points="530,280 518,280 524,291" fill="#a855f7" opacity="0.4"/>
  <polygon points="70,620 82,620 76,609" fill="#a855f7" opacity="0.4"/>
  <polygon points="530,620 518,620 524,609" fill="#a855f7" opacity="0.4"/>

  <!-- Tier 3: Integration -->
  <rect x="105" y="310" width="390" height="274" rx="6" fill="none" stroke="#6366f1" stroke-width="1.2" stroke-dasharray="5,3" opacity="0.6"/>
  <text x="120" y="328" font-family="'Helvetica Neue', Arial, sans-serif" font-size="8" font-weight="700" fill="#818cf8" letter-spacing="1.5" opacity="0.8">INTEGRATION &amp; DATA</text>

  <!-- Tier 2: Application -->
  <rect x="140" y="342" width="320" height="206" rx="5" fill="none" stroke="#3b82f6" stroke-width="1.2" stroke-dasharray="4,3" opacity="0.6"/>
  <text x="155" y="360" font-family="'Helvetica Neue', Arial, sans-serif" font-size="8" font-weight="700" fill="#60a5fa" letter-spacing="1.5" opacity="0.8">APPLICATION LAYER</text>

  <!-- Tier 1: AI Core (innermost, glowing) -->
  <rect x="180" y="374" width="240" height="138" rx="6" fill="#1a0a2e" stroke="#a855f7" stroke-width="2" opacity="0.95"/>
  <rect x="180" y="374" width="240" height="138" rx="6" fill="#a855f7" opacity="0.08"/>
  <text x="300" y="398" font-family="'Helvetica Neue', Arial, sans-serif" font-size="9" font-weight="700" fill="#c084fc" text-anchor="middle" letter-spacing="2">AI CORE</text>

  <!-- AI components inside core -->
  <rect x="196" y="406" width="64" height="28" rx="4" fill="#2d1a4a" stroke="#a855f7" stroke-width="1" opacity="0.9"/>
  <text x="228" y="424" font-family="'Helvetica Neue', Arial, sans-serif" font-size="8" fill="#c084fc" text-anchor="middle">LLM / FM</text>

  <rect x="268" y="406" width="64" height="28" rx="4" fill="#2d1a4a" stroke="#a855f7" stroke-width="1" opacity="0.9"/>
  <text x="300" y="424" font-family="'Helvetica Neue', Arial, sans-serif" font-size="8" fill="#c084fc" text-anchor="middle">Agents</text>

  <rect x="340" y="406" width="64" height="28" rx="4" fill="#2d1a4a" stroke="#a855f7" stroke-width="1" opacity="0.9"/>
  <text x="372" y="424" font-family="'Helvetica Neue', Arial, sans-serif" font-size="8" fill="#c084fc" text-anchor="middle">RAG / KB</text>

  <!-- Vector store bottom row -->
  <rect x="232" y="442" width="64" height="28" rx="4" fill="#2d1a4a" stroke="#6366f1" stroke-width="1" opacity="0.8"/>
  <text x="264" y="460" font-family="'Helvetica Neue', Arial, sans-serif" font-size="8" fill="#818cf8" text-anchor="middle">Vector DB</text>
  <rect x="304" y="442" width="64" height="28" rx="4" fill="#2d1a4a" stroke="#6366f1" stroke-width="1" opacity="0.8"/>
  <text x="336" y="460" font-family="'Helvetica Neue', Arial, sans-serif" font-size="8" fill="#818cf8" text-anchor="middle">MLOps</text>

  <!-- Glow pulse on AI core center -->
  <circle cx="300" cy="456" r="16" fill="none" stroke="#a855f7" stroke-width="1" opacity="0.3"/>
  <circle cx="300" cy="456" r="28" fill="none" stroke="#a855f7" stroke-width="0.6" opacity="0.15"/>

  <!-- Connector lines outward -->
  <line x1="300" y1="374" x2="300" y2="342" stroke="#a855f7" stroke-width="1" stroke-dasharray="3,2" opacity="0.4"/>
  <line x1="180" y1="443" x2="140" y2="443" stroke="#3b82f6" stroke-width="1" stroke-dasharray="3,2" opacity="0.4"/>
  <line x1="420" y1="443" x2="460" y2="443" stroke="#3b82f6" stroke-width="1" stroke-dasharray="3,2" opacity="0.4"/>
  <line x1="300" y1="512" x2="300" y2="548" stroke="#6366f1" stroke-width="1" stroke-dasharray="3,2" opacity="0.4"/>

  <!-- Side component nodes -->
  <rect x="68" y="430" width="64" height="26" rx="4" fill="#0f1a2e" stroke="#3b82f6" stroke-width="1" opacity="0.8"/>
  <text x="100" y="447" font-family="'Helvetica Neue', Arial, sans-serif" font-size="7.5" fill="#60a5fa" text-anchor="middle">Legacy ERP</text>
  <rect x="468" y="430" width="64" height="26" rx="4" fill="#0f1a2e" stroke="#3b82f6" stroke-width="1" opacity="0.8"/>
  <text x="500" y="447" font-family="'Helvetica Neue', Arial, sans-serif" font-size="7.5" fill="#60a5fa" text-anchor="middle">Data Lake</text>
  <rect x="240" y="556" width="120" height="26" rx="4" fill="#0f1a2e" stroke="#6366f1" stroke-width="1" opacity="0.8"/>
  <text x="300" y="573" font-family="'Helvetica Neue', Arial, sans-serif" font-size="7.5" fill="#818cf8" text-anchor="middle">Governance / MLOps</text>

  <!-- Footer -->
  <line x1="60" y1="690" x2="540" y2="690" stroke="#1e3a5f" stroke-width="1"/>
  <text x="300" y="722" font-family="'Helvetica Neue', Helvetica, Arial, sans-serif" font-size="15" font-weight="500" fill="#cbd5e1" text-anchor="middle" letter-spacing="1">By: Samira &amp; Rajesh Verma</text>
  <text x="300" y="752" font-family="'Helvetica Neue', Helvetica, Arial, sans-serif" font-size="10" fill="#475569" text-anchor="middle" letter-spacing="0.2em">THE LEGACYFORWARD.AI SERIES · BOOK 4 OF 7</text>
</svg>
