<?xml version="1.0" encoding="UTF-8"?>
<svg xmlns="http://www.w3.org/2000/svg" width="600" height="800" viewBox="0 0 600 800">

  <!-- ── BACKGROUND ── -->
  <defs>
    <radialGradient id="bgGlow" cx="50%" cy="55%" r="55%">
      <stop offset="0%" stop-color="#1a3a5c" stop-opacity="1"/>
      <stop offset="100%" stop-color="#060d1a" stop-opacity="1"/>
    </radialGradient>
    <radialGradient id="heroGlow" cx="50%" cy="50%" r="50%">
      <stop offset="0%" stop-color="#1e6fa8" stop-opacity="0.35"/>
      <stop offset="100%" stop-color="#060d1a" stop-opacity="0"/>
    </radialGradient>
    <radialGradient id="handGlow" cx="50%" cy="50%" r="50%">
      <stop offset="0%" stop-color="#14b8a6" stop-opacity="0.18"/>
      <stop offset="100%" stop-color="#060d1a" stop-opacity="0"/>
    </radialGradient>
  </defs>

  <rect width="600" height="800" fill="url(#bgGlow)"/>
  <rect width="600" height="200" fill="#060d1a" opacity="0.35"/>

  <!-- ── WORDMARK TOP CENTER ── -->
  <!-- Centered group: Legacy + Forward + AI badge, total ~260px wide, centered at x=300 -->
  <text x="190" y="52" font-family="Inter, 'Helvetica Neue', Arial, sans-serif" font-size="26" font-weight="700" fill="white" letter-spacing="-0.5">Legacy</text>
  <text x="280" y="52" font-family="Inter, 'Helvetica Neue', Arial, sans-serif" font-size="26" font-weight="700" fill="#2dd4bf" letter-spacing="-0.5">Forward</text>
  <!-- AI badge, immediately after Forward -->
  <rect x="385" y="34" width="32" height="20" rx="4" fill="#14b8a6"/>
  <text x="394" y="49" font-family="Inter, 'Helvetica Neue', Arial, sans-serif" font-size="11" font-weight="700" fill="white">AI</text>

  <!-- ── TITLE ── -->
  <text x="300" y="118" font-family="'Helvetica Neue', Helvetica, Arial, sans-serif" font-size="58" font-weight="900" fill="white" text-anchor="middle" letter-spacing="-1">AI FOR</text>
  <text x="300" y="180" font-family="'Helvetica Neue', Helvetica, Arial, sans-serif" font-size="58" font-weight="900" fill="white" text-anchor="middle" letter-spacing="-1">BUSINESS</text>
  <text x="300" y="242" font-family="'Helvetica Neue', Helvetica, Arial, sans-serif" font-size="58" font-weight="900" fill="white" text-anchor="middle" letter-spacing="-1">LEADERS</text>

  <!-- Title underline accent -->
  <line x1="180" y1="255" x2="420" y2="255" stroke="#14b8a6" stroke-width="2.5" stroke-linecap="round"/>

  <!-- ── SUBTITLE ── -->
  <text x="300" y="285" font-family="'Helvetica Neue', Helvetica, Arial, sans-serif" font-size="16" font-weight="400" fill="#93c5fd" text-anchor="middle" letter-spacing="0.5">The C-Suite's Playbook for AI Transformation</text>

  <!-- ── HERO ILLUSTRATION ── -->
  <ellipse cx="300" cy="500" rx="220" ry="160" fill="url(#heroGlow)"/>
  <ellipse cx="300" cy="500" rx="140" ry="100" fill="url(#handGlow)"/>

  <!-- Chess board -->
  <g transform="translate(160, 380)">
    <ellipse cx="140" cy="132" rx="138" ry="20" fill="#0a1628" opacity="0.6"/>

    <!-- Row 1 -->
    <rect x="35"  y="40"  width="30" height="30" fill="#1e3a5c" opacity="0.9"/>
    <rect x="65"  y="40"  width="30" height="30" fill="#0f2239" opacity="0.9"/>
    <rect x="95"  y="40"  width="30" height="30" fill="#1e3a5c" opacity="0.9"/>
    <rect x="125" y="40"  width="30" height="30" fill="#0f2239" opacity="0.9"/>
    <rect x="155" y="40"  width="30" height="30" fill="#1e3a5c" opacity="0.9"/>
    <rect x="185" y="40"  width="30" height="30" fill="#0f2239" opacity="0.9"/>
    <rect x="215" y="40"  width="30" height="30" fill="#1e3a5c" opacity="0.9"/>
    <rect x="245" y="40"  width="30" height="30" fill="#0f2239" opacity="0.9"/>
    <!-- Row 2 -->
    <rect x="35"  y="70"  width="30" height="30" fill="#0f2239" opacity="0.9"/>
    <rect x="65"  y="70"  width="30" height="30" fill="#1e3a5c" opacity="0.9"/>
    <rect x="95"  y="70"  width="30" height="30" fill="#0f2239" opacity="0.9"/>
    <rect x="125" y="70"  width="30" height="30" fill="#1e3a5c" opacity="0.9"/>
    <rect x="155" y="70"  width="30" height="30" fill="#0f2239" opacity="0.9"/>
    <rect x="185" y="70"  width="30" height="30" fill="#1e3a5c" opacity="0.9"/>
    <rect x="215" y="70"  width="30" height="30" fill="#0f2239" opacity="0.9"/>
    <rect x="245" y="70"  width="30" height="30" fill="#1e3a5c" opacity="0.9"/>
    <!-- Row 3 -->
    <rect x="35"  y="100" width="30" height="30" fill="#1e3a5c" opacity="0.9"/>
    <rect x="65"  y="100" width="30" height="30" fill="#0f2239" opacity="0.9"/>
    <rect x="95"  y="100" width="30" height="30" fill="#1e3a5c" opacity="0.9"/>
    <rect x="125" y="100" width="30" height="30" fill="#0f2239" opacity="0.9"/>
    <rect x="155" y="100" width="30" height="30" fill="#1e3a5c" opacity="0.9"/>
    <rect x="185" y="100" width="30" height="30" fill="#0f2239" opacity="0.9"/>
    <rect x="215" y="100" width="30" height="30" fill="#1e3a5c" opacity="0.9"/>
    <rect x="245" y="100" width="30" height="30" fill="#0f2239" opacity="0.9"/>
    <!-- Row 4 -->
    <rect x="35"  y="130" width="30" height="30" fill="#0f2239" opacity="0.9"/>
    <rect x="65"  y="130" width="30" height="30" fill="#1e3a5c" opacity="0.9"/>
    <rect x="95"  y="130" width="30" height="30" fill="#0f2239" opacity="0.9"/>
    <rect x="125" y="130" width="30" height="30" fill="#1e3a5c" opacity="0.9"/>
    <rect x="155" y="130" width="30" height="30" fill="#0f2239" opacity="0.9"/>
    <rect x="185" y="130" width="30" height="30" fill="#1e3a5c" opacity="0.9"/>
    <rect x="215" y="130" width="30" height="30" fill="#0f2239" opacity="0.9"/>
    <rect x="245" y="130" width="30" height="30" fill="#1e3a5c" opacity="0.9"/>

    <rect x="35" y="40" width="240" height="120" fill="none" stroke="#1e6fa8" stroke-width="1.5" opacity="0.6"/>

    <!-- King -->
    <g transform="translate(200,55)">
      <ellipse cx="15" cy="58" rx="14" ry="5" fill="#0a1628" opacity="0.5"/>
      <rect x="6" y="48" width="18" height="8" rx="2" fill="#1e6fa8"/>
      <rect x="9" y="28" width="12" height="22" rx="3" fill="#2d8fd4"/>
      <rect x="11" y="22" width="8" height="8" rx="2" fill="#2d8fd4"/>
      <rect x="12" y="8" width="6" height="16" rx="1.5" fill="#14b8a6"/>
      <rect x="8"  y="12" width="14" height="6" rx="1.5" fill="#14b8a6"/>
      <circle cx="15" cy="10" r="3" fill="white" opacity="0.7"/>
    </g>

    <!-- Queen -->
    <g transform="translate(95,55)">
      <ellipse cx="15" cy="58" rx="14" ry="5" fill="#0a1628" opacity="0.5"/>
      <rect x="6" y="46" width="18" height="10" rx="2" fill="#1e3a8a"/>
      <rect x="9" y="26" width="12" height="22" rx="3" fill="#3b5bdb"/>
      <ellipse cx="15" cy="24" rx="8" ry="6" fill="#3b5bdb"/>
      <circle cx="15" cy="18" r="5" fill="#6172f3"/>
      <circle cx="15" cy="18" r="2.5" fill="white" opacity="0.6"/>
    </g>

    <!-- Rook -->
    <g transform="translate(50,40)">
      <ellipse cx="12" cy="52" rx="11" ry="4" fill="#0a1628" opacity="0.4"/>
      <rect x="3" y="40" width="18" height="10" rx="1" fill="#1e3a5c"/>
      <rect x="5" y="20" width="14" height="22" rx="2" fill="#2563eb" opacity="0.8"/>
      <rect x="4"  y="14" width="5" height="8" rx="1" fill="#2563eb" opacity="0.8"/>
      <rect x="12" y="14" width="5" height="8" rx="1" fill="#2563eb" opacity="0.8"/>
    </g>

    <!-- Knight -->
    <g transform="translate(215,40)">
      <ellipse cx="14" cy="55" rx="13" ry="4" fill="#0a1628" opacity="0.4"/>
      <rect x="5" y="43" width="18" height="10" rx="2" fill="#1e3a5c"/>
      <rect x="8" y="26" width="10" height="20" rx="3" fill="#1d4ed8" opacity="0.8"/>
      <ellipse cx="16" cy="20" rx="9" ry="10" fill="#1d4ed8" opacity="0.8"/>
      <ellipse cx="19" cy="12" rx="5" ry="7" fill="#2563eb" opacity="0.8"/>
      <circle cx="21" cy="10" r="2" fill="white" opacity="0.5"/>
    </g>

    <line x1="215" y1="84" x2="110" y2="84" stroke="#14b8a6" stroke-width="1" opacity="0.3" stroke-dasharray="4,3"/>
    <line x1="215" y1="84" x2="228" y2="68" stroke="#14b8a6" stroke-width="1" opacity="0.25" stroke-dasharray="4,3"/>
  </g>

  <!-- Floating network nodes -->
  <circle cx="200" cy="370" r="4" fill="#14b8a6" opacity="0.7"/>
  <circle cx="300" cy="355" r="6" fill="#14b8a6" opacity="0.9"/>
  <circle cx="400" cy="370" r="4" fill="#14b8a6" opacity="0.7"/>
  <circle cx="155" cy="395" r="3" fill="#93c5fd" opacity="0.5"/>
  <circle cx="445" cy="395" r="3" fill="#93c5fd" opacity="0.5"/>
  <line x1="200" y1="370" x2="300" y2="355" stroke="#14b8a6" stroke-width="1" opacity="0.4"/>
  <line x1="300" y1="355" x2="400" y2="370" stroke="#14b8a6" stroke-width="1" opacity="0.4"/>
  <line x1="155" y1="395" x2="200" y2="370" stroke="#93c5fd" stroke-width="0.8" opacity="0.3"/>
  <line x1="400" y1="370" x2="445" y2="395" stroke="#93c5fd" stroke-width="0.8" opacity="0.3"/>
  <circle cx="300" cy="355" r="12" fill="none" stroke="#14b8a6" stroke-width="0.8" opacity="0.4"/>
  <circle cx="300" cy="355" r="20" fill="none" stroke="#14b8a6" stroke-width="0.5" opacity="0.2"/>

  <!-- ── FOOTER ── -->
  <line x1="60" y1="690" x2="540" y2="690" stroke="#1e3a5f" stroke-width="1"/>

  <text x="300" y="722" font-family="'Helvetica Neue', Helvetica, Arial, sans-serif" font-size="15" font-weight="500" fill="#cbd5e1" text-anchor="middle" letter-spacing="1">By: Samira &amp; Rajesh Verma</text>

  <text x="300" y="752" font-family="'Helvetica Neue', Helvetica, Arial, sans-serif" font-size="10" fill="#475569" text-anchor="middle" letter-spacing="0.2em">THE LEGACYFORWARD.AI SERIES · BOOK 1 OF 7</text>

</svg>
