<?xml version="1.0" encoding="UTF-8"?>
<svg xmlns="http://www.w3.org/2000/svg" width="600" height="800" viewBox="0 0 600 800">
  <defs>
    <radialGradient id="bgGlow-eit" cx="50%" cy="55%" r="55%">
      <stop offset="0%" stop-color="#1a3a5c" stop-opacity="1"/>
      <stop offset="100%" stop-color="#060d1a" stop-opacity="1"/>
    </radialGradient>
    <radialGradient id="heroGlow-eit" cx="50%" cy="50%" r="50%">
      <stop offset="0%" stop-color="#f59e0b" stop-opacity="0.20"/>
      <stop offset="100%" stop-color="#060d1a" stop-opacity="0"/>
    </radialGradient>
    <radialGradient id="stackGlow-eit" cx="50%" cy="80%" r="60%">
      <stop offset="0%" stop-color="#14b8a6" stop-opacity="0.22"/>
      <stop offset="100%" stop-color="#060d1a" stop-opacity="0"/>
    </radialGradient>
  </defs>

  <rect width="600" height="800" fill="url(#bgGlow-eit)"/>
  <rect width="600" height="200" fill="#060d1a" opacity="0.35"/>

  <!-- Circuit trace background lines -->
  <polyline points="0,220 60,220 60,280 130,280" fill="none" stroke="#f59e0b" stroke-width="1" opacity="0.10"/>
  <polyline points="600,400 530,400 530,460 460,460" fill="none" stroke="#14b8a6" stroke-width="1" opacity="0.10"/>
  <polyline points="0,520 80,520 80,580 160,580" fill="none" stroke="#f59e0b" stroke-width="1" opacity="0.08"/>
  <circle cx="60" cy="220" r="3" fill="#f59e0b" opacity="0.15"/>
  <circle cx="60" cy="280" r="3" fill="#f59e0b" opacity="0.15"/>
  <circle cx="530" cy="400" r="3" fill="#14b8a6" opacity="0.15"/>
  <circle cx="530" cy="460" r="3" fill="#14b8a6" opacity="0.15"/>

  <!-- Wordmark -->
  <text x="190" y="52" font-family="Inter, 'Helvetica Neue', Arial, sans-serif" font-size="26" font-weight="700" fill="white" letter-spacing="-0.5">Legacy</text>
  <text x="280" y="52" font-family="Inter, 'Helvetica Neue', Arial, sans-serif" font-size="26" font-weight="700" fill="#2dd4bf" letter-spacing="-0.5">Forward</text>
  <rect x="385" y="34" width="32" height="20" rx="4" fill="#14b8a6"/>
  <text x="394" y="49" font-family="Inter, 'Helvetica Neue', Arial, sans-serif" font-size="11" font-weight="700" fill="white">AI</text>

  <!-- Title -->
  <text x="300" y="118" font-family="'Helvetica Neue', Helvetica, Arial, sans-serif" font-size="58" font-weight="900" fill="white" text-anchor="middle" letter-spacing="-1">THE STACK</text>
  <text x="300" y="180" font-family="'Helvetica Neue', Helvetica, Arial, sans-serif" font-size="58" font-weight="900" fill="white" text-anchor="middle" letter-spacing="-1">BENEATH</text>
  <text x="300" y="242" font-family="'Helvetica Neue', Helvetica, Arial, sans-serif" font-size="58" font-weight="900" fill="#2dd4bf" text-anchor="middle" letter-spacing="-1">THE SIGNAL</text>
  <line x1="160" y1="255" x2="440" y2="255" stroke="#14b8a6" stroke-width="2.5" stroke-linecap="round"/>

  <!-- Subtitle -->
  <text x="300" y="283" font-family="'Helvetica Neue', Helvetica, Arial, sans-serif" font-size="15" font-weight="400" fill="#93c5fd" text-anchor="middle" letter-spacing="0.3">Enterprise IT Explained for AI Practitioners</text>
  <text x="300" y="305" font-family="'Helvetica Neue', Helvetica, Arial, sans-serif" font-size="13" font-weight="400" fill="#64748b" text-anchor="middle" letter-spacing="0.3">What every AI practitioner must understand</text>

  <!-- Hero: Layered stack diagram -->
  <ellipse cx="300" cy="530" rx="240" ry="140" fill="url(#heroGlow-eit)"/>
  <ellipse cx="300" cy="590" rx="160" ry="80" fill="url(#stackGlow-eit)"/>

  <!-- Cloud icon (top) -->
  <g transform="translate(258, 328)">
    <ellipse cx="42" cy="20" rx="30" ry="16" fill="#1e3a5c" stroke="#14b8a6" stroke-width="1.2" opacity="0.8"/>
    <ellipse cx="26" cy="24" rx="18" ry="12" fill="#1e3a5c" stroke="#14b8a6" stroke-width="1.2" opacity="0.8"/>
    <ellipse cx="58" cy="24" rx="16" ry="11" fill="#1e3a5c" stroke="#14b8a6" stroke-width="1.2" opacity="0.8"/>
    <rect x="10" y="24" width="64" height="12" rx="0" fill="#1e3a5c" opacity="0.9"/>
    <text x="42" y="34" font-family="'Helvetica Neue', Arial, sans-serif" font-size="7" font-weight="700" fill="#14b8a6" text-anchor="middle" letter-spacing="0.5">CLOUD</text>
  </g>

  <!-- Connector dots top -->
  <circle cx="300" cy="372" r="3" fill="#14b8a6" opacity="0.8"/>
  <line x1="300" y1="372" x2="300" y2="388" stroke="#14b8a6" stroke-width="1.5" stroke-dasharray="3,2" opacity="0.5"/>

  <!-- INTELLIGENCE layer (top slab) -->
  <g transform="translate(80, 388)">
    <rect x="0" y="0" width="440" height="52" rx="6" fill="#0f2d4a" stroke="#14b8a6" stroke-width="1.5" opacity="0.95"/>
    <rect x="0" y="0" width="440" height="52" rx="6" fill="#14b8a6" opacity="0.07"/>
    <text x="220" y="20" font-family="'Helvetica Neue', Arial, sans-serif" font-size="9" font-weight="700" fill="#14b8a6" text-anchor="middle" letter-spacing="2">INTELLIGENCE LAYER</text>
    <!-- mini icons -->
    <rect x="20" y="26" width="40" height="14" rx="3" fill="#14b8a6" opacity="0.3"/>
    <text x="40" y="37" font-family="'Helvetica Neue', Arial, sans-serif" font-size="7" fill="#14b8a6" text-anchor="middle">LLMs</text>
    <rect x="70" y="26" width="40" height="14" rx="3" fill="#14b8a6" opacity="0.3"/>
    <text x="90" y="37" font-family="'Helvetica Neue', Arial, sans-serif" font-size="7" fill="#14b8a6" text-anchor="middle">Agents</text>
    <rect x="120" y="26" width="40" height="14" rx="3" fill="#14b8a6" opacity="0.3"/>
    <text x="140" y="37" font-family="'Helvetica Neue', Arial, sans-serif" font-size="7" fill="#14b8a6" text-anchor="middle">RAG</text>
    <rect x="170" y="26" width="50" height="14" rx="3" fill="#14b8a6" opacity="0.3"/>
    <text x="195" y="37" font-family="'Helvetica Neue', Arial, sans-serif" font-size="7" fill="#14b8a6" text-anchor="middle">Analytics</text>
    <!-- glow dot right -->
    <circle cx="420" cy="26" r="4" fill="#14b8a6" opacity="0.9"/>
    <circle cx="420" cy="26" r="8" fill="none" stroke="#14b8a6" stroke-width="0.8" opacity="0.4"/>
  </g>

  <!-- Connector -->
  <line x1="220" y1="440" x2="220" y2="458" stroke="#f59e0b" stroke-width="1" stroke-dasharray="3,2" opacity="0.4"/>
  <line x1="300" y1="440" x2="300" y2="458" stroke="#14b8a6" stroke-width="1.5" stroke-dasharray="3,2" opacity="0.5"/>
  <line x1="380" y1="440" x2="380" y2="458" stroke="#f59e0b" stroke-width="1" stroke-dasharray="3,2" opacity="0.4"/>

  <!-- ENGAGEMENT layer (middle slab) -->
  <g transform="translate(80, 458)">
    <rect x="0" y="0" width="440" height="52" rx="6" fill="#0f2239" stroke="#3b82f6" stroke-width="1.2" opacity="0.95"/>
    <rect x="0" y="0" width="440" height="52" rx="6" fill="#3b82f6" opacity="0.06"/>
    <text x="220" y="20" font-family="'Helvetica Neue', Arial, sans-serif" font-size="9" font-weight="700" fill="#93c5fd" text-anchor="middle" letter-spacing="2">ENGAGEMENT LAYER</text>
    <rect x="20" y="26" width="50" height="14" rx="3" fill="#3b82f6" opacity="0.25"/>
    <text x="45" y="37" font-family="'Helvetica Neue', Arial, sans-serif" font-size="7" fill="#93c5fd" text-anchor="middle">APIs</text>
    <rect x="80" y="26" width="50" height="14" rx="3" fill="#3b82f6" opacity="0.25"/>
    <text x="105" y="37" font-family="'Helvetica Neue', Arial, sans-serif" font-size="7" fill="#93c5fd" text-anchor="middle">SaaS</text>
    <rect x="140" y="26" width="50" height="14" rx="3" fill="#3b82f6" opacity="0.25"/>
    <text x="165" y="37" font-family="'Helvetica Neue', Arial, sans-serif" font-size="7" fill="#93c5fd" text-anchor="middle">CRM/ERP</text>
    <rect x="200" y="26" width="60" height="14" rx="3" fill="#3b82f6" opacity="0.25"/>
    <text x="230" y="37" font-family="'Helvetica Neue', Arial, sans-serif" font-size="7" fill="#93c5fd" text-anchor="middle">Middleware</text>
    <circle cx="420" cy="26" r="4" fill="#3b82f6" opacity="0.8"/>
    <circle cx="420" cy="26" r="8" fill="none" stroke="#3b82f6" stroke-width="0.8" opacity="0.4"/>
  </g>

  <!-- Connector -->
  <line x1="220" y1="510" x2="220" y2="528" stroke="#f59e0b" stroke-width="1" stroke-dasharray="3,2" opacity="0.4"/>
  <line x1="300" y1="510" x2="300" y2="528" stroke="#f59e0b" stroke-width="1.5" stroke-dasharray="3,2" opacity="0.5"/>
  <line x1="380" y1="510" x2="380" y2="528" stroke="#f59e0b" stroke-width="1" stroke-dasharray="3,2" opacity="0.4"/>

  <!-- RECORD layer (bottom slab) -->
  <g transform="translate(80, 528)">
    <rect x="0" y="0" width="440" height="52" rx="6" fill="#0a1a2e" stroke="#f59e0b" stroke-width="1.2" opacity="0.95"/>
    <rect x="0" y="0" width="440" height="52" rx="6" fill="#f59e0b" opacity="0.05"/>
    <text x="220" y="20" font-family="'Helvetica Neue', Arial, sans-serif" font-size="9" font-weight="700" fill="#f59e0b" text-anchor="middle" letter-spacing="2">RECORD LAYER</text>
    <rect x="20" y="26" width="60" height="14" rx="3" fill="#f59e0b" opacity="0.20"/>
    <text x="50" y="37" font-family="'Helvetica Neue', Arial, sans-serif" font-size="7" fill="#fbbf24" text-anchor="middle">Mainframe</text>
    <rect x="90" y="26" width="50" height="14" rx="3" fill="#f59e0b" opacity="0.20"/>
    <text x="115" y="37" font-family="'Helvetica Neue', Arial, sans-serif" font-size="7" fill="#fbbf24" text-anchor="middle">Databases</text>
    <rect x="150" y="26" width="50" height="14" rx="3" fill="#f59e0b" opacity="0.20"/>
    <text x="175" y="37" font-family="'Helvetica Neue', Arial, sans-serif" font-size="7" fill="#fbbf24" text-anchor="middle">Data Lake</text>
    <rect x="210" y="26" width="60" height="14" rx="3" fill="#f59e0b" opacity="0.20"/>
    <text x="240" y="37" font-family="'Helvetica Neue', Arial, sans-serif" font-size="7" fill="#fbbf24" text-anchor="middle">Warehouse</text>
    <circle cx="420" cy="26" r="4" fill="#f59e0b" opacity="0.8"/>
    <circle cx="420" cy="26" r="8" fill="none" stroke="#f59e0b" stroke-width="0.8" opacity="0.4"/>
  </g>

  <!-- Ground glow -->
  <ellipse cx="300" cy="600" rx="200" ry="12" fill="#f59e0b" opacity="0.08"/>

  <!-- Mainframe base icon -->
  <g transform="translate(248, 610)">
    <rect x="0" y="0" width="104" height="50" rx="4" fill="#0a1628" stroke="#f59e0b" stroke-width="1" opacity="0.6"/>
    <rect x="6" y="6" width="18" height="38" rx="2" fill="#f59e0b" opacity="0.15"/>
    <rect x="30" y="6" width="18" height="38" rx="2" fill="#f59e0b" opacity="0.10"/>
    <rect x="54" y="6" width="18" height="38" rx="2" fill="#f59e0b" opacity="0.10"/>
    <rect x="78" y="6" width="20" height="38" rx="2" fill="#f59e0b" opacity="0.15"/>
    <text x="52" y="68" font-family="'Helvetica Neue', Arial, sans-serif" font-size="8" fill="#f59e0b" text-anchor="middle" opacity="0.5" letter-spacing="1">MAINFRAME</text>
  </g>

  <!-- Footer -->
  <line x1="60" y1="690" x2="540" y2="690" stroke="#1e3a5f" stroke-width="1"/>
  <text x="300" y="722" font-family="'Helvetica Neue', Helvetica, Arial, sans-serif" font-size="15" font-weight="500" fill="#cbd5e1" text-anchor="middle" letter-spacing="1">By: Samira &amp; Rajesh Verma</text>
  <text x="300" y="752" font-family="'Helvetica Neue', Helvetica, Arial, sans-serif" font-size="10" fill="#475569" text-anchor="middle" letter-spacing="0.2em">THE LEGACYFORWARD.AI SERIES · BOOK 1 OF 7</text>
</svg>
