<svg viewBox="0 0 900 300" width="900" height="300" xmlns="http://www.w3.org/2000/svg">
  <defs>
    <marker id="arw" markerWidth="10" markerHeight="7" refX="10" refY="3.5" orient="auto">
      <polygon points="0 0, 10 3.5, 0 7" fill="#06b6d4"/>
    </marker>
    <marker id="arwP" markerWidth="10" markerHeight="7" refX="10" refY="3.5" orient="auto">
      <polygon points="0 0, 10 3.5, 0 7" fill="#a855f7"/>
    </marker>
    <marker id="arwG" markerWidth="10" markerHeight="7" refX="10" refY="3.5" orient="auto">
      <polygon points="0 0, 10 3.5, 0 7" fill="#22c55e"/>
    </marker>
    <marker id="arwO" markerWidth="10" markerHeight="7" refX="10" refY="3.5" orient="auto">
      <polygon points="0 0, 10 3.5, 0 7" fill="#f59e0b"/>
    </marker>
    <marker id="arwR" markerWidth="10" markerHeight="7" refX="10" refY="3.5" orient="auto">
      <polygon points="0 0, 10 3.5, 0 7" fill="#ef4444"/>
    </marker>
    <marker id="arwB" markerWidth="10" markerHeight="7" refX="10" refY="3.5" orient="auto">
      <polygon points="0 0, 10 3.5, 0 7" fill="#3b82f6"/>
    </marker>
  </defs>
  <text x="450" y="30" text-anchor="middle" fill="#06b6d4" font-family="Space Grotesk" font-size="16" font-weight="700">AI Readiness Assessment</text>
  <rect x="100" y="80" width="80" height="160" rx="6" fill="#f1f5f9"/>
  <rect x="100" y="108.80000000000001" width="80" height="131.2" rx="6" fill="#3b82f6" opacity="0.85"/>
  <text x="140" y="100.80000000000001" text-anchor="middle" fill="#3b82f6" font-family="Space Grotesk" font-size="11" font-weight="700">82%</text>
  <text x="140" y="258" text-anchor="middle" fill="#475569" font-family="Nunito" font-size="10" font-weight="400">Data</text>
  <rect x="250" y="80" width="80" height="160" rx="6" fill="#f1f5f9"/>
  <rect x="250" y="152" width="80" height="88" rx="6" fill="#a855f7" opacity="0.85"/>
  <text x="290" y="144" text-anchor="middle" fill="#a855f7" font-family="Space Grotesk" font-size="11" font-weight="700">55%</text>
  <text x="290" y="258" text-anchor="middle" fill="#475569" font-family="Nunito" font-size="10" font-weight="400">Talent</text>
  <rect x="400" y="80" width="80" height="160" rx="6" fill="#f1f5f9"/>
  <rect x="400" y="128" width="80" height="112" rx="6" fill="#06b6d4" opacity="0.85"/>
  <text x="440" y="120" text-anchor="middle" fill="#06b6d4" font-family="Space Grotesk" font-size="11" font-weight="700">70%</text>
  <text x="440" y="258" text-anchor="middle" fill="#475569" font-family="Nunito" font-size="10" font-weight="400">Culture</text>
  <rect x="550" y="80" width="80" height="160" rx="6" fill="#f1f5f9"/>
  <rect x="550" y="176" width="80" height="64" rx="6" fill="#f59e0b" opacity="0.85"/>
  <text x="590" y="168" text-anchor="middle" fill="#f59e0b" font-family="Space Grotesk" font-size="11" font-weight="700">40%</text>
  <text x="590" y="258" text-anchor="middle" fill="#475569" font-family="Nunito" font-size="10" font-weight="400">Governance</text>
  <rect x="700" y="80" width="80" height="160" rx="6" fill="#f1f5f9"/>
  <rect x="700" y="136" width="80" height="104" rx="6" fill="#22c55e" opacity="0.85"/>
  <text x="740" y="128" text-anchor="middle" fill="#22c55e" font-family="Space Grotesk" font-size="11" font-weight="700">65%</text>
  <text x="740" y="258" text-anchor="middle" fill="#475569" font-family="Nunito" font-size="10" font-weight="400">Infrastructure</text>
  <text x="450" y="278" text-anchor="middle" fill="#475569" font-family="Nunito" font-size="10" font-weight="400">Score each dimension 0-100 to identify readiness gaps before committing investment</text>
  <line x1="85" y1="240" x2="815" y2="240" stroke="#cbd5e1" stroke-width="1.5"/>
</svg>