<svg viewBox="0 0 900 350" width="900" height="350" xmlns="http://www.w3.org/2000/svg">
  <defs>
    <marker id="arw" markerWidth="10" markerHeight="7" refX="10" refY="3.5" orient="auto">
      <polygon points="0 0, 10 3.5, 0 7" fill="#06b6d4"/>
    </marker>
    <marker id="arwP" markerWidth="10" markerHeight="7" refX="10" refY="3.5" orient="auto">
      <polygon points="0 0, 10 3.5, 0 7" fill="#a855f7"/>
    </marker>
    <marker id="arwG" markerWidth="10" markerHeight="7" refX="10" refY="3.5" orient="auto">
      <polygon points="0 0, 10 3.5, 0 7" fill="#22c55e"/>
    </marker>
    <marker id="arwO" markerWidth="10" markerHeight="7" refX="10" refY="3.5" orient="auto">
      <polygon points="0 0, 10 3.5, 0 7" fill="#f59e0b"/>
    </marker>
    <marker id="arwR" markerWidth="10" markerHeight="7" refX="10" refY="3.5" orient="auto">
      <polygon points="0 0, 10 3.5, 0 7" fill="#ef4444"/>
    </marker>
    <marker id="arwB" markerWidth="10" markerHeight="7" refX="10" refY="3.5" orient="auto">
      <polygon points="0 0, 10 3.5, 0 7" fill="#3b82f6"/>
    </marker>
  </defs>
  <text x="450" y="30" text-anchor="middle" fill="#06b6d4" font-family="Space Grotesk" font-size="16" font-weight="700">AI Risk Matrix</text>
  <line x1="120" y1="60" x2="120" y2="310" stroke="#cbd5e1" stroke-width="2"/>
  <line x1="120" y1="310" x2="870" y2="310" stroke="#cbd5e1" stroke-width="2"/>
  <text x="495" y="335" text-anchor="middle" fill="#475569" font-family="Nunito" font-size="10" font-weight="400">Likelihood →</text>
  <text x="40" y="185" text-anchor="middle" fill="#475569" font-family="Nunito" font-size="10" transform="rotate(-90,40,185)">Impact →</text>
  <circle cx="200" cy="90" r="22" fill="#ef4444" opacity="0.2" stroke="#ef4444" stroke-width="2"/>
  <text x="200" y="94" text-anchor="middle" fill="#ef4444" font-family="Nunito" font-size="10" font-weight="400">Accuracy</text>
  <circle cx="350" cy="130" r="22" fill="#ef4444" opacity="0.2" stroke="#ef4444" stroke-width="2"/>
  <text x="350" y="134" text-anchor="middle" fill="#ef4444" font-family="Nunito" font-size="10" font-weight="400">Bias</text>
  <circle cx="280" cy="200" r="22" fill="#f59e0b" opacity="0.2" stroke="#f59e0b" stroke-width="2"/>
  <text x="280" y="204" text-anchor="middle" fill="#f59e0b" font-family="Nunito" font-size="10" font-weight="400">Privacy</text>
  <circle cx="180" cy="250" r="22" fill="#f59e0b" opacity="0.2" stroke="#f59e0b" stroke-width="2"/>
  <text x="180" y="254" text-anchor="middle" fill="#f59e0b" font-family="Nunito" font-size="10" font-weight="400">Security</text>
  <circle cx="480" cy="150" r="22" fill="#a855f7" opacity="0.2" stroke="#a855f7" stroke-width="2"/>
  <text x="480" y="154" text-anchor="middle" fill="#a855f7" font-family="Nunito" font-size="10" font-weight="400">Regulatory</text>
  <circle cx="600" cy="100" r="22" fill="#3b82f6" opacity="0.2" stroke="#3b82f6" stroke-width="2"/>
  <text x="600" y="104" text-anchor="middle" fill="#3b82f6" font-family="Nunito" font-size="10" font-weight="400">Reputation</text>
  <text x="240" y="80" text-anchor="middle" fill="#94a3b8" font-family="Nunito" font-size="9" font-weight="400">High Impact / Low Likelihood</text>
  <text x="680" y="80" text-anchor="middle" fill="#94a3b8" font-family="Nunito" font-size="9" font-weight="400">High Impact / High Likelihood</text>
  <text x="240" y="295" text-anchor="middle" fill="#94a3b8" font-family="Nunito" font-size="9" font-weight="400">Low Impact / Low Likelihood</text>
  <text x="680" y="295" text-anchor="middle" fill="#94a3b8" font-family="Nunito" font-size="9" font-weight="400">Low Impact / High Likelihood</text>
  <line x1="120" y1="185" x2="870" y2="185" stroke="#e2e8f0" stroke-width="1" stroke-dasharray="6,4"/>
  <line x1="495" y1="60" x2="495" y2="310" stroke="#e2e8f0" stroke-width="1" stroke-dasharray="6,4"/>
</svg>