<svg viewBox="0 0 900 300" width="900" height="300" xmlns="http://www.w3.org/2000/svg">
  <defs>
    <marker id="arw" markerWidth="10" markerHeight="7" refX="10" refY="3.5" orient="auto">
      <polygon points="0 0, 10 3.5, 0 7" fill="#06b6d4"/>
    </marker>
    <marker id="arwP" markerWidth="10" markerHeight="7" refX="10" refY="3.5" orient="auto">
      <polygon points="0 0, 10 3.5, 0 7" fill="#a855f7"/>
    </marker>
    <marker id="arwG" markerWidth="10" markerHeight="7" refX="10" refY="3.5" orient="auto">
      <polygon points="0 0, 10 3.5, 0 7" fill="#22c55e"/>
    </marker>
    <marker id="arwO" markerWidth="10" markerHeight="7" refX="10" refY="3.5" orient="auto">
      <polygon points="0 0, 10 3.5, 0 7" fill="#f59e0b"/>
    </marker>
    <marker id="arwR" markerWidth="10" markerHeight="7" refX="10" refY="3.5" orient="auto">
      <polygon points="0 0, 10 3.5, 0 7" fill="#ef4444"/>
    </marker>
    <marker id="arwB" markerWidth="10" markerHeight="7" refX="10" refY="3.5" orient="auto">
      <polygon points="0 0, 10 3.5, 0 7" fill="#3b82f6"/>
    </marker>
  </defs>
  <text x="450" y="30" text-anchor="middle" fill="#06b6d4" font-family="Space Grotesk" font-size="16" font-weight="700">AI Team Structure Options</text>
  <rect x="40" y="50" width="240" height="210" rx="12" fill="#eff6ff" stroke="#3b82f6" stroke-width="2"/>
  <text x="160" y="75" text-anchor="middle" fill="#3b82f6" font-family="Space Grotesk" font-size="12" font-weight="700">Centralized CoE</text>
  <text x="160" y="93" text-anchor="middle" fill="#475569" font-family="Nunito" font-size="10" font-weight="400">Hub-and-spoke model</text>
  <rect x="100" y="105" width="120" height="30" rx="6" fill="#dbeafe" stroke="#3b82f6" stroke-width="2"/>
  <text x="160" y="124" text-anchor="middle" fill="#475569" font-family="Nunito" font-size="10" font-weight="400">AI Centre of Excellence</text>
  <line x1="160" y1="135" x2="160" y2="125" stroke="#3b82f6" stroke-width="1.5" marker-end="url(#arwB)"/>
  <rect x="85" y="130" width="150" height="24" rx="5" fill="#f0f7ff" stroke="#93c5fd" stroke-width="2"/>
  <text x="160" y="145" text-anchor="middle" fill="#475569" font-family="Nunito" font-size="10" font-weight="400">BU Team A</text>
  <line x1="160" y1="135" x2="160" y2="170" stroke="#3b82f6" stroke-width="1.5" marker-end="url(#arwB)"/>
  <rect x="85" y="175" width="150" height="24" rx="5" fill="#f0f7ff" stroke="#93c5fd" stroke-width="2"/>
  <text x="160" y="190" text-anchor="middle" fill="#475569" font-family="Nunito" font-size="10" font-weight="400">BU Team B</text>
  <line x1="160" y1="135" x2="160" y2="215" stroke="#3b82f6" stroke-width="1.5" marker-end="url(#arwB)"/>
  <rect x="85" y="220" width="150" height="24" rx="5" fill="#f0f7ff" stroke="#93c5fd" stroke-width="2"/>
  <text x="160" y="235" text-anchor="middle" fill="#475569" font-family="Nunito" font-size="10" font-weight="400">BU Team C</text>
  <rect x="330" y="50" width="240" height="210" rx="12" fill="#faf5ff" stroke="#a855f7" stroke-width="2"/>
  <text x="450" y="75" text-anchor="middle" fill="#a855f7" font-family="Space Grotesk" font-size="12" font-weight="700">Embedded</text>
  <text x="450" y="93" text-anchor="middle" fill="#475569" font-family="Nunito" font-size="10" font-weight="400">Distributed model</text>
  <rect x="355" y="105" width="190" height="40" rx="6" fill="#faf5ff" stroke="#a855f7" stroke-width="2"/>
  <text x="450" y="130" text-anchor="middle" fill="#a855f7" font-family="Nunito" font-size="10" font-weight="400">BU A + AI</text>
  <rect x="355" y="160" width="190" height="40" rx="6" fill="#faf5ff" stroke="#a855f7" stroke-width="2"/>
  <text x="450" y="185" text-anchor="middle" fill="#a855f7" font-family="Nunito" font-size="10" font-weight="400">BU B + AI</text>
  <rect x="355" y="215" width="190" height="40" rx="6" fill="#faf5ff" stroke="#a855f7" stroke-width="2"/>
  <text x="450" y="240" text-anchor="middle" fill="#a855f7" font-family="Nunito" font-size="10" font-weight="400">BU C + AI</text>
  <rect x="620" y="50" width="240" height="210" rx="12" fill="#f0fdf4" stroke="#22c55e" stroke-width="2"/>
  <text x="740" y="75" text-anchor="middle" fill="#22c55e" font-family="Space Grotesk" font-size="12" font-weight="700">Hybrid</text>
  <text x="740" y="93" text-anchor="middle" fill="#475569" font-family="Nunito" font-size="10" font-weight="400">Both models combined</text>
  <rect x="660" y="105" width="160" height="30" rx="6" fill="#dcfce7" stroke="#22c55e" stroke-width="2"/>
  <text x="740" y="124" text-anchor="middle" fill="#475569" font-family="Nunito" font-size="10" font-weight="400">Lean Central CoE</text>
  <line x1="740" y1="135" x2="740" y2="145" stroke="#22c55e" stroke-width="1.5" marker-end="url(#arwG)"/>
  <rect x="660" y="150" width="160" height="24" rx="5" fill="#f0fdf4" stroke="#86efac" stroke-width="2"/>
  <text x="740" y="165" text-anchor="middle" fill="#475569" font-family="Nunito" font-size="9" font-weight="400">Embedded + BU A</text>
  <line x1="740" y1="135" x2="740" y2="180" stroke="#22c55e" stroke-width="1.5" marker-end="url(#arwG)"/>
  <rect x="660" y="185" width="160" height="24" rx="5" fill="#f0fdf4" stroke="#86efac" stroke-width="2"/>
  <text x="740" y="200" text-anchor="middle" fill="#475569" font-family="Nunito" font-size="9" font-weight="400">Embedded + BU B</text>
  <line x1="740" y1="135" x2="740" y2="215" stroke="#22c55e" stroke-width="1.5" marker-end="url(#arwG)"/>
  <rect x="660" y="220" width="160" height="24" rx="5" fill="#f0fdf4" stroke="#86efac" stroke-width="2"/>
  <text x="740" y="235" text-anchor="middle" fill="#475569" font-family="Nunito" font-size="9" font-weight="400">Embedded + BU C</text>
</svg>