<svg viewBox="0 0 900 300" width="900" height="300" xmlns="http://www.w3.org/2000/svg">
  <defs>
    <marker id="arw" markerWidth="10" markerHeight="7" refX="10" refY="3.5" orient="auto">
      <polygon points="0 0, 10 3.5, 0 7" fill="#06b6d4"/>
    </marker>
    <marker id="arwP" markerWidth="10" markerHeight="7" refX="10" refY="3.5" orient="auto">
      <polygon points="0 0, 10 3.5, 0 7" fill="#a855f7"/>
    </marker>
    <marker id="arwG" markerWidth="10" markerHeight="7" refX="10" refY="3.5" orient="auto">
      <polygon points="0 0, 10 3.5, 0 7" fill="#22c55e"/>
    </marker>
    <marker id="arwO" markerWidth="10" markerHeight="7" refX="10" refY="3.5" orient="auto">
      <polygon points="0 0, 10 3.5, 0 7" fill="#f59e0b"/>
    </marker>
    <marker id="arwR" markerWidth="10" markerHeight="7" refX="10" refY="3.5" orient="auto">
      <polygon points="0 0, 10 3.5, 0 7" fill="#ef4444"/>
    </marker>
    <marker id="arwB" markerWidth="10" markerHeight="7" refX="10" refY="3.5" orient="auto">
      <polygon points="0 0, 10 3.5, 0 7" fill="#3b82f6"/>
    </marker>
  </defs>
  <text x="450" y="30" text-anchor="middle" fill="#06b6d4" font-family="Space Grotesk" font-size="16" font-weight="700">AI Agent Governance Model</text>
  <rect x="360" y="100" width="180" height="60" rx="10" fill="#ecfeff" stroke="#06b6d4" stroke-width="2"/>
  <text x="450" y="125" text-anchor="middle" fill="#06b6d4" font-family="Space Grotesk" font-size="14" font-weight="700">AI Agent</text>
  <text x="450" y="145" text-anchor="middle" fill="#475569" font-family="Nunito" font-size="10" font-weight="400">Autonomous actions</text>
  <rect x="330" y="30" width="240" height="35" rx="8" fill="#eff6ff" stroke="#3b82f6" stroke-width="2"/>
  <text x="450" y="52" text-anchor="middle" fill="#3b82f6" font-family="Space Grotesk" font-size="11" font-weight="700">Budget Limits</text>
  <line x1="450" y1="65" x2="450" y2="100" stroke="#3b82f6" stroke-width="2" marker-end="url(#arwB)"/>
  <rect x="330" y="195" width="240" height="35" rx="8" fill="#f0fdf4" stroke="#22c55e" stroke-width="2"/>
  <text x="450" y="217" text-anchor="middle" fill="#22c55e" font-family="Space Grotesk" font-size="11" font-weight="700">Kill Switch</text>
  <line x1="450" y1="195" x2="450" y2="163" stroke="#22c55e" stroke-width="2" marker-end="url(#arwG)"/>
  <rect x="100" y="108" width="200" height="35" rx="8" fill="#faf5ff" stroke="#a855f7" stroke-width="2"/>
  <text x="200" y="130" text-anchor="middle" fill="#a855f7" font-family="Space Grotesk" font-size="11" font-weight="700">Approval Gates</text>
  <line x1="300" y1="126" x2="362" y2="126" stroke="#a855f7" stroke-width="2" marker-end="url(#arwP)"/>
  <rect x="600" y="108" width="200" height="35" rx="8" fill="#fffbeb" stroke="#f59e0b" stroke-width="2"/>
  <text x="700" y="130" text-anchor="middle" fill="#f59e0b" font-family="Space Grotesk" font-size="11" font-weight="700">Audit Trail</text>
  <line x1="600" y1="130" x2="540" y2="130" stroke="#f59e0b" stroke-width="2" marker-end="url(#arwO)"/>
  <text x="450" y="262" text-anchor="middle" fill="#475569" font-family="Nunito" font-size="10" font-weight="400">Every autonomous agent requires all four governance layers before production deployment</text>
</svg>