<svg viewBox="0 0 900 120" width="100%" xmlns="http://www.w3.org/2000/svg" style="font-family:system-ui,sans-serif;font-size:13px;">
          <defs>
            <marker id="ch5-arrow1" viewBox="0 0 10 10" refX="9" refY="5" markerWidth="7" markerHeight="7" orient="auto-start-auto"><path d="M 0 0 L 10 5 L 0 10 z" fill="#334155"></path></marker>
          </defs>
          
          <rect x="5" y="30" width="120" height="56" rx="6" fill="#ccfbf1" stroke="#14b8a6" stroke-width="1.5"></rect>
          <text x="65" y="55" text-anchor="middle" fill="#334155" font-weight="600">Source</text>
          <text x="65" y="72" text-anchor="middle" fill="#64748b">Documents</text>

          <rect x="155" y="30" width="110" height="56" rx="6" fill="#f5f5f5" stroke="#14b8a6" stroke-width="1.5"></rect>
          <text x="210" y="62" text-anchor="middle" fill="#334155" font-weight="600">Chunking</text>

          <rect x="295" y="30" width="120" height="56" rx="6" fill="#ccfbf1" stroke="#14b8a6" stroke-width="1.5"></rect>
          <text x="355" y="55" text-anchor="middle" fill="#334155" font-weight="600">LLM</text>
          <text x="355" y="72" text-anchor="middle" fill="#64748b">Analysis</text>

          <rect x="445" y="30" width="120" height="56" rx="6" fill="#f5f5f5" stroke="#14b8a6" stroke-width="1.5"></rect>
          <text x="505" y="55" text-anchor="middle" fill="#334155" font-weight="600">Requirements</text>
          <text x="505" y="72" text-anchor="middle" fill="#64748b">List</text>

          <rect x="595" y="30" width="120" height="56" rx="6" fill="#ccfbf1" stroke="#14b8a6" stroke-width="1.5"></rect>
          <text x="655" y="62" text-anchor="middle" fill="#334155" font-weight="600">Classification</text>

          <rect x="745" y="30" width="140" height="56" rx="6" fill="#14b8a6" stroke="#14b8a6" stroke-width="1.5"></rect>
          <text x="815" y="55" text-anchor="middle" fill="#fff" font-weight="600">Traceability</text>
          <text x="815" y="72" text-anchor="middle" fill="#fff">Matrix</text>

          
          <line x1="125" y1="58" x2="153" y2="58" stroke="#333" stroke-width="1.5" marker-end="url(#ch5-arrow1)"></line>
          <line x1="265" y1="58" x2="293" y2="58" stroke="#333" stroke-width="1.5" marker-end="url(#ch5-arrow1)"></line>
          <line x1="415" y1="58" x2="443" y2="58" stroke="#333" stroke-width="1.5" marker-end="url(#ch5-arrow1)"></line>
          <line x1="565" y1="58" x2="593" y2="58" stroke="#333" stroke-width="1.5" marker-end="url(#ch5-arrow1)"></line>
          <line x1="715" y1="58" x2="743" y2="58" stroke="#333" stroke-width="1.5" marker-end="url(#ch5-arrow1)"></line>

          
          <text x="450" y="15" text-anchor="middle" fill="#64748b" font-size="11" font-style="italic">Each chunk processed independently, then deduplicated</text>
        </svg>