<svg viewBox="0 0 900 120" width="100%" xmlns="http://www.w3.org/2000/svg" style="font-family:system-ui,sans-serif;font-size:13px;">
          <defs>
            <marker id="ch6-arrow1" viewBox="0 0 10 10" refX="9" refY="5" markerWidth="7" markerHeight="7" orient="auto-start-auto"><path d="M 0 0 L 10 5 L 0 10 z" fill="#334155"></path></marker>
          </defs>
          <rect x="5" y="28" width="120" height="56" rx="6" fill="#ccfbf1" stroke="#14b8a6" stroke-width="1.5"></rect>
          <text x="65" y="50" text-anchor="middle" fill="#334155" font-weight="600">Business</text>
          <text x="65" y="67" text-anchor="middle" fill="#64748b">Requirement</text>

          <line x1="125" y1="56" x2="148" y2="56" stroke="#333" stroke-width="1.5" marker-end="url(#ch6-arrow1)"></line>

          <rect x="150" y="28" width="110" height="56" rx="6" fill="#f5f5f5" stroke="#14b8a6" stroke-width="1.5"></rect>
          <text x="205" y="50" text-anchor="middle" fill="#334155" font-weight="600">Role</text>
          <text x="205" y="67" text-anchor="middle" fill="#64748b">Identification</text>

          <line x1="260" y1="56" x2="283" y2="56" stroke="#333" stroke-width="1.5" marker-end="url(#ch6-arrow1)"></line>

          <rect x="285" y="28" width="110" height="56" rx="6" fill="#ccfbf1" stroke="#14b8a6" stroke-width="1.5"></rect>
          <text x="340" y="50" text-anchor="middle" fill="#334155" font-weight="600">Story</text>
          <text x="340" y="67" text-anchor="middle" fill="#64748b">Generation</text>

          <line x1="395" y1="56" x2="418" y2="56" stroke="#333" stroke-width="1.5" marker-end="url(#ch6-arrow1)"></line>

          <rect x="420" y="28" width="110" height="56" rx="6" fill="#f5f5f5" stroke="#14b8a6" stroke-width="1.5"></rect>
          <text x="475" y="50" text-anchor="middle" fill="#334155" font-weight="600">INVEST</text>
          <text x="475" y="67" text-anchor="middle" fill="#64748b">Validation</text>

          <line x1="530" y1="56" x2="553" y2="56" stroke="#333" stroke-width="1.5" marker-end="url(#ch6-arrow1)"></line>

          <rect x="555" y="28" width="120" height="56" rx="6" fill="#ccfbf1" stroke="#14b8a6" stroke-width="1.5"></rect>
          <text x="615" y="50" text-anchor="middle" fill="#334155" font-weight="600">Acceptance</text>
          <text x="615" y="67" text-anchor="middle" fill="#64748b">Criteria</text>

          <line x1="675" y1="56" x2="698" y2="56" stroke="#333" stroke-width="1.5" marker-end="url(#ch6-arrow1)"></line>

          <rect x="700" y="28" width="110" height="56" rx="6" fill="#14b8a6" stroke="#14b8a6" stroke-width="1.5"></rect>
          <text x="755" y="56" text-anchor="middle" fill="#fff" font-weight="600">Backlog</text>

          <text x="450" y="15" text-anchor="middle" fill="#64748b" font-size="11" font-style="italic">One requirement may produce multiple stories; stories too large are split before entering the backlog</text>
        </svg>