<svg viewBox="0 0 900 280" width="900" height="280" xmlns="http://www.w3.org/2000/svg">
  <defs>
    <marker id="arw" markerWidth="10" markerHeight="7" refX="10" refY="3.5" orient="auto">
      <polygon points="0 0, 10 3.5, 0 7" fill="#06b6d4"/>
    </marker>
    <marker id="arwP" markerWidth="10" markerHeight="7" refX="10" refY="3.5" orient="auto">
      <polygon points="0 0, 10 3.5, 0 7" fill="#a855f7"/>
    </marker>
    <marker id="arwG" markerWidth="10" markerHeight="7" refX="10" refY="3.5" orient="auto">
      <polygon points="0 0, 10 3.5, 0 7" fill="#22c55e"/>
    </marker>
    <marker id="arwO" markerWidth="10" markerHeight="7" refX="10" refY="3.5" orient="auto">
      <polygon points="0 0, 10 3.5, 0 7" fill="#f59e0b"/>
    </marker>
    <marker id="arwR" markerWidth="10" markerHeight="7" refX="10" refY="3.5" orient="auto">
      <polygon points="0 0, 10 3.5, 0 7" fill="#ef4444"/>
    </marker>
    <marker id="arwB" markerWidth="10" markerHeight="7" refX="10" refY="3.5" orient="auto">
      <polygon points="0 0, 10 3.5, 0 7" fill="#3b82f6"/>
    </marker>
  </defs>
  <text x="450" y="30" text-anchor="middle" fill="#06b6d4" font-family="Space Grotesk" font-size="16" font-weight="700">Knowledge Base Search Architecture</text>
  <rect x="20" y="130" width="100" height="60" rx="10" fill="#f8fafc" stroke="#3b82f6" stroke-width="2"/>
  <text x="70" y="155" text-anchor="middle" fill="#0f172a" font-family="Space Grotesk" font-size="12" font-weight="600">Query</text>
  <text x="70" y="172" text-anchor="middle" fill="#475569" font-family="Nunito" font-size="9">User question</text>
  <line x1="120" y1="145" x2="200" y2="100" stroke="#06b6d4" stroke-width="2" marker-end="url(#arw)"/>
  <line x1="120" y1="175" x2="200" y2="200" stroke="#06b6d4" stroke-width="2" marker-end="url(#arw)"/>
  <rect x="205" y="70" width="150" height="55" rx="10" fill="#f8fafc" stroke="#a855f7" stroke-width="2"/>
  <text x="280" y="93" text-anchor="middle" fill="#a855f7" font-family="Space Grotesk" font-size="12" font-weight="600">Vector Search</text>
  <text x="280" y="112" text-anchor="middle" fill="#475569" font-family="Nunito" font-size="9">Semantic similarity</text>
  <rect x="205" y="175" width="150" height="55" rx="10" fill="#f8fafc" stroke="#3b82f6" stroke-width="2"/>
  <text x="280" y="198" text-anchor="middle" fill="#3b82f6" font-family="Space Grotesk" font-size="12" font-weight="600">Keyword Search</text>
  <text x="280" y="217" text-anchor="middle" fill="#475569" font-family="Nunito" font-size="9">BM25 / Elasticsearch</text>
  <line x1="355" y1="97" x2="420" y2="140" stroke="#06b6d4" stroke-width="2" marker-end="url(#arw)"/>
  <line x1="355" y1="202" x2="420" y2="170" stroke="#06b6d4" stroke-width="2" marker-end="url(#arw)"/>
  <rect x="425" y="120" width="120" height="70" rx="10" fill="#f8fafc" stroke="#f59e0b" stroke-width="2"/>
  <text x="485" y="148" text-anchor="middle" fill="#f59e0b" font-family="Space Grotesk" font-size="13" font-weight="600">Fusion</text>
  <text x="485" y="168" text-anchor="middle" fill="#475569" font-family="Nunito" font-size="9">RRF / Weighted</text>
  <line x1="545" y1="155" x2="600" y2="155" stroke="#06b6d4" stroke-width="2" marker-end="url(#arw)"/>
  <rect x="605" y="125" width="110" height="60" rx="10" fill="#f8fafc" stroke="#a855f7" stroke-width="2"/>
  <text x="660" y="150" text-anchor="middle" fill="#a855f7" font-family="Space Grotesk" font-size="12" font-weight="600">Rerank</text>
  <text x="660" y="168" text-anchor="middle" fill="#475569" font-family="Nunito" font-size="9">Cross-encoder</text>
  <line x1="715" y1="155" x2="760" y2="155" stroke="#a855f7" stroke-width="2" marker-end="url(#arwP)"/>
  <rect x="765" y="115" width="120" height="80" rx="10" fill="#f8fafc" stroke="#22c55e" stroke-width="2"/>
  <text x="825" y="145" text-anchor="middle" fill="#22c55e" font-family="Space Grotesk" font-size="12" font-weight="600">LLM Answer</text>
  <text x="825" y="165" text-anchor="middle" fill="#475569" font-family="Nunito" font-size="9">With citations</text>
  <text x="825" y="180" text-anchor="middle" fill="#475569" font-family="Nunito" font-size="9">and sources</text>
</svg>