<svg viewBox="0 0 900 300" width="900" height="300" xmlns="http://www.w3.org/2000/svg">
  <defs>
    <marker id="arw" markerWidth="10" markerHeight="7" refX="10" refY="3.5" orient="auto">
      <polygon points="0 0, 10 3.5, 0 7" fill="#06b6d4"/>
    </marker>
    <marker id="arwP" markerWidth="10" markerHeight="7" refX="10" refY="3.5" orient="auto">
      <polygon points="0 0, 10 3.5, 0 7" fill="#a855f7"/>
    </marker>
    <marker id="arwG" markerWidth="10" markerHeight="7" refX="10" refY="3.5" orient="auto">
      <polygon points="0 0, 10 3.5, 0 7" fill="#22c55e"/>
    </marker>
    <marker id="arwO" markerWidth="10" markerHeight="7" refX="10" refY="3.5" orient="auto">
      <polygon points="0 0, 10 3.5, 0 7" fill="#f59e0b"/>
    </marker>
    <marker id="arwR" markerWidth="10" markerHeight="7" refX="10" refY="3.5" orient="auto">
      <polygon points="0 0, 10 3.5, 0 7" fill="#ef4444"/>
    </marker>
    <marker id="arwB" markerWidth="10" markerHeight="7" refX="10" refY="3.5" orient="auto">
      <polygon points="0 0, 10 3.5, 0 7" fill="#3b82f6"/>
    </marker>
  </defs>
  <text x="450" y="30" text-anchor="middle" fill="#06b6d4" font-family="Space Grotesk" font-size="16" font-weight="700">Code Review Assistant</text>
  <rect x="20" y="120" width="120" height="70" rx="10" fill="#f8fafc" stroke="#3b82f6" stroke-width="2"/>
  <text x="80" y="148" text-anchor="middle" fill="#0f172a" font-family="Space Grotesk" font-size="12" font-weight="600">Code Commit</text>
  <text x="80" y="168" text-anchor="middle" fill="#475569" font-family="Nunito" font-size="9">PR / push</text>
  <line x1="140" y1="140" x2="220" y2="85" stroke="#06b6d4" stroke-width="2" marker-end="url(#arw)"/>
  <line x1="140" y1="155" x2="220" y2="155" stroke="#06b6d4" stroke-width="2" marker-end="url(#arw)"/>
  <line x1="140" y1="170" x2="220" y2="225" stroke="#06b6d4" stroke-width="2" marker-end="url(#arw)"/>
  <rect x="225" y="60" width="150" height="50" rx="8" fill="#f8fafc" stroke="#f59e0b" stroke-width="2"/>
  <text x="300" y="82" text-anchor="middle" fill="#f59e0b" font-family="Space Grotesk" font-size="11" font-weight="600">Static Analysis</text>
  <text x="300" y="100" text-anchor="middle" fill="#475569" font-family="Nunito" font-size="9">Lint, complexity</text>
  <rect x="225" y="130" width="150" height="50" rx="8" fill="#f8fafc" stroke="#ef4444" stroke-width="2"/>
  <text x="300" y="152" text-anchor="middle" fill="#ef4444" font-family="Space Grotesk" font-size="11" font-weight="600">Security Scan</text>
  <text x="300" y="170" text-anchor="middle" fill="#475569" font-family="Nunito" font-size="9">SAST, secrets</text>
  <rect x="225" y="200" width="150" height="50" rx="8" fill="#f8fafc" stroke="#a855f7" stroke-width="2"/>
  <text x="300" y="222" text-anchor="middle" fill="#a855f7" font-family="Space Grotesk" font-size="11" font-weight="600">RAG Context</text>
  <text x="300" y="240" text-anchor="middle" fill="#475569" font-family="Nunito" font-size="9">Code standards</text>
  <line x1="375" y1="85" x2="450" y2="140" stroke="#06b6d4" stroke-width="2" marker-end="url(#arw)"/>
  <line x1="375" y1="155" x2="450" y2="155" stroke="#06b6d4" stroke-width="2" marker-end="url(#arw)"/>
  <line x1="375" y1="225" x2="450" y2="170" stroke="#06b6d4" stroke-width="2" marker-end="url(#arw)"/>
  <rect x="455" y="110" width="160" height="90" rx="12" fill="#f8fafc" stroke="#a855f7" stroke-width="2"/>
  <text x="535" y="142" text-anchor="middle" fill="#a855f7" font-family="Space Grotesk" font-size="14" font-weight="600">LLM Reviewer</text>
  <text x="535" y="165" text-anchor="middle" fill="#475569" font-family="Nunito" font-size="10">Contextual review</text>
  <text x="535" y="183" text-anchor="middle" fill="#475569" font-family="Nunito" font-size="9">Improvement suggestions</text>
  <line x1="615" y1="155" x2="690" y2="155" stroke="#06b6d4" stroke-width="2" marker-end="url(#arw)"/>
  <rect x="695" y="110" width="170" height="90" rx="12" fill="#f8fafc" stroke="#22c55e" stroke-width="2"/>
  <text x="780" y="142" text-anchor="middle" fill="#22c55e" font-family="Space Grotesk" font-size="14" font-weight="600">Unified Report</text>
  <text x="780" y="165" text-anchor="middle" fill="#475569" font-family="Nunito" font-size="10">PR comment with</text>
  <text x="780" y="183" text-anchor="middle" fill="#475569" font-family="Nunito" font-size="9">actionable findings</text>
</svg>