<svg viewBox="0 0 800 200" width="100%" xmlns="http://www.w3.org/2000/svg" font-family="'Space Grotesk', sans-serif">
          <rect width="800" height="200" fill="#f8fafc" rx="12"></rect>
          <defs>
            <marker id="arr" markerWidth="8" markerHeight="8" refX="6" refY="3" orient="auto">
              <path d="M0,0 L0,6 L8,3 z" fill="#22c55e" opacity="0.7"></path>
            </marker>
          </defs>
          
          <rect x="20" y="60" width="120" height="80" rx="10" fill="#f1f5f9" stroke="#3b82f6" stroke-width="1.5"></rect>
          <text x="80" y="95" text-anchor="middle" fill="#3b82f6" font-size="12" font-weight="600">Data</text>
          <text x="80" y="112" text-anchor="middle" fill="#3b82f6" font-size="12" font-weight="600">Preparation</text>

          <line x1="142" y1="100" x2="168" y2="100" stroke="#22c55e" stroke-width="1.5" marker-end="url(#arr)"></line>

          <rect x="170" y="60" width="120" height="80" rx="10" fill="#f1f5f9" stroke="#a855f7" stroke-width="1.5"></rect>
          <text x="230" y="95" text-anchor="middle" fill="#a855f7" font-size="12" font-weight="600">Feature</text>
          <text x="230" y="112" text-anchor="middle" fill="#a855f7" font-size="12" font-weight="600">Engineering</text>

          <line x1="292" y1="100" x2="318" y2="100" stroke="#22c55e" stroke-width="1.5" marker-end="url(#arr)"></line>

          <rect x="320" y="60" width="120" height="80" rx="10" fill="#f1f5f9" stroke="#22d3ee" stroke-width="1.5"></rect>
          <text x="380" y="95" text-anchor="middle" fill="#22d3ee" font-size="12" font-weight="600">Model</text>
          <text x="380" y="112" text-anchor="middle" fill="#22d3ee" font-size="12" font-weight="600">Training</text>

          <line x1="442" y1="100" x2="468" y2="100" stroke="#22c55e" stroke-width="1.5" marker-end="url(#arr)"></line>

          <rect x="470" y="60" width="120" height="80" rx="10" fill="#f1f5f9" stroke="#f59e0b" stroke-width="1.5"></rect>
          <text x="530" y="95" text-anchor="middle" fill="#f59e0b" font-size="12" font-weight="600">Evaluation</text>
          <text x="530" y="112" text-anchor="middle" fill="#f59e0b" font-size="12" font-weight="600">&amp; Tuning</text>

          <line x1="592" y1="100" x2="618" y2="100" stroke="#22c55e" stroke-width="1.5" marker-end="url(#arr)"></line>

          <rect x="620" y="60" width="120" height="80" rx="10" fill="#f1f5f9" stroke="#22c55e" stroke-width="1.5"></rect>
          <text x="680" y="88" text-anchor="middle" fill="#22c55e" font-size="12" font-weight="600">Deploy &amp;</text>
          <text x="680" y="105" text-anchor="middle" fill="#22c55e" font-size="12" font-weight="600">Monitor</text>

          
          <path d="M680 142 Q680 170 400 175 Q120 180 80 142" fill="none" stroke="#94a3b8" stroke-width="1.2" stroke-dasharray="5,3"></path>
          <text x="400" y="190" text-anchor="middle" fill="#64748b" font-size="10">Continuous feedback loop — retrain as data drifts</text>
        </svg>