<svg viewBox="0 0 800 400" width="100%" xmlns="http://www.w3.org/2000/svg" font-family="'Space Grotesk', sans-serif">
          <rect width="800" height="400" fill="#f8fafc" rx="12"></rect>
          <defs>
            <marker id="arr2" markerWidth="8" markerHeight="8" refX="6" refY="3" orient="auto">
              <path d="M0,0 L0,6 L8,3 z" fill="#64748b"></path>
            </marker>
          </defs>

          
          <rect x="300" y="20" width="200" height="45" rx="22" fill="rgba(34,197,94,0.15)" stroke="#22c55e" stroke-width="1.5"></rect>
          <text x="400" y="48" text-anchor="middle" fill="#22c55e" font-size="13" font-weight="600">ML Use Case?</text>

          
          <line x1="400" y1="67" x2="400" y2="95" stroke="#94a3b8" stroke-width="1.2" marker-end="url(#arr2)"></line>
          <rect x="270" y="95" width="260" height="40" rx="8" fill="#f1f5f9" stroke="#3b82f6" stroke-width="1.2"></rect>
          <text x="400" y="120" text-anchor="middle" fill="#3b82f6" font-size="12" font-weight="500">Is it a common task (vision, NLP, speech)?</text>

          
          <line x1="270" y1="115" x2="130" y2="115" stroke="#22c55e" stroke-width="1.2"></line>
          <line x1="130" y1="115" x2="130" y2="155" stroke="#22c55e" stroke-width="1.2" marker-end="url(#arr2)"></line>
          <text x="195" y="108" fill="#22c55e" font-size="10">Yes</text>
          <rect x="50" y="155" width="160" height="55" rx="8" fill="rgba(34,197,94,0.12)" stroke="#22c55e" stroke-width="1.5"></rect>
          <text x="130" y="178" text-anchor="middle" fill="#22c55e" font-size="12" font-weight="600">Pre-trained API</text>
          <text x="130" y="196" text-anchor="middle" fill="#475569" font-size="10">Vision, NLP, Speech, Translation</text>

          
          <rect x="50" y="220" width="160" height="35" rx="6" fill="#f1f5f9" stroke="#f59e0b" stroke-width="1"></rect>
          <text x="130" y="242" text-anchor="middle" fill="#f59e0b" font-size="11">Accuracy sufficient?</text>
          <line x1="130" y1="210" x2="130" y2="220" stroke="#94a3b8" stroke-width="1"></line>

          
          <line x1="530" y1="115" x2="650" y2="115" stroke="#ef4444" stroke-width="1.2"></line>
          <text x="580" y="108" fill="#ef4444" font-size="10">No</text>

          
          <line x1="400" y1="135" x2="400" y2="168" stroke="#94a3b8" stroke-width="1.2" marker-end="url(#arr2)"></line>
          <text x="415" y="155" fill="#ef4444" font-size="10">No</text>
          <rect x="280" y="168" width="240" height="40" rx="8" fill="#f1f5f9" stroke="#a855f7" stroke-width="1.2"></rect>
          <text x="400" y="193" text-anchor="middle" fill="#a855f7" font-size="12" font-weight="500">Do you have labeled training data?</text>

          
          <line x1="400" y1="208" x2="400" y2="238" stroke="#94a3b8" stroke-width="1.2" marker-end="url(#arr2)"></line>
          <rect x="280" y="238" width="240" height="40" rx="8" fill="#f1f5f9" stroke="#22d3ee" stroke-width="1.2"></rect>
          <text x="400" y="263" text-anchor="middle" fill="#22d3ee" font-size="12" font-weight="500">Do you have ML expertise?</text>
          <text x="415" y="230" fill="#22c55e" font-size="10">Yes</text>

          
          <line x1="280" y1="258" x2="130" y2="258" stroke="#22c55e" stroke-width="1.2"></line>
          <line x1="130" y1="258" x2="130" y2="300" stroke="#22c55e" stroke-width="1.2" marker-end="url(#arr2)"></line>
          <text x="195" y="252" fill="#22c55e" font-size="10">No</text>
          <rect x="50" y="300" width="160" height="55" rx="8" fill="rgba(99,102,241,0.12)" stroke="#6366f1" stroke-width="1.5"></rect>
          <text x="130" y="323" text-anchor="middle" fill="#6366f1" font-size="12" font-weight="600">AutoML</text>
          <text x="130" y="341" text-anchor="middle" fill="#475569" font-size="10">Vertex AI AutoML</text>

          
          <line x1="520" y1="258" x2="650" y2="258" stroke="#ef4444" stroke-width="1.2"></line>
          <line x1="650" y1="258" x2="650" y2="300" stroke="#ef4444" stroke-width="1.2" marker-end="url(#arr2)"></line>
          <text x="580" y="252" fill="#22c55e" font-size="10">Yes</text>
          <rect x="570" y="300" width="160" height="55" rx="8" fill="rgba(34,211,238,0.12)" stroke="#22d3ee" stroke-width="1.5"></rect>
          <text x="650" y="323" text-anchor="middle" fill="#22d3ee" font-size="12" font-weight="600">Custom Training</text>
          <text x="650" y="341" text-anchor="middle" fill="#475569" font-size="10">Vertex AI + TF/PyTorch</text>

          
          <line x1="280" y1="188" x2="130" y2="188" stroke="#ef4444" stroke-width="1.2"></line>
          <text x="200" y="182" fill="#ef4444" font-size="10">No data</text>

          
          <rect x="320" y="310" width="160" height="55" rx="8" fill="rgba(245,158,11,0.12)" stroke="#f59e0b" stroke-width="1.5"></rect>
          <text x="400" y="333" text-anchor="middle" fill="#f59e0b" font-size="12" font-weight="600">BigQuery ML</text>
          <text x="400" y="351" text-anchor="middle" fill="#475569" font-size="10">SQL-based ML</text>
          <line x1="400" y1="278" x2="400" y2="310" stroke="#94a3b8" stroke-width="1.2" marker-end="url(#arr2)"></line>
          <text x="415" y="295" fill="#64748b" font-size="10">Tabular + SQL</text>

          
          <rect x="590" y="115" width="160" height="55" rx="8" fill="rgba(168,85,247,0.12)" stroke="#a855f7" stroke-width="1.5"></rect>
          <text x="670" y="138" text-anchor="middle" fill="#a855f7" font-size="12" font-weight="600">GenAI / Foundation</text>
          <text x="670" y="156" text-anchor="middle" fill="#475569" font-size="10">Gemini, Model Garden</text>
        </svg>