<svg viewBox="0 0 900 300" width="900" height="300" xmlns="http://www.w3.org/2000/svg">
  <defs>
    <marker id="arw" markerWidth="10" markerHeight="7" refX="10" refY="3.5" orient="auto">
      <polygon points="0 0, 10 3.5, 0 7" fill="#06b6d4"/>
    </marker>
    <marker id="arwP" markerWidth="10" markerHeight="7" refX="10" refY="3.5" orient="auto">
      <polygon points="0 0, 10 3.5, 0 7" fill="#a855f7"/>
    </marker>
    <marker id="arwG" markerWidth="10" markerHeight="7" refX="10" refY="3.5" orient="auto">
      <polygon points="0 0, 10 3.5, 0 7" fill="#22c55e"/>
    </marker>
    <marker id="arwO" markerWidth="10" markerHeight="7" refX="10" refY="3.5" orient="auto">
      <polygon points="0 0, 10 3.5, 0 7" fill="#f59e0b"/>
    </marker>
    <marker id="arwR" markerWidth="10" markerHeight="7" refX="10" refY="3.5" orient="auto">
      <polygon points="0 0, 10 3.5, 0 7" fill="#ef4444"/>
    </marker>
    <marker id="arwB" markerWidth="10" markerHeight="7" refX="10" refY="3.5" orient="auto">
      <polygon points="0 0, 10 3.5, 0 7" fill="#3b82f6"/>
    </marker>
  </defs>
  <text x="450" y="30" text-anchor="middle" fill="#06b6d4" font-family="Space Grotesk" font-size="16" font-weight="700">AI Evaluation Pipeline</text>
  <rect x="30" y="110" width="120" height="65" rx="10" fill="#f8fafc" stroke="#3b82f6" stroke-width="2"/>
  <text x="90" y="132" text-anchor="middle" fill="#0f172a" font-family="Space Grotesk" font-size="12" font-weight="600">Golden Dataset</text>
  <text x="90" y="148" text-anchor="middle" fill="#475569" font-family="Nunito" font-size="10" font-weight="400">Curated examples</text>
  <line x1="150" y1="142.5" x2="208" y2="142.5" stroke="#06b6d4" stroke-width="2" marker-end="url(#arw)"/>
  <rect x="210" y="110" width="120" height="65" rx="10" fill="#f8fafc" stroke="#06b6d4" stroke-width="2"/>
  <text x="270" y="132" text-anchor="middle" fill="#0f172a" font-family="Space Grotesk" font-size="12" font-weight="600">Automated Metrics</text>
  <text x="270" y="148" text-anchor="middle" fill="#475569" font-family="Nunito" font-size="10" font-weight="400">BLEU, ROUGE, etc.</text>
  <line x1="330" y1="142.5" x2="388" y2="142.5" stroke="#06b6d4" stroke-width="2" marker-end="url(#arw)"/>
  <rect x="390" y="110" width="120" height="65" rx="10" fill="#f8fafc" stroke="#a855f7" stroke-width="2"/>
  <text x="450" y="132" text-anchor="middle" fill="#0f172a" font-family="Space Grotesk" font-size="12" font-weight="600">LLM-as-Judge</text>
  <text x="450" y="148" text-anchor="middle" fill="#475569" font-family="Nunito" font-size="10" font-weight="400">GPT-4 scorer</text>
  <line x1="510" y1="142.5" x2="568" y2="142.5" stroke="#06b6d4" stroke-width="2" marker-end="url(#arw)"/>
  <rect x="570" y="110" width="120" height="65" rx="10" fill="#f8fafc" stroke="#f59e0b" stroke-width="2"/>
  <text x="630" y="132" text-anchor="middle" fill="#0f172a" font-family="Space Grotesk" font-size="12" font-weight="600">Human Review</text>
  <text x="630" y="148" text-anchor="middle" fill="#475569" font-family="Nunito" font-size="10" font-weight="400">Expert spot-check</text>
  <line x1="690" y1="142.5" x2="748" y2="142.5" stroke="#06b6d4" stroke-width="2" marker-end="url(#arw)"/>
  <rect x="750" y="110" width="120" height="65" rx="10" fill="#f8fafc" stroke="#22c55e" stroke-width="2"/>
  <text x="810" y="132" text-anchor="middle" fill="#0f172a" font-family="Space Grotesk" font-size="12" font-weight="600">Ship / Iterate</text>
  <text x="810" y="148" text-anchor="middle" fill="#475569" font-family="Nunito" font-size="10" font-weight="400">Decision gate</text>
  <text x="450" y="210" text-anchor="middle" fill="#475569" font-family="Nunito" font-size="10" font-weight="400">Run all stages on every release candidate before shipping</text>
  <text x="450" y="224" text-anchor="middle" fill="#475569" font-family="Nunito" font-size="10" font-weight="400">Human review is the final safety net — never skip it</text>
</svg>