<svg viewBox="0 0 900 250" width="900" height="250" xmlns="http://www.w3.org/2000/svg">
  <defs>
    <marker id="arw" markerWidth="10" markerHeight="7" refX="10" refY="3.5" orient="auto">
      <polygon points="0 0, 10 3.5, 0 7" fill="#06b6d4"/>
    </marker>
    <marker id="arwP" markerWidth="10" markerHeight="7" refX="10" refY="3.5" orient="auto">
      <polygon points="0 0, 10 3.5, 0 7" fill="#a855f7"/>
    </marker>
    <marker id="arwG" markerWidth="10" markerHeight="7" refX="10" refY="3.5" orient="auto">
      <polygon points="0 0, 10 3.5, 0 7" fill="#22c55e"/>
    </marker>
    <marker id="arwO" markerWidth="10" markerHeight="7" refX="10" refY="3.5" orient="auto">
      <polygon points="0 0, 10 3.5, 0 7" fill="#f59e0b"/>
    </marker>
    <marker id="arwR" markerWidth="10" markerHeight="7" refX="10" refY="3.5" orient="auto">
      <polygon points="0 0, 10 3.5, 0 7" fill="#ef4444"/>
    </marker>
    <marker id="arwB" markerWidth="10" markerHeight="7" refX="10" refY="3.5" orient="auto">
      <polygon points="0 0, 10 3.5, 0 7" fill="#3b82f6"/>
    </marker>
  </defs>
  <text x="450" y="30" text-anchor="middle" fill="#06b6d4" font-family="Space Grotesk" font-size="16" font-weight="700">AI Data Strategy Pipeline</text>
  <rect x="30" y="90" width="120" height="65" rx="10" fill="#f8fafc" stroke="#3b82f6" stroke-width="2"/>
  <text x="90" y="112" text-anchor="middle" fill="#0f172a" font-family="Space Grotesk" font-size="12" font-weight="600">Data Sources</text>
  <text x="90" y="128" text-anchor="middle" fill="#475569" font-family="Nunito" font-size="10" font-weight="400">DB, logs, API</text>
  <line x1="150" y1="122.5" x2="208" y2="122.5" stroke="#06b6d4" stroke-width="2" marker-end="url(#arw)"/>
  <rect x="210" y="90" width="120" height="65" rx="10" fill="#f8fafc" stroke="#06b6d4" stroke-width="2"/>
  <text x="270" y="112" text-anchor="middle" fill="#0f172a" font-family="Space Grotesk" font-size="12" font-weight="600">Quality Check</text>
  <text x="270" y="128" text-anchor="middle" fill="#475569" font-family="Nunito" font-size="10" font-weight="400">Validate schema</text>
  <line x1="330" y1="122.5" x2="388" y2="122.5" stroke="#06b6d4" stroke-width="2" marker-end="url(#arw)"/>
  <rect x="390" y="90" width="120" height="65" rx="10" fill="#f8fafc" stroke="#f59e0b" stroke-width="2"/>
  <text x="450" y="112" text-anchor="middle" fill="#0f172a" font-family="Space Grotesk" font-size="12" font-weight="600">Privacy Filter</text>
  <text x="450" y="128" text-anchor="middle" fill="#475569" font-family="Nunito" font-size="10" font-weight="400">PII removal</text>
  <line x1="510" y1="122.5" x2="568" y2="122.5" stroke="#06b6d4" stroke-width="2" marker-end="url(#arw)"/>
  <rect x="570" y="90" width="120" height="65" rx="10" fill="#f8fafc" stroke="#a855f7" stroke-width="2"/>
  <text x="630" y="112" text-anchor="middle" fill="#0f172a" font-family="Space Grotesk" font-size="12" font-weight="600">Feature Store</text>
  <text x="630" y="128" text-anchor="middle" fill="#475569" font-family="Nunito" font-size="10" font-weight="400">Versioned features</text>
  <line x1="690" y1="122.5" x2="748" y2="122.5" stroke="#06b6d4" stroke-width="2" marker-end="url(#arw)"/>
  <rect x="750" y="90" width="120" height="65" rx="10" fill="#f8fafc" stroke="#22c55e" stroke-width="2"/>
  <text x="810" y="112" text-anchor="middle" fill="#0f172a" font-family="Space Grotesk" font-size="12" font-weight="600">AI Model</text>
  <text x="810" y="128" text-anchor="middle" fill="#475569" font-family="Nunito" font-size="10" font-weight="400">Training + inference</text>
  <text x="450" y="190" text-anchor="middle" fill="#475569" font-family="Nunito" font-size="10" font-weight="400">Data quality gates must be automated — garbage in, garbage out</text>
</svg>