<svg viewBox="0 0 800 280" fill="none" xmlns="http://www.w3.org/2000/svg">
          
          <rect x="20" y="110" width="110" height="50" rx="25" fill="rgba(249,115,22,0.15)" stroke="#f97316" stroke-width="1.5"></rect>
          <text x="75" y="140" text-anchor="middle" fill="#f97316" font-family="Space Grotesk,sans-serif" font-size="12" font-weight="600">Query</text>

          <line x1="130" y1="135" x2="180" y2="135" stroke="#2e3554" stroke-width="1.5" marker-end="url(#aS)"></line>

          
          <rect x="180" y="110" width="120" height="50" rx="8" fill="#f1f5f9" stroke="#06b6d4" stroke-width="1.5"></rect>
          <text x="240" y="140" text-anchor="middle" fill="#06b6d4" font-family="Space Grotesk,sans-serif" font-size="12" font-weight="600">Retrieve</text>

          <line x1="300" y1="135" x2="350" y2="135" stroke="#2e3554" stroke-width="1.5" marker-end="url(#aS)"></line>

          
          <rect x="350" y="100" width="120" height="70" rx="8" fill="#f1f5f9" stroke="#a855f7" stroke-width="1.5"></rect>
          <text x="410" y="128" text-anchor="middle" fill="#a855f7" font-family="Space Grotesk,sans-serif" font-size="12" font-weight="600">Grade Docs</text>
          <text x="410" y="150" text-anchor="middle" fill="#475569" font-family="JetBrains Mono,monospace" font-size="9">Relevant?</text>

          
          <line x1="470" y1="135" x2="540" y2="135" stroke="#22c55e" stroke-width="1.5" marker-end="url(#aS)"></line>
          <text x="500" y="128" fill="#22c55e" font-family="JetBrains Mono,monospace" font-size="10">Yes</text>

          
          <rect x="540" y="110" width="120" height="50" rx="8" fill="#f1f5f9" stroke="#f97316" stroke-width="1.5"></rect>
          <text x="600" y="140" text-anchor="middle" fill="#f97316" font-family="Space Grotesk,sans-serif" font-size="12" font-weight="600">Generate</text>

          <line x1="660" y1="135" x2="720" y2="135" stroke="#2e3554" stroke-width="1.5" marker-end="url(#aS)"></line>

          
          <rect x="720" y="110" width="70" height="50" rx="25" fill="rgba(34,197,94,0.15)" stroke="#22c55e" stroke-width="1.5"></rect>
          <text x="755" y="140" text-anchor="middle" fill="#22c55e" font-family="Space Grotesk,sans-serif" font-size="12" font-weight="600">Answer</text>

          
          <line x1="410" y1="170" x2="410" y2="220" stroke="#ef4444" stroke-width="1.5" marker-end="url(#aS)"></line>
          <text x="425" y="200" fill="#ef4444" font-family="JetBrains Mono,monospace" font-size="10">No</text>

          
          <rect x="350" y="220" width="120" height="50" rx="8" fill="#f1f5f9" stroke="#f59e0b" stroke-width="1.5"></rect>
          <text x="410" y="250" text-anchor="middle" fill="#f59e0b" font-family="Space Grotesk,sans-serif" font-size="12" font-weight="600">Rewrite Query</text>

          
          <path d="M350 245 L240 245 L240 160" stroke="#f59e0b" stroke-width="1.5" fill="none" marker-end="url(#aS)"></path>

          <defs><marker id="aS" markerWidth="8" markerHeight="8" refX="8" refY="4" orient="auto"><path d="M0,0 L8,4 L0,8" fill="#2e3554"></path></marker></defs>
        </svg>