<svg viewBox="0 0 820 420" xmlns="http://www.w3.org/2000/svg">
          <defs>
            <marker id="ah" markerWidth="8" markerHeight="8" refX="8" refY="4" orient="auto"><path d="M0,0 L8,4 L0,8" fill="#f59e0b"></path></marker>
            <marker id="ahg" markerWidth="8" markerHeight="8" refX="8" refY="4" orient="auto"><path d="M0,0 L8,4 L0,8" fill="#22c55e"></path></marker>
            <marker id="ahr" markerWidth="8" markerHeight="8" refX="8" refY="4" orient="auto"><path d="M0,0 L8,4 L0,8" fill="#ef4444"></path></marker>
          </defs>
          
          <circle cx="60" cy="200" r="20" fill="#e2e8f0" stroke="#f59e0b" stroke-width="2"></circle>
          <text x="60" y="204" text-anchor="middle" fill="#f59e0b" font-family="Space Grotesk" font-size="11" font-weight="600">START</text>
          
          <rect x="120" y="170" width="130" height="60" rx="10" fill="#e2e8f0" stroke="#3b82f6" stroke-width="1.5"></rect>
          <text x="185" y="195" text-anchor="middle" fill="#0f172a" font-family="Space Grotesk" font-size="13" font-weight="600">Planner</text>
          <text x="185" y="215" text-anchor="middle" fill="#475569" font-family="Nunito" font-size="10">Break down topic</text>
          <line x1="80" y1="200" x2="112" y2="200" stroke="#f59e0b" stroke-width="1.5" marker-end="url(#ah)"></line>
          
          <rect x="120" y="280" width="130" height="50" rx="10" fill="#e2e8f0" stroke="#f59e0b" stroke-width="2" stroke-dasharray="6,3"></rect>
          <text x="185" y="305" text-anchor="middle" fill="#f59e0b" font-family="Space Grotesk" font-size="12" font-weight="600">Human Review</text>
          <text x="185" y="320" text-anchor="middle" fill="#475569" font-family="Nunito" font-size="10">Approve plan</text>
          <line x1="185" y1="230" x2="185" y2="272" stroke="#f59e0b" stroke-width="1.5" marker-end="url(#ah)"></line>
          
          <rect x="300" y="170" width="130" height="60" rx="10" fill="#e2e8f0" stroke="#06b6d4" stroke-width="1.5"></rect>
          <text x="365" y="195" text-anchor="middle" fill="#0f172a" font-family="Space Grotesk" font-size="13" font-weight="600">Researcher</text>
          <text x="365" y="215" text-anchor="middle" fill="#475569" font-family="Nunito" font-size="10">Web + RAG + APIs</text>
          <line x1="250" y1="200" x2="292" y2="200" stroke="#f59e0b" stroke-width="1.5" marker-end="url(#ah)"></line>
          
          <rect x="300" y="70" width="130" height="70" rx="8" fill="#f8fafc" stroke="#cbd5e1" stroke-width="1"></rect>
          <text x="365" y="92" text-anchor="middle" fill="#64748b" font-family="Space Grotesk" font-size="10" font-weight="600">TOOLS</text>
          <text x="365" y="108" text-anchor="middle" fill="#475569" font-family="Nunito" font-size="10">Web Search</text>
          <text x="365" y="122" text-anchor="middle" fill="#475569" font-family="Nunito" font-size="10">RAG Retrieval</text>
          <text x="365" y="136" text-anchor="middle" fill="#475569" font-family="Nunito" font-size="10">Data APIs</text>
          <line x1="365" y1="170" x2="365" y2="148" stroke="#cbd5e1" stroke-width="1" stroke-dasharray="4,3"></line>
          
          <rect x="480" y="170" width="130" height="60" rx="10" fill="#e2e8f0" stroke="#a855f7" stroke-width="1.5"></rect>
          <text x="545" y="195" text-anchor="middle" fill="#0f172a" font-family="Space Grotesk" font-size="13" font-weight="600">Synthesizer</text>
          <text x="545" y="215" text-anchor="middle" fill="#475569" font-family="Nunito" font-size="10">Analyze findings</text>
          <line x1="430" y1="200" x2="472" y2="200" stroke="#f59e0b" stroke-width="1.5" marker-end="url(#ah)"></line>
          
          <rect x="660" y="170" width="130" height="60" rx="10" fill="#e2e8f0" stroke="#22c55e" stroke-width="1.5"></rect>
          <text x="725" y="195" text-anchor="middle" fill="#0f172a" font-family="Space Grotesk" font-size="13" font-weight="600">Writer</text>
          <text x="725" y="215" text-anchor="middle" fill="#475569" font-family="Nunito" font-size="10">Generate report</text>
          <line x1="610" y1="200" x2="652" y2="200" stroke="#f59e0b" stroke-width="1.5" marker-end="url(#ah)"></line>
          
          <rect x="660" y="300" width="130" height="60" rx="10" fill="#e2e8f0" stroke="#ef4444" stroke-width="1.5"></rect>
          <text x="725" y="325" text-anchor="middle" fill="#0f172a" font-family="Space Grotesk" font-size="13" font-weight="600">Reviewer</text>
          <text x="725" y="345" text-anchor="middle" fill="#475569" font-family="Nunito" font-size="10">Quality check</text>
          <line x1="725" y1="230" x2="725" y2="292" stroke="#f59e0b" stroke-width="1.5" marker-end="url(#ah)"></line>
          
          <line x1="790" y1="330" x2="810" y2="330" stroke="#22c55e" stroke-width="1.5"></line>
          <text x="808" y="355" fill="#22c55e" font-family="Nunito" font-size="10">DONE</text>
          
          <path d="M660,340 Q580,380 545,240" fill="none" stroke="#ef4444" stroke-width="1.5" marker-end="url(#ahr)"></path>
          <text x="570" y="360" fill="#ef4444" font-family="Nunito" font-size="10">revise</text>
        </svg>