<svg viewBox="0 0 820 320" width="100%" xmlns="http://www.w3.org/2000/svg" font-family="'Space Grotesk', sans-serif">
          
          <rect width="820" height="320" fill="#f8fafc" rx="12"></rect>

          
          <defs>
            <marker id="arr" markerWidth="8" markerHeight="8" refX="6" refY="3" orient="auto">
              <path d="M0,0 L0,6 L8,3 z" fill="#3b82f6" opacity="0.7"></path>
            </marker>
            <marker id="arr2" markerWidth="8" markerHeight="8" refX="6" refY="3" orient="auto">
              <path d="M0,0 L0,6 L8,3 z" fill="#64748b"></path>
            </marker>
          </defs>

          
          <rect x="20" y="130" width="90" height="60" rx="8" fill="#f1f5f9" stroke="#cbd5e1" stroke-width="1.5"></rect>
          <text x="65" y="155" text-anchor="middle" fill="#475569" font-size="11">"The cat</text>
          <text x="65" y="170" text-anchor="middle" fill="#475569" font-size="11">sat on..."</text>
          <text x="65" y="188" text-anchor="middle" fill="#64748b" font-size="10">Input Text</text>

          
          <line x1="112" y1="160" x2="138" y2="160" stroke="#3b82f6" stroke-width="1.5" marker-end="url(#arr)" opacity="0.7"></line>

          
          <rect x="140" y="118" width="120" height="84" rx="8" fill="#f1f5f9" stroke="#3b82f6" stroke-width="1.5" opacity="0.7"></rect>
          <text x="200" y="143" text-anchor="middle" fill="#3b82f6" font-size="11" font-weight="600">Token</text>
          <text x="200" y="158" text-anchor="middle" fill="#3b82f6" font-size="11" font-weight="600">Embeddings</text>
          <text x="200" y="176" text-anchor="middle" fill="#64748b" font-size="10">+</text>
          <text x="200" y="192" text-anchor="middle" fill="#64748b" font-size="10">Positional Enc.</text>

          
          <line x1="262" y1="160" x2="288" y2="160" stroke="#3b82f6" stroke-width="1.5" marker-end="url(#arr)" opacity="0.7"></line>

          
          <rect x="290" y="50" width="350" height="220" rx="10" fill="none" stroke="#2e3554" stroke-width="1.5" stroke-dasharray="6,3"></rect>
          <text x="465" y="40" text-anchor="middle" fill="#64748b" font-size="11">&#215; N layers (e.g., 6 to 96)</text>

          
          <rect x="308" y="70" width="150" height="52" rx="8" fill="#e2e8f0" stroke="#6366f1" stroke-width="1.5"></rect>
          <text x="383" y="92" text-anchor="middle" fill="#a855f7" font-size="11" font-weight="600">Multi-Head</text>
          <text x="383" y="107" text-anchor="middle" fill="#a855f7" font-size="11" font-weight="600">Attention</text>

          
          <rect x="308" y="135" width="150" height="36" rx="6" fill="#f1f5f9" stroke="#cbd5e1" stroke-width="1.2"></rect>
          <text x="383" y="158" text-anchor="middle" fill="#67e8f9" font-size="11">Add &amp; Norm</text>

          
          <line x1="383" y1="123" x2="383" y2="135" stroke="#94a3b8" stroke-width="1.2" marker-end="url(#arr2)"></line>

          
          <rect x="308" y="185" width="150" height="50" rx="8" fill="#e2e8f0" stroke="#22d3ee" stroke-width="1.5"></rect>
          <text x="383" y="206" text-anchor="middle" fill="#22d3ee" font-size="11" font-weight="600">Feed-Forward</text>
          <text x="383" y="221" text-anchor="middle" fill="#22d3ee" font-size="11" font-weight="600">Network (FFN)</text>

          
          <line x1="383" y1="171" x2="383" y2="185" stroke="#94a3b8" stroke-width="1.2" marker-end="url(#arr2)"></line>

          
          <rect x="308" y="248" width="150" height="36" rx="6" fill="#f1f5f9" stroke="#cbd5e1" stroke-width="1.2"></rect>
          <text x="383" y="271" text-anchor="middle" fill="#67e8f9" font-size="11">Add &amp; Norm</text>

          
          <line x1="383" y1="235" x2="383" y2="248" stroke="#94a3b8" stroke-width="1.2" marker-end="url(#arr2)"></line>

          
          <path d="M296 96 Q280 96 280 266 Q280 284 308 284" fill="none" stroke="#3b82f6" stroke-width="1.2" stroke-dasharray="4,3" opacity="0.5"></path>
          
          <path d="M470 171 Q490 171 490 266 Q490 284 460 284" fill="none" stroke="#3b82f6" stroke-width="1.2" stroke-dasharray="4,3" opacity="0.5"></path>

          
          <line x1="460" y1="160" x2="486" y2="160" stroke="#3b82f6" stroke-width="1.5" marker-end="url(#arr)" opacity="0.7"></line>

          
          <rect x="480" y="110" width="140" height="100" rx="8" fill="#f1f5f9" stroke="#2e3554" stroke-width="1.2"></rect>
          <text x="550" y="140" text-anchor="middle" fill="#64748b" font-size="10">Decoder only:</text>
          <text x="550" y="157" text-anchor="middle" fill="#64748b" font-size="10">Cross-Attention</text>
          <text x="550" y="174" text-anchor="middle" fill="#64748b" font-size="10">+ Causal Mask</text>
          <text x="550" y="191" text-anchor="middle" fill="#64748b" font-size="10">(GPT / Claude)</text>

          
          <line x1="642" y1="160" x2="668" y2="160" stroke="#3b82f6" stroke-width="1.5" marker-end="url(#arr)" opacity="0.7"></line>

          
          <rect x="670" y="118" width="130" height="84" rx="8" fill="#f1f5f9" stroke="#3b82f6" stroke-width="1.5" opacity="0.7"></rect>
          <text x="735" y="146" text-anchor="middle" fill="#3b82f6" font-size="11" font-weight="600">Linear +</text>
          <text x="735" y="161" text-anchor="middle" fill="#3b82f6" font-size="11" font-weight="600">Softmax</text>
          <text x="735" y="182" text-anchor="middle" fill="#475569" font-size="10">Next-token</text>
          <text x="735" y="196" text-anchor="middle" fill="#475569" font-size="10">probability</text>

          
          <text x="410" y="308" text-anchor="middle" fill="#64748b" font-size="11" font-style="italic">Transformer block (simplified). Residual connections shown as dashed blue arcs.</text>
        </svg>